<svg width="371" height="184" viewBox="0 0 371 184" fill="none" xmlns="http://www.w3.org/2000/svg">
<path fill-rule="evenodd" clip-rule="evenodd" d="M370.341 0H0.367589V125.587L0.366699 125.587L0.366987 184L66.9677 125.587H370.341V0Z" fill="#292929"/>
<path d="M78 73.551V53.5864H80.1989V73.551H78Z" fill="white"/>
<path d="M94.102 59.8122C94.5906 59.5728 95.0895 59.3633 95.5985 59.1837C96.1279 58.9841 96.6572 58.8245 97.1866 58.7048C97.7363 58.585 98.2861 58.4952 98.8358 58.4354C99.4059 58.3755 99.976 58.3456 100.546 58.3456C102.032 58.3456 103.213 58.5651 104.089 59.0041C104.964 59.4231 105.596 60.0417 105.982 60.8599C106.39 61.678 106.593 62.6658 106.593 63.8231V73.551H104.394V63.8231C104.394 63.4639 104.343 63.0848 104.242 62.6857C104.16 62.2866 103.987 61.9075 103.722 61.5483C103.458 61.1692 103.05 60.8698 102.501 60.6503C101.951 60.4109 101.218 60.2912 100.302 60.2912C99.6706 60.2912 99.0191 60.341 98.3472 60.4408C97.6753 60.5406 96.9932 60.6902 96.3009 60.8898V73.551H94.102V59.8122Z" fill="white"/>
<path d="M117.781 74C116.336 74 115.084 73.7107 114.025 73.132C112.966 72.5333 112.152 71.6454 111.582 70.468C111.012 69.2907 110.726 67.824 110.726 66.068C110.726 63.4939 111.317 61.5683 112.498 60.2912C113.699 58.9941 115.338 58.3456 117.415 58.3456C119.044 58.3456 120.347 58.7048 121.324 59.4231C122.322 60.1415 123.034 61.1093 123.462 62.3265C123.89 63.5438 124.093 64.9206 124.073 66.4571H111.826L111.979 64.4816H122.637L121.782 64.781C121.721 63.2844 121.334 62.1669 120.622 61.4286C119.929 60.6902 118.861 60.3211 117.415 60.3211C116.417 60.3211 115.582 60.5007 114.911 60.8599C114.259 61.219 113.77 61.8476 113.445 62.7456C113.119 63.6236 112.956 64.8608 112.956 66.4571C112.956 68.273 113.384 69.6599 114.239 70.6177C115.114 71.5556 116.336 72.0245 117.904 72.0245C118.657 72.0245 119.349 71.9746 119.98 71.8748C120.612 71.7551 121.192 71.5955 121.721 71.3959C122.251 71.1964 122.719 70.9769 123.126 70.7374V72.9524C122.393 73.2916 121.579 73.551 120.683 73.7306C119.807 73.9102 118.84 74 117.781 74Z" fill="white"/>
<path d="M134.483 74C133.038 74 131.786 73.7107 130.727 73.132C129.668 72.5333 128.854 71.6454 128.284 70.468C127.714 69.2907 127.429 67.824 127.429 66.068C127.429 63.4939 128.019 61.5683 129.2 60.2912C130.401 58.9941 132.04 58.3456 134.117 58.3456C135.746 58.3456 137.049 58.7048 138.026 59.4231C139.024 60.1415 139.737 61.1093 140.164 62.3265C140.592 63.5438 140.795 64.9206 140.775 66.4571H128.528L128.681 64.4816H139.339L138.484 64.781C138.423 63.2844 138.036 62.1669 137.324 61.4286C136.632 60.6902 135.563 60.3211 134.117 60.3211C133.119 60.3211 132.285 60.5007 131.613 60.8599C130.961 61.219 130.472 61.8476 130.147 62.7456C129.821 63.6236 129.658 64.8608 129.658 66.4571C129.658 68.273 130.086 69.6599 130.941 70.6177C131.816 71.5556 133.038 72.0245 134.606 72.0245C135.359 72.0245 136.051 71.9746 136.682 71.8748C137.314 71.7551 137.894 71.5955 138.423 71.3959C138.953 71.1964 139.421 70.9769 139.828 70.7374V72.9524C139.095 73.2916 138.281 73.551 137.385 73.7306C136.509 73.9102 135.542 74 134.483 74Z" fill="white"/>
<path d="M151.216 74C150.483 74 149.709 73.8902 148.895 73.6707C148.081 73.4712 147.307 73.0921 146.574 72.5333C145.861 71.9546 145.271 71.1365 144.802 70.0789C144.355 69.0014 144.131 67.6045 144.131 65.8884C144.131 63.5737 144.701 61.7478 145.841 60.4109C147.001 59.054 148.752 58.3755 151.094 58.3755C151.542 58.3755 152.071 58.4354 152.682 58.5551C153.293 58.6748 153.894 58.8245 154.484 59.0041C155.074 59.1837 155.563 59.3732 155.95 59.5728L155.186 60.3211V52.2993H157.385V70.9769C157.385 71.5356 157.182 72.0145 156.775 72.4136C156.388 72.7927 155.879 73.102 155.247 73.3415C154.616 73.561 153.944 73.7206 153.232 73.8204C152.519 73.9401 151.847 74 151.216 74ZM151.247 72.0245C152.305 72.0245 153.222 71.9048 153.995 71.6653C154.789 71.4258 155.186 71.1265 155.186 70.7673V61.3986C154.555 61.0395 153.873 60.78 153.14 60.6204C152.428 60.4408 151.745 60.351 151.094 60.351C149.994 60.351 149.099 60.5905 148.406 61.0694C147.734 61.5283 147.236 62.1769 146.91 63.015C146.604 63.8331 146.452 64.7909 146.452 65.8884C146.452 66.966 146.574 67.9737 146.818 68.9116C147.063 69.8295 147.531 70.5778 148.223 71.1565C148.915 71.7351 149.923 72.0245 151.247 72.0245Z" fill="white"/>
<path d="M176.393 74C175.721 74 175.039 73.9302 174.347 73.7905C173.675 73.6508 173.044 73.4113 172.453 73.0721C171.883 72.7329 171.415 72.2739 171.049 71.6952C170.702 71.0966 170.529 70.3483 170.529 69.4503C170.529 68.2131 170.764 67.2254 171.232 66.4871C171.72 65.7288 172.382 65.19 173.217 64.8707C174.072 64.5315 175.049 64.3619 176.149 64.3619C176.984 64.3619 177.706 64.4118 178.317 64.5116C178.928 64.6113 179.468 64.761 179.936 64.9605C180.425 65.1401 180.862 65.3497 181.249 65.5891L181.677 67.5646C181.209 67.2254 180.526 66.9361 179.631 66.6966C178.755 66.4372 177.788 66.3075 176.729 66.3075C175.446 66.3075 174.459 66.5469 173.767 67.0259C173.074 67.5048 172.728 68.2032 172.728 69.1211C172.728 69.8594 172.932 70.4481 173.339 70.8871C173.767 71.3261 174.296 71.6354 174.927 71.815C175.579 71.9946 176.241 72.0844 176.912 72.0844C178.236 72.0844 179.234 71.9946 179.905 71.815C180.598 71.6154 180.944 71.1764 180.944 70.498V63.6435C180.944 62.4862 180.598 61.6381 179.905 61.0993C179.213 60.5605 178.226 60.2912 176.943 60.2912C176.129 60.2912 175.263 60.4109 174.347 60.6503C173.451 60.8698 172.677 61.229 172.026 61.7279V59.5728C172.657 59.1737 173.502 58.8744 174.561 58.6748C175.62 58.4553 176.648 58.3456 177.645 58.3456C178.317 58.3456 178.938 58.4154 179.508 58.5551C180.079 58.6748 180.588 58.8644 181.035 59.1238C181.483 59.3633 181.86 59.6825 182.165 60.0816C182.491 60.4608 182.736 60.9097 182.898 61.4286C183.082 61.9274 183.173 62.4961 183.173 63.1347V70.3782C183.173 71.4358 182.848 72.224 182.196 72.7429C181.565 73.2617 180.73 73.6009 179.692 73.7605C178.674 73.9202 177.574 74 176.393 74Z" fill="white"/>
<path d="M196.909 73.551V52H199.108V60.2912L198.864 59.7224C199.637 59.3034 200.452 58.9741 201.307 58.7347C202.162 58.4753 202.966 58.3456 203.72 58.3456C204.982 58.3456 206.041 58.5751 206.896 59.034C207.771 59.493 208.433 60.1914 208.881 61.1293C209.349 62.0472 209.584 63.2345 209.584 64.6912V73.551H207.385V64.6912C207.385 63.2943 207.059 62.2168 206.407 61.4585C205.756 60.7002 204.778 60.3211 203.475 60.3211C202.763 60.3211 202.04 60.4209 201.307 60.6204C200.594 60.82 199.861 61.1193 199.108 61.5184V73.551H196.909Z" fill="white"/>
<path d="M219.729 74C219.057 74 218.375 73.9302 217.683 73.7905C217.011 73.6508 216.38 73.4113 215.789 73.0721C215.219 72.7329 214.751 72.2739 214.384 71.6952C214.038 71.0966 213.865 70.3483 213.865 69.4503C213.865 68.2131 214.099 67.2254 214.568 66.4871C215.056 65.7288 215.718 65.19 216.553 64.8707C217.408 64.5315 218.385 64.3619 219.485 64.3619C220.32 64.3619 221.042 64.4118 221.653 64.5116C222.264 64.6113 222.804 64.761 223.272 64.9605C223.761 65.1401 224.198 65.3497 224.585 65.5891L225.013 67.5646C224.544 67.2254 223.862 66.9361 222.966 66.6966C222.091 66.4372 221.124 66.3075 220.065 66.3075C218.782 66.3075 217.795 66.5469 217.103 67.0259C216.41 67.5048 216.064 68.2032 216.064 69.1211C216.064 69.8594 216.268 70.4481 216.675 70.8871C217.103 71.3261 217.632 71.6354 218.263 71.815C218.915 71.9946 219.576 72.0844 220.248 72.0844C221.572 72.0844 222.569 71.9946 223.241 71.815C223.934 71.6154 224.28 71.1764 224.28 70.498V63.6435C224.28 62.4862 223.934 61.6381 223.241 61.0993C222.549 60.5605 221.562 60.2912 220.279 60.2912C219.464 60.2912 218.599 60.4109 217.683 60.6503C216.787 60.8698 216.013 61.229 215.362 61.7279V59.5728C215.993 59.1737 216.838 58.8744 217.897 58.6748C218.955 58.4553 219.984 58.3456 220.981 58.3456C221.653 58.3456 222.274 58.4154 222.844 58.5551C223.414 58.6748 223.923 58.8644 224.371 59.1238C224.819 59.3633 225.196 59.6825 225.501 60.0816C225.827 60.4608 226.071 60.9097 226.234 61.4286C226.418 61.9274 226.509 62.4961 226.509 63.1347V70.3782C226.509 71.4358 226.183 72.224 225.532 72.7429C224.901 73.2617 224.066 73.6009 223.028 73.7605C222.009 73.9202 220.91 74 219.729 74Z" fill="white"/>
<path d="M231.509 73.551V58.615H233.708V73.551H231.509ZM231.387 55.951V53.5864H233.83V55.951H231.387Z" fill="white"/>
<path d="M238.724 73.551V59.8122C238.968 59.7125 239.437 59.5429 240.129 59.3034C240.841 59.0639 241.686 58.8444 242.664 58.6449C243.661 58.4454 244.69 58.3456 245.748 58.3456C245.911 58.3456 246.074 58.3655 246.237 58.4054C246.4 58.4454 246.563 58.4853 246.726 58.5252V60.4408C246.196 60.381 245.677 60.351 245.168 60.351C244.679 60.351 244.201 60.381 243.733 60.4408C243.264 60.4807 242.796 60.5406 242.328 60.6204C241.859 60.7002 241.391 60.78 240.923 60.8599V73.551H238.724Z" fill="white"/>
<path d="M255.546 73.7905C254.731 73.7905 253.896 73.6907 253.041 73.4912C252.207 73.2717 251.433 72.8925 250.72 72.3537C250.028 71.795 249.468 71.0068 249.04 69.9891C248.613 68.9714 248.399 67.6644 248.399 66.068C248.399 64.4717 248.613 63.1746 249.04 62.1769C249.468 61.1592 250.028 60.371 250.72 59.8122C251.433 59.2535 252.207 58.8744 253.041 58.6748C253.896 58.4553 254.731 58.3456 255.546 58.3456C256.319 58.3456 257.083 58.4154 257.836 58.5551C258.61 58.6948 259.353 58.9043 260.066 59.1837V61.249C259.394 60.9696 258.702 60.7601 257.989 60.6204C257.276 60.4807 256.543 60.4109 255.79 60.4109C253.978 60.4109 252.654 60.8599 251.82 61.7578C251.005 62.6558 250.598 64.0925 250.598 66.068C250.598 68.0635 251.005 69.5102 251.82 70.4082C252.654 71.2862 253.978 71.7252 255.79 71.7252C256.543 71.7252 257.276 71.6553 257.989 71.5156C258.702 71.376 259.394 71.1664 260.066 70.8871V72.9823C259.353 73.2417 258.61 73.4413 257.836 73.581C257.083 73.7206 256.319 73.7905 255.546 73.7905Z" fill="white"/>
<path d="M270.578 74C269.234 74 268.083 73.7705 267.126 73.3116C266.169 72.8526 265.436 72.1841 264.927 71.3061C264.439 70.4281 264.195 69.3506 264.195 68.0735V58.615H266.393V67.5946C266.393 69.1111 266.729 70.2286 267.401 70.9469C268.094 71.6454 269.152 71.9946 270.578 71.9946C272.003 71.9946 273.051 71.6454 273.723 70.9469C274.416 70.2286 274.762 69.1111 274.762 67.5946V58.615H276.961V68.0735C276.961 69.9692 276.401 71.4358 275.281 72.4735C274.181 73.4912 272.614 74 270.578 74Z" fill="white"/>
<path d="M286.646 73.7905C285.567 73.7905 284.661 73.4712 283.928 72.8327C283.195 72.1742 282.828 71.2063 282.828 69.9292V60.5905H280.171V58.615H282.828V54.3946H285.027V58.615H288.967V60.5905H285.027V69.2408C285.027 70.0789 285.16 70.7075 285.424 71.1265C285.689 71.5456 286.228 71.7551 287.043 71.7551C287.409 71.7551 287.766 71.7252 288.112 71.6653C288.458 71.5855 288.743 71.4957 288.967 71.3959V73.4313C288.682 73.5311 288.315 73.6109 287.868 73.6707C287.44 73.7506 287.033 73.7905 286.646 73.7905Z" fill="white"/>
<path d="M292.946 73.551V70.5578H296V73.551H292.946Z" fill="white"/>
</svg>
