<svg width="391" height="312" viewBox="0 0 391 312" fill="none" xmlns="http://www.w3.org/2000/svg">
<path fill-rule="evenodd" clip-rule="evenodd" d="M371.814 0H0V267.8L320.987 267.8L371.814 312V267.8V0Z" fill="#292929"/>
<path d="M75.4253 72.8V57.1922H77.1102V72.8H75.4253Z" fill="white"/>
<path d="M80.2035 61.568L81.9351 56.9816H83.854L81.8883 61.568H80.2035Z" fill="white"/>
<path d="M90.8248 72.8L85.8872 61.1234H87.689L91.9948 71.3492L91.6204 71.4428L95.8091 61.1234H97.494L92.533 72.8H90.8248Z" fill="white"/>
<path d="M104.193 73.151C103.085 73.151 102.125 72.9248 101.314 72.4724C100.503 72.0044 99.8789 71.3102 99.4421 70.3898C99.0053 69.4694 98.7869 68.3228 98.7869 66.95C98.7869 64.9376 99.2393 63.4322 100.144 62.4338C101.065 61.4198 102.32 60.9128 103.912 60.9128C105.16 60.9128 106.158 61.1936 106.907 61.7552C107.671 62.3168 108.217 63.0734 108.545 64.025C108.873 64.9766 109.029 66.053 109.013 67.2542H99.6293L99.7463 65.7098H107.913L107.258 65.9438C107.211 64.7738 106.915 63.9002 106.369 63.323C105.838 62.7458 105.019 62.4572 103.912 62.4572C103.147 62.4572 102.508 62.5976 101.993 62.8784C101.494 63.1592 101.119 63.6506 100.87 64.3526C100.62 65.039 100.495 66.0062 100.495 67.2542C100.495 68.6738 100.823 69.758 101.478 70.5068C102.149 71.24 103.085 71.6066 104.286 71.6066C104.863 71.6066 105.394 71.5676 105.877 71.4896C106.361 71.396 106.806 71.2712 107.211 71.1152C107.617 70.9592 107.976 70.7876 108.288 70.6004V72.332C107.726 72.5972 107.102 72.8 106.416 72.9404C105.745 73.0808 105.004 73.151 104.193 73.151Z" fill="white"/>
<path d="M123.566 73.151C122.958 73.151 122.373 73.112 121.811 73.034C121.265 72.9716 120.774 72.8546 120.337 72.683C119.916 72.4958 119.581 72.254 119.331 71.9576C119.081 71.6612 118.956 71.279 118.956 70.811V56.186H120.641V62.4572L120.056 61.8722C120.368 61.7162 120.743 61.568 121.18 61.4276C121.632 61.2872 122.092 61.1702 122.56 61.0766C123.028 60.983 123.434 60.9362 123.777 60.9362C125.587 60.9362 126.928 61.4666 127.802 62.5274C128.676 63.5726 129.112 65 129.112 66.8096C129.112 68.1512 128.933 69.2432 128.574 70.0856C128.215 70.9124 127.755 71.552 127.194 72.0044C126.648 72.4412 126.055 72.7376 125.415 72.8936C124.776 73.0652 124.159 73.151 123.566 73.151ZM123.403 71.6066C124.51 71.6066 125.345 71.3804 125.907 70.928C126.468 70.4756 126.843 69.8906 127.03 69.173C127.233 68.4398 127.334 67.652 127.334 66.8096C127.334 65.9516 127.209 65.2028 126.96 64.5632C126.726 63.908 126.351 63.401 125.836 63.0422C125.322 62.6678 124.635 62.4806 123.777 62.4806C123.293 62.4806 122.771 62.5508 122.209 62.6912C121.648 62.816 121.125 63.0188 120.641 63.2996V70.4132C120.641 70.7564 120.79 71.0138 121.086 71.1854C121.398 71.357 121.765 71.474 122.186 71.5364C122.623 71.5832 123.028 71.6066 123.403 71.6066Z" fill="white"/>
<path d="M137.1 73.151C135.992 73.151 135.033 72.9248 134.222 72.4724C133.41 72.0044 132.786 71.3102 132.35 70.3898C131.913 69.4694 131.694 68.3228 131.694 66.95C131.694 64.9376 132.147 63.4322 133.052 62.4338C133.972 61.4198 135.228 60.9128 136.819 60.9128C138.067 60.9128 139.066 61.1936 139.815 61.7552C140.579 62.3168 141.125 63.0734 141.453 64.025C141.78 64.9766 141.936 66.053 141.921 67.2542H132.537L132.654 65.7098H140.821L140.166 65.9438C140.119 64.7738 139.822 63.9002 139.276 63.323C138.746 62.7458 137.927 62.4572 136.819 62.4572C136.055 62.4572 135.415 62.5976 134.9 62.8784C134.401 63.1592 134.027 63.6506 133.777 64.3526C133.528 65.039 133.403 66.0062 133.403 67.2542C133.403 68.6738 133.73 69.758 134.386 70.5068C135.056 71.24 135.992 71.6066 137.194 71.6066C137.771 71.6066 138.301 71.5676 138.785 71.4896C139.269 71.396 139.713 71.2712 140.119 71.1152C140.524 70.9592 140.883 70.7876 141.195 70.6004V72.332C140.634 72.5972 140.01 72.8 139.323 72.9404C138.652 73.0808 137.911 73.151 137.1 73.151Z" fill="white"/>
<path d="M149.897 73.151C148.79 73.151 147.83 72.9248 147.019 72.4724C146.208 72.0044 145.584 71.3102 145.147 70.3898C144.71 69.4694 144.492 68.3228 144.492 66.95C144.492 64.9376 144.944 63.4322 145.849 62.4338C146.769 61.4198 148.025 60.9128 149.617 60.9128C150.865 60.9128 151.863 61.1936 152.612 61.7552C153.376 62.3168 153.922 63.0734 154.25 64.025C154.578 64.9766 154.734 66.053 154.718 67.2542H145.334L145.451 65.7098H153.618L152.963 65.9438C152.916 64.7738 152.62 63.9002 152.074 63.323C151.543 62.7458 150.724 62.4572 149.617 62.4572C148.852 62.4572 148.213 62.5976 147.698 62.8784C147.199 63.1592 146.824 63.6506 146.574 64.3526C146.325 65.039 146.2 66.0062 146.2 67.2542C146.2 68.6738 146.528 69.758 147.183 70.5068C147.854 71.24 148.79 71.6066 149.991 71.6066C150.568 71.6066 151.099 71.5676 151.582 71.4896C152.066 71.396 152.511 71.2712 152.916 71.1152C153.322 70.9592 153.681 70.7876 153.993 70.6004V72.332C153.431 72.5972 152.807 72.8 152.121 72.9404C151.45 73.0808 150.709 73.151 149.897 73.151Z" fill="white"/>
<path d="M157.874 62.0594C158.249 61.8722 158.631 61.7084 159.021 61.568C159.426 61.412 159.832 61.2872 160.238 61.1936C160.659 61.1 161.08 61.0298 161.501 60.983C161.938 60.9362 162.375 60.9128 162.812 60.9128C163.951 60.9128 164.855 61.0844 165.526 61.4276C166.197 61.7552 166.681 62.2388 166.977 62.8784C167.289 63.518 167.445 64.2902 167.445 65.195V72.8H165.76V65.195C165.76 64.9142 165.721 64.6178 165.643 64.3058C165.581 63.9938 165.448 63.6974 165.245 63.4166C165.043 63.1202 164.731 62.8862 164.309 62.7146C163.888 62.5274 163.327 62.4338 162.625 62.4338C162.141 62.4338 161.642 62.4728 161.127 62.5508C160.612 62.6288 160.089 62.7458 159.559 62.9018V72.8H157.874V62.0594Z" fill="white"/>
<path d="M182.828 73.151C182.267 73.151 181.674 73.0652 181.05 72.8936C180.426 72.7376 179.833 72.4412 179.271 72.0044C178.725 71.552 178.273 70.9124 177.914 70.0856C177.571 69.2432 177.399 68.1512 177.399 66.8096C177.399 65 177.836 63.5726 178.71 62.5274C179.599 61.4666 180.941 60.9362 182.735 60.9362C183.078 60.9362 183.484 60.983 183.952 61.0766C184.42 61.1702 184.88 61.2872 185.332 61.4276C185.785 61.568 186.159 61.7162 186.455 61.8722L185.87 62.4572V56.186H187.555V70.7876C187.555 71.2244 187.399 71.5988 187.087 71.9108C186.791 72.2072 186.401 72.449 185.917 72.6362C185.434 72.8078 184.919 72.9326 184.373 73.0106C183.827 73.1042 183.312 73.151 182.828 73.151ZM182.852 71.6066C183.663 71.6066 184.365 71.513 184.958 71.3258C185.566 71.1386 185.87 70.9046 185.87 70.6238V63.2996C185.387 63.0188 184.864 62.816 184.303 62.6912C183.757 62.5508 183.234 62.4806 182.735 62.4806C181.892 62.4806 181.206 62.6678 180.675 63.0422C180.161 63.401 179.778 63.908 179.529 64.5632C179.295 65.2028 179.178 65.9516 179.178 66.8096C179.178 67.652 179.271 68.4398 179.459 69.173C179.646 69.8906 180.005 70.4756 180.535 70.928C181.065 71.3804 181.838 71.6066 182.852 71.6066Z" fill="white"/>
<path d="M196.105 73.151C194.279 73.151 192.922 72.6128 192.033 71.5364C191.159 70.4444 190.722 68.9312 190.722 66.9968C190.722 64.9688 191.183 63.4478 192.103 62.4338C193.039 61.4198 194.357 60.9128 196.058 60.9128C197.321 60.9128 198.351 61.1702 199.147 61.685C199.942 62.1842 200.527 62.894 200.902 63.8144C201.276 64.7192 201.463 65.78 201.463 66.9968C201.463 68.9156 200.995 70.421 200.059 71.513C199.139 72.605 197.821 73.151 196.105 73.151ZM196.081 71.6066C197.033 71.6066 197.774 71.4038 198.304 70.9982C198.835 70.577 199.209 70.0232 199.427 69.3368C199.661 68.6348 199.778 67.8548 199.778 66.9968C199.778 66.0764 199.661 65.2808 199.427 64.61C199.193 63.9236 198.803 63.3932 198.257 63.0188C197.727 62.6444 197.002 62.4572 196.081 62.4572C195.145 62.4572 194.412 62.66 193.881 63.0656C193.351 63.4712 192.969 64.0172 192.735 64.7036C192.516 65.3744 192.407 66.1388 192.407 66.9968C192.407 68.3696 192.68 69.485 193.226 70.343C193.772 71.1854 194.724 71.6066 196.081 71.6066Z" fill="white"/>
<path d="M204.724 72.8V61.1234H206.409V72.8H204.724ZM204.63 59.0408V57.1922H206.502V59.0408H204.63Z" fill="white"/>
<path d="M210.252 62.0594C210.626 61.8722 211.009 61.7084 211.399 61.568C211.804 61.412 212.21 61.2872 212.615 61.1936C213.037 61.1 213.458 61.0298 213.879 60.983C214.316 60.9362 214.753 60.9128 215.19 60.9128C216.328 60.9128 217.233 61.0844 217.904 61.4276C218.575 61.7552 219.059 62.2388 219.355 62.8784C219.667 63.518 219.823 64.2902 219.823 65.195V72.8H218.138V65.195C218.138 64.9142 218.099 64.6178 218.021 64.3058C217.959 63.9938 217.826 63.6974 217.623 63.4166C217.42 63.1202 217.108 62.8862 216.687 62.7146C216.266 62.5274 215.704 62.4338 215.002 62.4338C214.519 62.4338 214.02 62.4728 213.505 62.5508C212.99 62.6288 212.467 62.7458 211.937 62.9018V72.8H210.252V62.0594Z" fill="white"/>
<path d="M228.325 73.151C227.124 73.151 226.126 72.917 225.33 72.449C224.55 71.9654 223.965 71.2868 223.575 70.4132C223.185 69.524 222.99 68.4788 222.99 67.2776C222.99 65.936 223.169 64.8518 223.528 64.025C223.887 63.1826 224.347 62.543 224.909 62.1062C225.486 61.6538 226.11 61.3496 226.781 61.1936C227.467 61.022 228.13 60.9362 228.77 60.9362C229.503 60.9362 230.197 61.0376 230.853 61.2404C231.523 61.4276 232.07 61.7318 232.491 62.153C232.928 62.5742 233.146 63.1358 233.146 63.8378V73.2914C233.146 73.7594 233.076 74.2352 232.935 74.7188C232.795 75.2024 232.538 75.647 232.163 76.0526C231.804 76.4738 231.289 76.8092 230.619 77.0588C229.963 77.3084 229.113 77.4332 228.068 77.4332C227.397 77.4332 226.781 77.3708 226.219 77.246C225.658 77.1212 225.166 77.0042 224.745 76.895V75.3038C224.995 75.3662 225.275 75.4364 225.587 75.5144C225.915 75.608 226.266 75.686 226.64 75.7484C227.031 75.8108 227.444 75.842 227.881 75.842C228.942 75.842 229.722 75.7094 230.221 75.4442C230.736 75.1946 231.071 74.8748 231.227 74.4848C231.383 74.1104 231.461 73.7282 231.461 73.3382V71.63L232.046 72.215C231.75 72.371 231.375 72.5192 230.923 72.6596C230.47 72.8 230.01 72.917 229.542 73.0106C229.074 73.1042 228.669 73.151 228.325 73.151ZM228.325 71.6066C228.825 71.6066 229.347 71.5442 229.893 71.4194C230.455 71.279 230.977 71.0684 231.461 70.7876V64.0718C231.461 63.635 231.336 63.3074 231.087 63.089C230.853 62.855 230.533 62.699 230.127 62.621C229.722 62.5274 229.285 62.4806 228.817 62.4806C227.678 62.4806 226.82 62.7068 226.243 63.1592C225.665 63.596 225.275 64.181 225.073 64.9142C224.87 65.6474 224.768 66.4352 224.768 67.2776C224.768 68.5568 225.041 69.602 225.587 70.4132C226.133 71.2088 227.046 71.6066 228.325 71.6066Z" fill="white"/>
<path d="M253.256 65.195V72.8H251.571V65.195C251.571 64.9142 251.532 64.6178 251.454 64.3058C251.392 63.9938 251.259 63.6974 251.056 63.4166C250.854 63.1202 250.542 62.8862 250.12 62.7146C249.699 62.5274 249.138 62.4338 248.435 62.4338C247.952 62.4338 247.453 62.4728 246.938 62.5508C246.423 62.6288 245.9 62.7458 245.37 62.9018V72.8H243.685V62.0594C244.06 61.8722 244.442 61.7084 244.832 61.568C245.237 61.412 245.643 61.2872 246.049 61.1936C246.47 61.1 246.891 61.0298 247.312 60.983C247.749 60.9362 248.186 60.9128 248.623 60.9128C249.762 60.9128 250.666 61.0844 251.337 61.4276C252.008 61.7552 252.492 62.2388 252.788 62.8784C253.1 63.518 253.256 64.2902 253.256 65.195ZM251.033 62.5274C251.548 62.1374 252.07 61.8254 252.601 61.5914C253.131 61.3574 253.677 61.1858 254.239 61.0766C254.816 60.9674 255.393 60.9128 255.971 60.9128C257.109 60.9128 258.014 61.0844 258.685 61.4276C259.356 61.7552 259.84 62.2388 260.136 62.8784C260.448 63.518 260.604 64.2902 260.604 65.195V72.8H258.919V65.195C258.919 64.9142 258.88 64.6178 258.802 64.3058C258.74 63.9938 258.607 63.6974 258.404 63.4166C258.201 63.1202 257.889 62.8862 257.468 62.7146C257.047 62.5274 256.485 62.4338 255.783 62.4338C255.3 62.4338 254.801 62.504 254.286 62.6444C253.771 62.7848 253.248 63.0266 252.718 63.3698L251.033 62.5274Z" fill="white"/>
<path d="M269.235 73.151C268.205 73.151 267.323 72.9716 266.59 72.6128C265.857 72.254 265.295 71.7314 264.905 71.045C264.531 70.3586 264.344 69.5162 264.344 68.5178V61.1234H266.029V68.1434C266.029 69.329 266.286 70.2026 266.801 70.7642C267.331 71.3102 268.142 71.5832 269.235 71.5832C270.327 71.5832 271.13 71.3102 271.645 70.7642C272.175 70.2026 272.44 69.329 272.44 68.1434V61.1234H274.125V68.5178C274.125 69.9998 273.696 71.1464 272.838 71.9576C271.996 72.7532 270.795 73.151 269.235 73.151Z" fill="white"/>
<path d="M282.763 72.9872C282.139 72.9872 281.5 72.9092 280.844 72.7532C280.205 72.5816 279.612 72.2852 279.066 71.864C278.535 71.4272 278.106 70.811 277.779 70.0154C277.451 69.2198 277.287 68.198 277.287 66.95C277.287 65.702 277.451 64.688 277.779 63.908C278.106 63.1124 278.535 62.4962 279.066 62.0594C279.612 61.6226 280.205 61.3262 280.844 61.1702C281.5 60.9986 282.139 60.9128 282.763 60.9128C283.356 60.9128 283.941 60.9674 284.518 61.0766C285.111 61.1858 285.68 61.3496 286.226 61.568V63.1826C285.712 62.9642 285.181 62.8004 284.635 62.6912C284.089 62.582 283.528 62.5274 282.95 62.5274C281.562 62.5274 280.548 62.8784 279.908 63.5804C279.284 64.2824 278.972 65.4056 278.972 66.95C278.972 68.51 279.284 69.641 279.908 70.343C280.548 71.0294 281.562 71.3726 282.95 71.3726C283.528 71.3726 284.089 71.318 284.635 71.2088C285.181 71.0996 285.712 70.9358 286.226 70.7174V72.3554C285.68 72.5582 285.111 72.7142 284.518 72.8234C283.941 72.9326 283.356 72.9872 282.763 72.9872Z" fill="white"/>
<path d="M289.39 72.8V55.952H291.075V62.4338L290.888 61.9892C291.48 61.6616 292.105 61.4042 292.76 61.217C293.415 61.0142 294.031 60.9128 294.608 60.9128C295.576 60.9128 296.387 61.0922 297.042 61.451C297.713 61.8098 298.22 62.3558 298.563 63.089C298.922 63.8066 299.101 64.7348 299.101 65.8736V72.8H297.417V65.8736C297.417 64.7816 297.167 63.9392 296.668 63.3464C296.168 62.7536 295.42 62.4572 294.421 62.4572C293.875 62.4572 293.321 62.5352 292.76 62.6912C292.214 62.8472 291.652 63.0812 291.075 63.3932V72.8H289.39Z" fill="white"/>
<path d="M75.9077 101.751C75.2993 101.751 74.7142 101.712 74.1526 101.634C73.6066 101.572 73.1152 101.455 72.6784 101.283C72.2571 101.096 71.9217 100.854 71.6721 100.558C71.4225 100.261 71.2977 99.879 71.2977 99.411V84.786H72.9826V91.0572L72.3975 90.4722C72.7096 90.3162 73.084 90.168 73.5208 90.0276C73.9732 89.8872 74.4334 89.7702 74.9014 89.6766C75.3695 89.583 75.7751 89.5362 76.1183 89.5362C77.928 89.5362 79.2696 90.0666 80.1432 91.1274C81.0169 92.1726 81.4537 93.6 81.4537 95.4096C81.4537 96.7512 81.2743 97.8432 80.9155 98.6856C80.5567 99.5124 80.0964 100.152 79.5348 100.604C78.9888 101.041 78.396 101.338 77.7564 101.494C77.1167 101.665 76.5005 101.751 75.9077 101.751ZM75.7439 100.207C76.8515 100.207 77.6861 99.9804 78.2478 99.528C78.8094 99.0756 79.1838 98.4906 79.371 97.773C79.5738 97.0398 79.6752 96.252 79.6752 95.4096C79.6752 94.5516 79.5504 93.8028 79.3008 93.1632C79.0668 92.508 78.6924 92.001 78.1776 91.6422C77.6627 91.2678 76.9763 91.0806 76.1183 91.0806C75.6347 91.0806 75.112 91.1508 74.5504 91.2912C73.9888 91.416 73.4662 91.6188 72.9826 91.8996V99.0132C72.9826 99.3564 73.1308 99.6138 73.4272 99.7854C73.7392 99.957 74.1058 100.074 74.527 100.136C74.9638 100.183 75.3695 100.207 75.7439 100.207Z" fill="white"/>
<path d="M89.4413 101.751C88.3336 101.751 87.3742 101.525 86.563 101.072C85.7517 100.604 85.1277 99.9102 84.6909 98.9898C84.2541 98.0694 84.0357 96.9228 84.0357 95.55C84.0357 93.5376 84.4881 92.0322 85.3929 91.0338C86.3133 90.0198 87.5692 89.5128 89.1605 89.5128C90.4085 89.5128 91.4069 89.7936 92.1558 90.3552C92.9202 90.9168 93.4662 91.6734 93.7938 92.625C94.1214 93.5766 94.2774 94.653 94.2618 95.8542H84.8781L84.9951 94.3098H93.162L92.5068 94.5438C92.46 93.3738 92.1636 92.5002 91.6175 91.923C91.0871 91.3458 90.2681 91.0572 89.1605 91.0572C88.396 91.0572 87.7564 91.1976 87.2416 91.4784C86.7424 91.7592 86.3679 92.2506 86.1183 92.9526C85.8687 93.639 85.7439 94.6062 85.7439 95.8542C85.7439 97.2738 86.0715 98.358 86.7268 99.1068C87.3976 99.84 88.3336 100.207 89.5349 100.207C90.1121 100.207 90.6425 100.168 91.1261 100.09C91.6097 99.996 92.0544 99.8712 92.46 99.7152C92.8656 99.5592 93.2244 99.3876 93.5364 99.2004V100.932C92.9748 101.197 92.3508 101.4 91.6643 101.54C90.9935 101.681 90.2525 101.751 89.4413 101.751Z" fill="white"/>
<path d="M101.092 101.587C100.265 101.587 99.5709 101.338 99.0093 100.838C98.4477 100.324 98.1669 99.567 98.1669 98.5686V91.2678H96.131V89.7234H98.1669V86.424H99.8517V89.7234H102.87V91.2678H99.8517V98.0304C99.8517 98.6856 99.9531 99.177 100.156 99.5046C100.359 99.8322 100.772 99.996 101.396 99.996C101.677 99.996 101.95 99.9726 102.215 99.9258C102.48 99.8634 102.699 99.7932 102.87 99.7152V101.306C102.652 101.384 102.371 101.447 102.028 101.494C101.7 101.556 101.388 101.587 101.092 101.587Z" fill="white"/>
<path d="M109.593 101.587C108.766 101.587 108.072 101.338 107.51 100.838C106.949 100.324 106.668 99.567 106.668 98.5686V91.2678H104.632V89.7234H106.668V86.424H108.353V89.7234H111.372V91.2678H108.353V98.0304C108.353 98.6856 108.454 99.177 108.657 99.5046C108.86 99.8322 109.273 99.996 109.897 99.996C110.178 99.996 110.451 99.9726 110.716 99.9258C110.982 99.8634 111.2 99.7932 111.372 99.7152V101.306C111.153 101.384 110.872 101.447 110.529 101.494C110.202 101.556 109.89 101.587 109.593 101.587Z" fill="white"/>
<path d="M119.241 101.751C118.133 101.751 117.174 101.525 116.363 101.072C115.551 100.604 114.927 99.9102 114.49 98.9898C114.054 98.0694 113.835 96.9228 113.835 95.55C113.835 93.5376 114.288 92.0322 115.192 91.0338C116.113 90.0198 117.369 89.5128 118.96 89.5128C120.208 89.5128 121.207 89.7936 121.955 90.3552C122.72 90.9168 123.266 91.6734 123.593 92.625C123.921 93.5766 124.077 94.653 124.061 95.8542H114.678L114.795 94.3098H122.962L122.306 94.5438C122.26 93.3738 121.963 92.5002 121.417 91.923C120.887 91.3458 120.068 91.0572 118.96 91.0572C118.196 91.0572 117.556 91.1976 117.041 91.4784C116.542 91.7592 116.168 92.2506 115.918 92.9526C115.668 93.639 115.544 94.6062 115.544 95.8542C115.544 97.2738 115.871 98.358 116.526 99.1068C117.197 99.84 118.133 100.207 119.334 100.207C119.912 100.207 120.442 100.168 120.926 100.09C121.409 99.996 121.854 99.8712 122.26 99.7152C122.665 99.5592 123.024 99.3876 123.336 99.2004V100.932C122.774 101.197 122.15 101.4 121.464 101.54C120.793 101.681 120.052 101.751 119.241 101.751Z" fill="white"/>
<path d="M127.218 101.4V90.6594C127.405 90.5814 127.764 90.4488 128.294 90.2616C128.84 90.0744 129.488 89.9028 130.236 89.7468C131.001 89.5908 131.789 89.5128 132.6 89.5128C132.725 89.5128 132.849 89.5284 132.974 89.5596C133.099 89.5908 133.224 89.622 133.349 89.6532V91.1508C132.943 91.104 132.545 91.0806 132.155 91.0806C131.781 91.0806 131.414 91.104 131.055 91.1508C130.697 91.182 130.338 91.2288 129.979 91.2912C129.62 91.3536 129.261 91.416 128.902 91.4784V101.4H127.218Z" fill="white"/>
<path d="M146.5 101.587C145.673 101.587 144.979 101.338 144.417 100.838C143.856 100.324 143.575 99.567 143.575 98.5686V91.2678H141.539V89.7234H143.575V86.424H145.26V89.7234H148.278V91.2678H145.26V98.0304C145.26 98.6856 145.361 99.177 145.564 99.5046C145.767 99.8322 146.18 99.996 146.804 99.996C147.085 99.996 147.358 99.9726 147.623 99.9258C147.888 99.8634 148.107 99.7932 148.278 99.7152V101.306C148.06 101.384 147.779 101.447 147.436 101.494C147.108 101.556 146.796 101.587 146.5 101.587Z" fill="white"/>
<path d="M151.327 101.4V84.552H153.012V91.0338L152.825 90.5892C153.417 90.2616 154.041 90.0042 154.697 89.817C155.352 89.6142 155.968 89.5128 156.545 89.5128C157.513 89.5128 158.324 89.6922 158.979 90.051C159.65 90.4098 160.157 90.9558 160.5 91.689C160.859 92.4066 161.038 93.3348 161.038 94.4736V101.4H159.353V94.4736C159.353 93.3816 159.104 92.5392 158.605 91.9464C158.105 91.3536 157.357 91.0572 156.358 91.0572C155.812 91.0572 155.258 91.1352 154.697 91.2912C154.151 91.4472 153.589 91.6812 153.012 91.9932V101.4H151.327Z" fill="white"/>
<path d="M168.812 101.751C168.297 101.751 167.775 101.696 167.244 101.587C166.729 101.478 166.246 101.291 165.793 101.026C165.356 100.76 164.998 100.402 164.717 99.9492C164.452 99.4812 164.319 98.8962 164.319 98.1942C164.319 97.227 164.498 96.4548 164.857 95.8776C165.232 95.2848 165.739 94.8636 166.378 94.614C167.034 94.3488 167.782 94.2162 168.625 94.2162C169.264 94.2162 169.818 94.2552 170.286 94.3332C170.754 94.4112 171.168 94.5282 171.527 94.6842C171.901 94.8246 172.236 94.9884 172.533 95.1756L172.86 96.72C172.502 96.4548 171.979 96.2286 171.293 96.0414C170.622 95.8386 169.881 95.7372 169.069 95.7372C168.087 95.7372 167.33 95.9244 166.8 96.2988C166.269 96.6732 166.004 97.2192 166.004 97.9368C166.004 98.514 166.16 98.9742 166.472 99.3174C166.8 99.6606 167.205 99.9024 167.689 100.043C168.188 100.183 168.695 100.253 169.21 100.253C170.224 100.253 170.988 100.183 171.503 100.043C172.034 99.8868 172.299 99.5436 172.299 99.0132V93.6546C172.299 92.7498 172.034 92.0868 171.503 91.6656C170.973 91.2444 170.216 91.0338 169.233 91.0338C168.609 91.0338 167.946 91.1274 167.244 91.3146C166.558 91.4862 165.965 91.767 165.466 92.157V90.4722C165.949 90.1602 166.597 89.9262 167.408 89.7702C168.219 89.5986 169.007 89.5128 169.771 89.5128C170.286 89.5128 170.762 89.5674 171.199 89.6766C171.636 89.7702 172.026 89.9184 172.369 90.1212C172.712 90.3084 173.001 90.558 173.235 90.87C173.484 91.1664 173.672 91.5174 173.796 91.923C173.937 92.313 174.007 92.7576 174.007 93.2568V98.9196C174.007 99.7464 173.757 100.363 173.258 100.768C172.775 101.174 172.135 101.439 171.339 101.564C170.559 101.689 169.717 101.751 168.812 101.751Z" fill="white"/>
<path d="M177.744 90.6594C178.119 90.4722 178.501 90.3084 178.891 90.168C179.297 90.012 179.702 89.8872 180.108 89.7936C180.529 89.7 180.95 89.6298 181.372 89.583C181.808 89.5362 182.245 89.5128 182.682 89.5128C183.821 89.5128 184.726 89.6844 185.396 90.0276C186.067 90.3552 186.551 90.8388 186.847 91.4784C187.159 92.118 187.315 92.8902 187.315 93.795V101.4H185.63V93.795C185.63 93.5142 185.592 93.2178 185.513 92.9058C185.451 92.5938 185.318 92.2974 185.116 92.0166C184.913 91.7202 184.601 91.4862 184.18 91.3146C183.758 91.1274 183.197 91.0338 182.495 91.0338C182.011 91.0338 181.512 91.0728 180.997 91.1508C180.482 91.2288 179.96 91.3458 179.429 91.5018V101.4H177.744V90.6594Z" fill="white"/>
<path d="M197.972 101.4V85.7922H199.656V101.4H197.972Z" fill="white"/>
<path d="M213.983 101.587C213.156 101.587 212.462 101.338 211.9 100.838C211.339 100.324 211.058 99.567 211.058 98.5686V91.2678H209.022V89.7234H211.058V86.424H212.743V89.7234H215.762V91.2678H212.743V98.0304C212.743 98.6856 212.844 99.177 213.047 99.5046C213.25 99.8322 213.663 99.996 214.287 99.996C214.568 99.996 214.841 99.9726 215.106 99.9258C215.372 99.8634 215.59 99.7932 215.762 99.7152V101.306C215.543 101.384 215.262 101.447 214.919 101.494C214.591 101.556 214.279 101.587 213.983 101.587Z" fill="white"/>
<path d="M218.81 101.4V84.552H220.495V91.0338L220.308 90.5892C220.901 90.2616 221.525 90.0042 222.18 89.817C222.835 89.6142 223.451 89.5128 224.029 89.5128C224.996 89.5128 225.807 89.6922 226.462 90.051C227.133 90.4098 227.64 90.9558 227.983 91.689C228.342 92.4066 228.522 93.3348 228.522 94.4736V101.4H226.837V94.4736C226.837 93.3816 226.587 92.5392 226.088 91.9464C225.589 91.3536 224.84 91.0572 223.841 91.0572C223.295 91.0572 222.742 91.1352 222.18 91.2912C221.634 91.4472 221.072 91.6812 220.495 91.9932V101.4H218.81Z" fill="white"/>
<path d="M237.068 101.751C235.242 101.751 233.885 101.213 232.996 100.136C232.122 99.0444 231.685 97.5312 231.685 95.5968C231.685 93.5688 232.146 92.0478 233.066 91.0338C234.002 90.0198 235.32 89.5128 237.021 89.5128C238.284 89.5128 239.314 89.7702 240.11 90.285C240.905 90.7842 241.49 91.494 241.865 92.4144C242.239 93.3192 242.426 94.38 242.426 95.5968C242.426 97.5156 241.958 99.021 241.022 100.113C240.102 101.205 238.784 101.751 237.068 101.751ZM237.044 100.207C237.996 100.207 238.737 100.004 239.267 99.5982C239.798 99.177 240.172 98.6232 240.39 97.9368C240.624 97.2348 240.741 96.4548 240.741 95.5968C240.741 94.6764 240.624 93.8808 240.39 93.21C240.156 92.5236 239.766 91.9932 239.22 91.6188C238.69 91.2444 237.965 91.0572 237.044 91.0572C236.108 91.0572 235.375 91.26 234.844 91.6656C234.314 92.0712 233.932 92.6172 233.698 93.3036C233.479 93.9744 233.37 94.7388 233.37 95.5968C233.37 96.9696 233.643 98.085 234.189 98.943C234.735 99.7854 235.687 100.207 237.044 100.207Z" fill="white"/>
<path d="M250.484 101.751C249.454 101.751 248.573 101.572 247.84 101.213C247.107 100.854 246.545 100.331 246.155 99.645C245.78 98.9586 245.593 98.1162 245.593 97.1178V89.7234H247.278V96.7434C247.278 97.929 247.536 98.8026 248.05 99.3642C248.581 99.9102 249.392 100.183 250.484 100.183C251.576 100.183 252.38 99.9102 252.894 99.3642C253.425 98.8026 253.69 97.929 253.69 96.7434V89.7234H255.375V97.1178C255.375 98.5998 254.946 99.7464 254.088 100.558C253.245 101.353 252.044 101.751 250.484 101.751Z" fill="white"/>
<path d="M263.872 101.751C262.671 101.751 261.673 101.517 260.877 101.049C260.097 100.565 259.512 99.8868 259.122 99.0132C258.732 98.124 258.537 97.0788 258.537 95.8776C258.537 94.536 258.716 93.4518 259.075 92.625C259.434 91.7826 259.894 91.143 260.456 90.7062C261.033 90.2538 261.657 89.9496 262.328 89.7936C263.014 89.622 263.677 89.5362 264.317 89.5362C265.05 89.5362 265.744 89.6376 266.4 89.8404C267.07 90.0276 267.616 90.3318 268.038 90.753C268.475 91.1742 268.693 91.7358 268.693 92.4378V101.891C268.693 102.359 268.623 102.835 268.482 103.319C268.342 103.802 268.085 104.247 267.71 104.653C267.351 105.074 266.836 105.409 266.166 105.659C265.51 105.908 264.66 106.033 263.615 106.033C262.944 106.033 262.328 105.971 261.766 105.846C261.205 105.721 260.713 105.604 260.292 105.495V103.904C260.542 103.966 260.822 104.036 261.134 104.114C261.462 104.208 261.813 104.286 262.187 104.348C262.577 104.411 262.991 104.442 263.428 104.442C264.489 104.442 265.269 104.309 265.768 104.044C266.283 103.795 266.618 103.475 266.774 103.085C266.93 102.71 267.008 102.328 267.008 101.938V100.23L267.593 100.815C267.297 100.971 266.922 101.119 266.47 101.26C266.017 101.4 265.557 101.517 265.089 101.611C264.621 101.704 264.216 101.751 263.872 101.751ZM263.872 100.207C264.372 100.207 264.894 100.144 265.44 100.019C266.002 99.879 266.524 99.6684 267.008 99.3876V92.6718C267.008 92.235 266.883 91.9074 266.634 91.689C266.4 91.455 266.08 91.299 265.674 91.221C265.269 91.1274 264.832 91.0806 264.364 91.0806C263.225 91.0806 262.367 91.3068 261.79 91.7592C261.212 92.196 260.822 92.781 260.62 93.5142C260.417 94.2474 260.315 95.0352 260.315 95.8776C260.315 97.1568 260.588 98.202 261.134 99.0132C261.68 99.8088 262.593 100.207 263.872 100.207Z" fill="white"/>
<path d="M272.445 101.4V84.552H274.13V91.0338L273.943 90.5892C274.535 90.2616 275.159 90.0042 275.815 89.817C276.47 89.6142 277.086 89.5128 277.663 89.5128C278.631 89.5128 279.442 89.6922 280.097 90.051C280.768 90.4098 281.275 90.9558 281.618 91.689C281.977 92.4066 282.156 93.3348 282.156 94.4736V101.4H280.471V94.4736C280.471 93.3816 280.222 92.5392 279.723 91.9464C279.223 91.3536 278.475 91.0572 277.476 91.0572C276.93 91.0572 276.376 91.1352 275.815 91.2912C275.269 91.4472 274.707 91.6812 274.13 91.9932V101.4H272.445Z" fill="white"/>
<path d="M289.579 101.587C288.752 101.587 288.058 101.338 287.496 100.838C286.935 100.324 286.654 99.567 286.654 98.5686V91.2678H284.618V89.7234H286.654V86.424H288.339V89.7234H291.357V91.2678H288.339V98.0304C288.339 98.6856 288.44 99.177 288.643 99.5046C288.846 99.8322 289.259 99.996 289.883 99.996C290.164 99.996 290.437 99.9726 290.702 99.9258C290.967 99.8634 291.186 99.7932 291.357 99.7152V101.306C291.139 101.384 290.858 101.447 290.515 101.494C290.187 101.556 289.875 101.587 289.579 101.587Z" fill="white"/>
<path d="M301.31 101.4V85.7922H302.995V101.4H301.31Z" fill="white"/>
<path d="M58.1668 130L54.2822 118.323H56.0607L59.3134 128.736L58.8688 128.924L61.9577 118.323H63.5724L66.6847 128.643H66.3571L69.6098 118.323H71.2713L67.3867 130H65.6785L62.5661 119.657L62.8704 119.938L59.875 130H58.1668Z" fill="white"/>
<path d="M78.163 130.351C76.3378 130.351 74.9805 129.813 74.0913 128.736C73.2176 127.644 72.7808 126.131 72.7808 124.197C72.7808 122.169 73.241 120.648 74.1615 119.634C75.0975 118.62 76.4158 118.113 78.1162 118.113C79.3799 118.113 80.4095 118.37 81.2052 118.885C82.0008 119.384 82.5858 120.094 82.9602 121.014C83.3346 121.919 83.5218 122.98 83.5218 124.197C83.5218 126.116 83.0538 127.621 82.1178 128.713C81.1973 129.805 79.8791 130.351 78.163 130.351ZM78.1396 128.807C79.0913 128.807 79.8323 128.604 80.3627 128.198C80.8931 127.777 81.2676 127.223 81.486 126.537C81.72 125.835 81.837 125.055 81.837 124.197C81.837 123.276 81.72 122.481 81.486 121.81C81.252 121.124 80.8619 120.593 80.3159 120.219C79.7855 119.844 79.0601 119.657 78.1396 119.657C77.2036 119.657 76.4704 119.86 75.9399 120.266C75.4095 120.671 75.0273 121.217 74.7933 121.904C74.5749 122.574 74.4657 123.339 74.4657 124.197C74.4657 125.57 74.7387 126.685 75.2847 127.543C75.8307 128.385 76.7824 128.807 78.1396 128.807Z" fill="white"/>
<path d="M91.5796 130.351C90.55 130.351 89.6685 130.172 88.9353 129.813C88.2021 129.454 87.6405 128.931 87.2504 128.245C86.876 127.559 86.6888 126.716 86.6888 125.718V118.323H88.3737V125.343C88.3737 126.529 88.6311 127.403 89.1459 127.964C89.6763 128.51 90.4876 128.783 91.5796 128.783C92.6717 128.783 93.4751 128.51 93.9899 127.964C94.5203 127.403 94.7855 126.529 94.7855 125.343V118.323H96.4704V125.718C96.4704 127.2 96.0414 128.346 95.1833 129.158C94.3409 129.953 93.1397 130.351 91.5796 130.351Z" fill="white"/>
<path d="M101.902 130H100.217V113.877H101.902V130Z" fill="white"/>
<path d="M110.5 130.351C109.939 130.351 109.346 130.265 108.722 130.094C108.098 129.938 107.505 129.641 106.943 129.204C106.397 128.752 105.945 128.112 105.586 127.286C105.243 126.443 105.071 125.351 105.071 124.01C105.071 122.2 105.508 120.773 106.382 119.727C107.271 118.667 108.613 118.136 110.407 118.136C110.75 118.136 111.156 118.183 111.624 118.277C112.092 118.37 112.552 118.487 113.004 118.628C113.457 118.768 113.831 118.916 114.127 119.072L113.542 119.657V113.386H115.227V127.988C115.227 128.424 115.071 128.799 114.759 129.111C114.463 129.407 114.073 129.649 113.589 129.836C113.106 130.008 112.591 130.133 112.045 130.211C111.499 130.304 110.984 130.351 110.5 130.351ZM110.524 128.807C111.335 128.807 112.037 128.713 112.63 128.526C113.238 128.339 113.542 128.105 113.542 127.824V120.5C113.059 120.219 112.536 120.016 111.975 119.891C111.429 119.751 110.906 119.681 110.407 119.681C109.564 119.681 108.878 119.868 108.347 120.242C107.833 120.601 107.45 121.108 107.201 121.763C106.967 122.403 106.85 123.152 106.85 124.01C106.85 124.852 106.943 125.64 107.131 126.373C107.318 127.091 107.677 127.676 108.207 128.128C108.737 128.58 109.51 128.807 110.524 128.807Z" fill="white"/>
<path d="M130.376 130.351C129.768 130.351 129.183 130.312 128.621 130.234C128.075 130.172 127.584 130.055 127.147 129.883C126.726 129.696 126.391 129.454 126.141 129.158C125.891 128.861 125.767 128.479 125.767 128.011V113.386H127.451V119.657L126.866 119.072C127.178 118.916 127.553 118.768 127.99 118.628C128.442 118.487 128.902 118.37 129.37 118.277C129.838 118.183 130.244 118.136 130.587 118.136C132.397 118.136 133.738 118.667 134.612 119.727C135.486 120.773 135.922 122.2 135.922 124.01C135.922 125.351 135.743 126.443 135.384 127.286C135.025 128.112 134.565 128.752 134.004 129.204C133.458 129.641 132.865 129.938 132.225 130.094C131.586 130.265 130.969 130.351 130.376 130.351ZM130.213 128.807C131.32 128.807 132.155 128.58 132.717 128.128C133.278 127.676 133.653 127.091 133.84 126.373C134.043 125.64 134.144 124.852 134.144 124.01C134.144 123.152 134.019 122.403 133.77 121.763C133.536 121.108 133.161 120.601 132.646 120.242C132.132 119.868 131.445 119.681 130.587 119.681C130.103 119.681 129.581 119.751 129.019 119.891C128.458 120.016 127.935 120.219 127.451 120.5V127.613C127.451 127.956 127.6 128.214 127.896 128.385C128.208 128.557 128.575 128.674 128.996 128.736C129.433 128.783 129.838 128.807 130.213 128.807Z" fill="white"/>
<path d="M143.91 130.351C142.802 130.351 141.843 130.125 141.032 129.672C140.221 129.204 139.597 128.51 139.16 127.59C138.723 126.669 138.504 125.523 138.504 124.15C138.504 122.138 138.957 120.632 139.862 119.634C140.782 118.62 142.038 118.113 143.629 118.113C144.877 118.113 145.876 118.394 146.625 118.955C147.389 119.517 147.935 120.273 148.263 121.225C148.59 122.177 148.746 123.253 148.731 124.454H139.347L139.464 122.91H147.631L146.976 123.144C146.929 121.974 146.632 121.1 146.086 120.523C145.556 119.946 144.737 119.657 143.629 119.657C142.865 119.657 142.225 119.798 141.71 120.078C141.211 120.359 140.837 120.851 140.587 121.553C140.338 122.239 140.213 123.206 140.213 124.454C140.213 125.874 140.54 126.958 141.196 127.707C141.866 128.44 142.802 128.807 144.004 128.807C144.581 128.807 145.111 128.768 145.595 128.69C146.079 128.596 146.523 128.471 146.929 128.315C147.334 128.159 147.693 127.988 148.005 127.8V129.532C147.444 129.797 146.82 130 146.133 130.14C145.462 130.281 144.721 130.351 143.91 130.351Z" fill="white"/>
<path d="M151.746 132.621L153.478 128.034H155.397L153.431 132.621H151.746Z" fill="white"/>
<path d="M169.309 130.351C168.467 130.351 167.757 130.265 167.18 130.094C166.618 129.922 166.033 129.68 165.425 129.368V127.59C165.908 127.855 166.337 128.081 166.712 128.268C167.086 128.456 167.468 128.596 167.858 128.69C168.248 128.768 168.693 128.807 169.192 128.807C169.972 128.807 170.604 128.635 171.088 128.292C171.587 127.949 171.836 127.504 171.836 126.958C171.836 126.521 171.712 126.186 171.462 125.952C171.228 125.718 170.924 125.523 170.549 125.367C170.175 125.211 169.785 125.047 169.379 124.875C168.927 124.751 168.467 124.618 167.999 124.478C167.546 124.322 167.125 124.127 166.735 123.893C166.361 123.643 166.056 123.331 165.822 122.957C165.588 122.567 165.471 122.067 165.471 121.459C165.471 120.866 165.588 120.359 165.822 119.938C166.072 119.517 166.392 119.174 166.782 118.908C167.172 118.628 167.609 118.425 168.092 118.3C168.576 118.175 169.06 118.113 169.543 118.113C170.245 118.113 170.846 118.206 171.345 118.394C171.844 118.581 172.359 118.791 172.89 119.025V120.71C172.297 120.398 171.766 120.149 171.298 119.961C170.83 119.759 170.276 119.657 169.637 119.657C168.997 119.657 168.42 119.79 167.905 120.055C167.406 120.305 167.156 120.695 167.156 121.225C167.156 121.662 167.281 122.013 167.531 122.278C167.796 122.528 168.139 122.73 168.56 122.886C168.982 123.027 169.434 123.167 169.918 123.308C170.308 123.432 170.713 123.573 171.134 123.729C171.556 123.869 171.946 124.064 172.305 124.314C172.663 124.548 172.952 124.86 173.17 125.25C173.404 125.64 173.521 126.139 173.521 126.747C173.521 127.574 173.311 128.261 172.89 128.807C172.468 129.337 171.93 129.727 171.275 129.977C170.635 130.226 169.98 130.351 169.309 130.351Z" fill="white"/>
<path d="M176.775 130V118.323H178.46V130H176.775ZM176.682 116.241V114.392H178.554V116.241H176.682Z" fill="white"/>
<path d="M182.303 119.259C182.678 119.072 183.06 118.908 183.45 118.768C183.856 118.612 184.261 118.487 184.667 118.394C185.088 118.3 185.509 118.23 185.931 118.183C186.367 118.136 186.804 118.113 187.241 118.113C188.38 118.113 189.285 118.284 189.956 118.628C190.626 118.955 191.11 119.439 191.406 120.078C191.718 120.718 191.874 121.49 191.874 122.395V130H190.19V122.395C190.19 122.114 190.151 121.818 190.073 121.506C190.01 121.194 189.878 120.897 189.675 120.617C189.472 120.32 189.16 120.086 188.739 119.915C188.317 119.727 187.756 119.634 187.054 119.634C186.57 119.634 186.071 119.673 185.556 119.751C185.041 119.829 184.519 119.946 183.988 120.102V130H182.303V119.259Z" fill="white"/>
<path d="M200.517 130.187C199.893 130.187 199.254 130.109 198.598 129.953C197.959 129.782 197.366 129.485 196.82 129.064C196.289 128.627 195.86 128.011 195.533 127.215C195.205 126.42 195.041 125.398 195.041 124.15C195.041 122.902 195.205 121.888 195.533 121.108C195.86 120.312 196.289 119.696 196.82 119.259C197.366 118.823 197.959 118.526 198.598 118.37C199.254 118.199 199.893 118.113 200.517 118.113C201.11 118.113 201.695 118.167 202.272 118.277C202.865 118.386 203.435 118.55 203.981 118.768V120.383C203.466 120.164 202.935 120 202.389 119.891C201.843 119.782 201.282 119.727 200.704 119.727C199.316 119.727 198.302 120.078 197.662 120.78C197.038 121.482 196.726 122.606 196.726 124.15C196.726 125.71 197.038 126.841 197.662 127.543C198.302 128.229 199.316 128.573 200.704 128.573C201.282 128.573 201.843 128.518 202.389 128.409C202.935 128.3 203.466 128.136 203.981 127.917V129.555C203.435 129.758 202.865 129.914 202.272 130.023C201.695 130.133 201.11 130.187 200.517 130.187Z" fill="white"/>
<path d="M211.965 130.351C210.857 130.351 209.898 130.125 209.086 129.672C208.275 129.204 207.651 128.51 207.214 127.59C206.777 126.669 206.559 125.523 206.559 124.15C206.559 122.138 207.011 120.632 207.916 119.634C208.837 118.62 210.093 118.113 211.684 118.113C212.932 118.113 213.93 118.394 214.679 118.955C215.444 119.517 215.99 120.273 216.317 121.225C216.645 122.177 216.801 123.253 216.785 124.454H207.401L207.518 122.91H215.685L215.03 123.144C214.983 121.974 214.687 121.1 214.141 120.523C213.611 119.946 212.791 119.657 211.684 119.657C210.919 119.657 210.28 119.798 209.765 120.078C209.266 120.359 208.891 120.851 208.642 121.553C208.392 122.239 208.267 123.206 208.267 124.454C208.267 125.874 208.595 126.958 209.25 127.707C209.921 128.44 210.857 128.807 212.058 128.807C212.635 128.807 213.166 128.768 213.65 128.69C214.133 128.596 214.578 128.471 214.983 128.315C215.389 128.159 215.748 127.988 216.06 127.8V129.532C215.498 129.797 214.874 130 214.188 130.14C213.517 130.281 212.776 130.351 211.965 130.351Z" fill="white"/>
<path d="M230.403 130.187C229.576 130.187 228.881 129.938 228.32 129.438C227.758 128.924 227.477 128.167 227.477 127.169V119.868H225.442V118.323H227.477V115.024H229.162V118.323H232.181V119.868H229.162V126.63C229.162 127.286 229.264 127.777 229.467 128.105C229.669 128.432 230.083 128.596 230.707 128.596C230.988 128.596 231.261 128.573 231.526 128.526C231.791 128.463 232.009 128.393 232.181 128.315V129.906C231.963 129.984 231.682 130.047 231.339 130.094C231.011 130.156 230.699 130.187 230.403 130.187Z" fill="white"/>
<path d="M235.23 130V113.152H236.915V119.634L236.727 119.189C237.32 118.862 237.944 118.604 238.599 118.417C239.255 118.214 239.871 118.113 240.448 118.113C241.415 118.113 242.227 118.292 242.882 118.651C243.553 119.01 244.06 119.556 244.403 120.289C244.762 121.007 244.941 121.935 244.941 123.074V130H243.256V123.074C243.256 121.982 243.007 121.139 242.507 120.546C242.008 119.954 241.259 119.657 240.261 119.657C239.715 119.657 239.161 119.735 238.599 119.891C238.053 120.047 237.492 120.281 236.915 120.593V130H235.23Z" fill="white"/>
<path d="M253.51 130.351C252.403 130.351 251.443 130.125 250.632 129.672C249.821 129.204 249.197 128.51 248.76 127.59C248.323 126.669 248.105 125.523 248.105 124.15C248.105 122.138 248.557 120.632 249.462 119.634C250.382 118.62 251.638 118.113 253.23 118.113C254.478 118.113 255.476 118.394 256.225 118.955C256.989 119.517 257.535 120.273 257.863 121.225C258.191 122.177 258.347 123.253 258.331 124.454H248.947L249.064 122.91H257.231L256.576 123.144C256.529 121.974 256.233 121.1 255.687 120.523C255.156 119.946 254.337 119.657 253.23 119.657C252.465 119.657 251.826 119.798 251.311 120.078C250.811 120.359 250.437 120.851 250.187 121.553C249.938 122.239 249.813 123.206 249.813 124.454C249.813 125.874 250.141 126.958 250.796 127.707C251.467 128.44 252.403 128.807 253.604 128.807C254.181 128.807 254.712 128.768 255.195 128.69C255.679 128.596 256.123 128.471 256.529 128.315C256.935 128.159 257.294 127.988 257.606 127.8V129.532C257.044 129.797 256.42 130 255.733 130.14C255.063 130.281 254.322 130.351 253.51 130.351Z" fill="white"/>
<path d="M261.487 130V119.259C261.674 119.181 262.033 119.049 262.564 118.862C263.11 118.674 263.757 118.503 264.506 118.347C265.27 118.191 266.058 118.113 266.869 118.113C266.994 118.113 267.119 118.128 267.244 118.16C267.369 118.191 267.493 118.222 267.618 118.253V119.751C267.213 119.704 266.815 119.681 266.425 119.681C266.05 119.681 265.684 119.704 265.325 119.751C264.966 119.782 264.607 119.829 264.248 119.891C263.89 119.954 263.531 120.016 263.172 120.078V130H261.487Z" fill="white"/>
<path d="M274.306 130.351C273.198 130.351 272.239 130.125 271.428 129.672C270.617 129.204 269.993 128.51 269.556 127.59C269.119 126.669 268.901 125.523 268.901 124.15C268.901 122.138 269.353 120.632 270.258 119.634C271.178 118.62 272.434 118.113 274.025 118.113C275.273 118.113 276.272 118.394 277.021 118.955C277.785 119.517 278.331 120.273 278.659 121.225C278.986 122.177 279.142 123.253 279.127 124.454H269.743L269.86 122.91H278.027L277.372 123.144C277.325 121.974 277.028 121.1 276.482 120.523C275.952 119.946 275.133 119.657 274.025 119.657C273.261 119.657 272.621 119.798 272.106 120.078C271.607 120.359 271.233 120.851 270.983 121.553C270.734 122.239 270.609 123.206 270.609 124.454C270.609 125.874 270.936 126.958 271.592 127.707C272.262 128.44 273.198 128.807 274.4 128.807C274.977 128.807 275.507 128.768 275.991 128.69C276.475 128.596 276.919 128.471 277.325 128.315C277.73 128.159 278.089 127.988 278.401 127.8V129.532C277.84 129.797 277.216 130 276.529 130.14C275.858 130.281 275.117 130.351 274.306 130.351Z" fill="white"/>
<path d="M293.095 130.351C292.58 130.351 292.058 130.296 291.527 130.187C291.012 130.078 290.529 129.891 290.076 129.626C289.64 129.36 289.281 129.002 289 128.549C288.735 128.081 288.602 127.496 288.602 126.794C288.602 125.827 288.781 125.055 289.14 124.478C289.515 123.885 290.022 123.464 290.661 123.214C291.317 122.949 292.065 122.816 292.908 122.816C293.547 122.816 294.101 122.855 294.569 122.933C295.037 123.011 295.451 123.128 295.81 123.284C296.184 123.425 296.519 123.588 296.816 123.776L297.143 125.32C296.785 125.055 296.262 124.829 295.576 124.641C294.905 124.439 294.164 124.337 293.352 124.337C292.37 124.337 291.613 124.524 291.083 124.899C290.552 125.273 290.287 125.819 290.287 126.537C290.287 127.114 290.443 127.574 290.755 127.917C291.083 128.261 291.488 128.502 291.972 128.643C292.471 128.783 292.978 128.853 293.493 128.853C294.507 128.853 295.271 128.783 295.786 128.643C296.317 128.487 296.582 128.144 296.582 127.613V122.255C296.582 121.35 296.317 120.687 295.786 120.266C295.256 119.844 294.499 119.634 293.516 119.634C292.892 119.634 292.229 119.727 291.527 119.915C290.841 120.086 290.248 120.367 289.749 120.757V119.072C290.232 118.76 290.88 118.526 291.691 118.37C292.502 118.199 293.29 118.113 294.054 118.113C294.569 118.113 295.045 118.167 295.482 118.277C295.919 118.37 296.309 118.518 296.652 118.721C296.995 118.908 297.284 119.158 297.518 119.47C297.767 119.766 297.955 120.117 298.079 120.523C298.22 120.913 298.29 121.358 298.29 121.857V127.52C298.29 128.346 298.04 128.963 297.541 129.368C297.058 129.774 296.418 130.039 295.622 130.164C294.842 130.289 294 130.351 293.095 130.351Z" fill="white"/>
<path d="M302.027 130V119.259C302.215 119.181 302.573 119.049 303.104 118.862C303.65 118.674 304.297 118.503 305.046 118.347C305.811 118.191 306.598 118.113 307.41 118.113C307.534 118.113 307.659 118.128 307.784 118.16C307.909 118.191 308.034 118.222 308.158 118.253V119.751C307.753 119.704 307.355 119.681 306.965 119.681C306.591 119.681 306.224 119.704 305.865 119.751C305.506 119.782 305.148 119.829 304.789 119.891C304.43 119.954 304.071 120.016 303.712 120.078V130H302.027Z" fill="white"/>
<path d="M314.846 130.351C313.739 130.351 312.779 130.125 311.968 129.672C311.157 129.204 310.533 128.51 310.096 127.59C309.659 126.669 309.441 125.523 309.441 124.15C309.441 122.138 309.893 120.632 310.798 119.634C311.718 118.62 312.974 118.113 314.566 118.113C315.814 118.113 316.812 118.394 317.561 118.955C318.325 119.517 318.871 120.273 319.199 121.225C319.527 122.177 319.683 123.253 319.667 124.454H310.283L310.4 122.91H318.567L317.912 123.144C317.865 121.974 317.569 121.1 317.023 120.523C316.492 119.946 315.673 119.657 314.566 119.657C313.801 119.657 313.161 119.798 312.647 120.078C312.147 120.359 311.773 120.851 311.523 121.553C311.274 122.239 311.149 123.206 311.149 124.454C311.149 125.874 311.477 126.958 312.132 127.707C312.803 128.44 313.739 128.807 314.94 128.807C315.517 128.807 316.048 128.768 316.531 128.69C317.015 128.596 317.459 128.471 317.865 128.315C318.271 128.159 318.63 127.988 318.942 127.8V129.532C318.38 129.797 317.756 130 317.069 130.14C316.399 130.281 315.658 130.351 314.846 130.351Z" fill="white"/>
<path d="M65.1533 158.951C64.6385 158.951 64.1159 158.896 63.5855 158.787C63.0706 158.678 62.587 158.491 62.1346 158.226C61.6978 157.96 61.339 157.602 61.0582 157.149C60.7929 156.681 60.6603 156.096 60.6603 155.394C60.6603 154.427 60.8398 153.655 61.1986 153.078C61.573 152.485 62.08 152.064 62.7196 151.814C63.3748 151.549 64.1237 151.416 64.9661 151.416C65.6057 151.416 66.1596 151.455 66.6276 151.533C67.0956 151.611 67.509 151.728 67.8678 151.884C68.2422 152.025 68.5777 152.188 68.8741 152.376L69.2017 153.92C68.8429 153.655 68.3202 153.429 67.6338 153.241C66.963 153.039 66.222 152.937 65.4107 152.937C64.4279 152.937 63.6713 153.124 63.1408 153.499C62.6104 153.873 62.3452 154.419 62.3452 155.137C62.3452 155.714 62.5012 156.174 62.8132 156.517C63.1408 156.861 63.5465 157.102 64.0301 157.243C64.5293 157.383 65.0363 157.453 65.5511 157.453C66.5652 157.453 67.3296 157.383 67.8444 157.243C68.3748 157.087 68.6401 156.744 68.6401 156.213V150.855C68.6401 149.95 68.3748 149.287 67.8444 148.866C67.314 148.444 66.5574 148.234 65.5745 148.234C64.9505 148.234 64.2875 148.327 63.5855 148.515C62.899 148.686 62.3062 148.967 61.807 149.357V147.672C62.2906 147.36 62.938 147.126 63.7493 146.97C64.5605 146.799 65.3483 146.713 66.1128 146.713C66.6276 146.713 67.1034 146.767 67.5402 146.877C67.977 146.97 68.367 147.118 68.7103 147.321C69.0535 147.508 69.3421 147.758 69.5761 148.07C69.8257 148.366 70.0129 148.717 70.1377 149.123C70.2781 149.513 70.3483 149.958 70.3483 150.457V156.12C70.3483 156.946 70.0987 157.563 69.5995 157.968C69.1159 158.374 68.4762 158.639 67.6806 158.764C66.9006 158.889 66.0582 158.951 65.1533 158.951Z" fill="white"/>
<path d="M82.5577 158.6H80.8729V142.477H82.5577V158.6Z" fill="white"/>
<path d="M91.1089 158.951C89.2837 158.951 87.9264 158.413 87.0372 157.336C86.1636 156.244 85.7267 154.731 85.7267 152.797C85.7267 150.769 86.187 149.248 87.1074 148.234C88.0434 147.22 89.3617 146.713 91.0621 146.713C92.3258 146.713 93.3554 146.97 94.1511 147.485C94.9467 147.984 95.5317 148.694 95.9061 149.614C96.2805 150.519 96.4677 151.58 96.4677 152.797C96.4677 154.716 95.9997 156.221 95.0637 157.313C94.1433 158.405 92.825 158.951 91.1089 158.951ZM91.0855 157.407C92.0372 157.407 92.7782 157.204 93.3086 156.798C93.839 156.377 94.2135 155.823 94.4319 155.137C94.6659 154.435 94.7829 153.655 94.7829 152.797C94.7829 151.876 94.6659 151.081 94.4319 150.41C94.1979 149.724 93.8078 149.193 93.2618 148.819C92.7314 148.444 92.006 148.257 91.0855 148.257C90.1495 148.257 89.4163 148.46 88.8859 148.866C88.3554 149.271 87.9732 149.817 87.7392 150.504C87.5208 151.174 87.4116 151.939 87.4116 152.797C87.4116 154.17 87.6846 155.285 88.2306 156.143C88.7767 156.985 89.7283 157.407 91.0855 157.407Z" fill="white"/>
<path d="M103.309 158.787C102.482 158.787 101.788 158.538 101.226 158.038C100.664 157.524 100.384 156.767 100.384 155.769V148.468H98.3477V146.923H100.384V143.624H102.068V146.923H105.087V148.468H102.068V155.23C102.068 155.886 102.17 156.377 102.373 156.705C102.575 157.032 102.989 157.196 103.613 157.196C103.894 157.196 104.167 157.173 104.432 157.126C104.697 157.063 104.916 156.993 105.087 156.915V158.506C104.869 158.584 104.588 158.647 104.245 158.694C103.917 158.756 103.605 158.787 103.309 158.787Z" fill="white"/>
<path d="M119.72 158.951C117.895 158.951 116.538 158.413 115.648 157.336C114.775 156.244 114.338 154.731 114.338 152.797C114.338 150.769 114.798 149.248 115.719 148.234C116.655 147.22 117.973 146.713 119.673 146.713C120.937 146.713 121.967 146.97 122.762 147.485C123.558 147.984 124.143 148.694 124.517 149.614C124.892 150.519 125.079 151.58 125.079 152.797C125.079 154.716 124.611 156.221 123.675 157.313C122.755 158.405 121.436 158.951 119.72 158.951ZM119.697 157.407C120.648 157.407 121.389 157.204 121.92 156.798C122.45 156.377 122.825 155.823 123.043 155.137C123.277 154.435 123.394 153.655 123.394 152.797C123.394 151.876 123.277 151.081 123.043 150.41C122.809 149.724 122.419 149.193 121.873 148.819C121.343 148.444 120.617 148.257 119.697 148.257C118.761 148.257 118.028 148.46 117.497 148.866C116.967 149.271 116.584 149.817 116.35 150.504C116.132 151.174 116.023 151.939 116.023 152.797C116.023 154.17 116.296 155.285 116.842 156.143C117.388 156.985 118.34 157.407 119.697 157.407Z" fill="white"/>
<path d="M129.322 158.6V148.468H127.31V146.923H129.322V146.292C129.322 145.434 129.416 144.739 129.603 144.209C129.806 143.663 130.063 143.242 130.375 142.945C130.687 142.633 131.015 142.415 131.358 142.29C131.702 142.15 132.029 142.072 132.341 142.056C132.653 142.025 132.903 142.009 133.09 142.009C133.308 142.009 133.511 142.025 133.698 142.056C133.886 142.072 134.057 142.103 134.213 142.15V143.647C134.104 143.616 133.979 143.593 133.839 143.577C133.698 143.562 133.542 143.554 133.371 143.554C133.106 143.554 132.833 143.569 132.552 143.601C132.271 143.632 132.014 143.733 131.78 143.905C131.546 144.061 131.358 144.326 131.218 144.7C131.078 145.059 131.007 145.582 131.007 146.268V146.923H134.213V148.468H131.007V158.6H129.322Z" fill="white"/>
<path d="M148.653 158.951C148.091 158.951 147.498 158.865 146.874 158.694C146.25 158.538 145.657 158.241 145.096 157.804C144.55 157.352 144.097 156.712 143.738 155.886C143.395 155.043 143.223 153.951 143.223 152.61C143.223 150.8 143.66 149.373 144.534 148.327C145.423 147.267 146.765 146.736 148.559 146.736C148.902 146.736 149.308 146.783 149.776 146.877C150.244 146.97 150.704 147.087 151.156 147.228C151.609 147.368 151.983 147.516 152.28 147.672L151.695 148.257V141.986H153.379V156.588C153.379 157.024 153.223 157.399 152.911 157.711C152.615 158.007 152.225 158.249 151.741 158.436C151.258 158.608 150.743 158.733 150.197 158.811C149.651 158.904 149.136 158.951 148.653 158.951ZM148.676 157.407C149.487 157.407 150.189 157.313 150.782 157.126C151.39 156.939 151.695 156.705 151.695 156.424V149.1C151.211 148.819 150.688 148.616 150.127 148.491C149.581 148.351 149.058 148.281 148.559 148.281C147.716 148.281 147.03 148.468 146.5 148.842C145.985 149.201 145.603 149.708 145.353 150.363C145.119 151.003 145.002 151.752 145.002 152.61C145.002 153.452 145.096 154.24 145.283 154.973C145.47 155.691 145.829 156.276 146.359 156.728C146.89 157.18 147.662 157.407 148.676 157.407Z" fill="white"/>
<path d="M157.225 158.6V146.923H158.91V158.6H157.225ZM157.131 144.841V142.992H159.004V144.841H157.131Z" fill="white"/>
<path d="M167.504 158.951C166.302 158.951 165.304 158.717 164.508 158.249C163.728 157.765 163.143 157.087 162.753 156.213C162.363 155.324 162.168 154.279 162.168 153.078C162.168 151.736 162.348 150.652 162.706 149.825C163.065 148.983 163.525 148.343 164.087 147.906C164.664 147.454 165.288 147.15 165.959 146.994C166.646 146.822 167.309 146.736 167.948 146.736C168.681 146.736 169.376 146.838 170.031 147.04C170.702 147.228 171.248 147.532 171.669 147.953C172.106 148.374 172.324 148.936 172.324 149.638V159.091C172.324 159.559 172.254 160.035 172.114 160.519C171.973 161.002 171.716 161.447 171.341 161.853C170.983 162.274 170.468 162.609 169.797 162.859C169.142 163.108 168.291 163.233 167.246 163.233C166.575 163.233 165.959 163.171 165.397 163.046C164.836 162.921 164.344 162.804 163.923 162.695V161.104C164.173 161.166 164.454 161.236 164.766 161.314C165.093 161.408 165.444 161.486 165.819 161.548C166.209 161.611 166.622 161.642 167.059 161.642C168.12 161.642 168.9 161.509 169.399 161.244C169.914 160.995 170.249 160.675 170.405 160.285C170.561 159.91 170.639 159.528 170.639 159.138V157.43L171.224 158.015C170.928 158.171 170.553 158.319 170.101 158.46C169.649 158.6 169.188 158.717 168.72 158.811C168.252 158.904 167.847 158.951 167.504 158.951ZM167.504 157.407C168.003 157.407 168.525 157.344 169.071 157.219C169.633 157.079 170.156 156.868 170.639 156.588V149.872C170.639 149.435 170.514 149.107 170.265 148.889C170.031 148.655 169.711 148.499 169.305 148.421C168.9 148.327 168.463 148.281 167.995 148.281C166.856 148.281 165.998 148.507 165.421 148.959C164.844 149.396 164.454 149.981 164.251 150.714C164.048 151.447 163.947 152.235 163.947 153.078C163.947 154.357 164.22 155.402 164.766 156.213C165.312 157.009 166.224 157.407 167.504 157.407Z" fill="white"/>
<path d="M176.17 158.6V146.923H177.855V158.6H176.17ZM176.076 144.841V142.992H177.948V144.841H176.076Z" fill="white"/>
<path d="M185.372 158.787C184.545 158.787 183.851 158.538 183.289 158.038C182.728 157.524 182.447 156.767 182.447 155.769V148.468H180.411V146.923H182.447V143.624H184.132V146.923H187.15V148.468H184.132V155.23C184.132 155.886 184.233 156.377 184.436 156.705C184.639 157.032 185.052 157.196 185.676 157.196C185.957 157.196 186.23 157.173 186.495 157.126C186.76 157.063 186.979 156.993 187.15 156.915V158.506C186.932 158.584 186.651 158.647 186.308 158.694C185.98 158.756 185.668 158.787 185.372 158.787Z" fill="white"/>
<path d="M194.224 158.951C193.709 158.951 193.186 158.896 192.656 158.787C192.141 158.678 191.658 158.491 191.205 158.226C190.768 157.96 190.41 157.602 190.129 157.149C189.864 156.681 189.731 156.096 189.731 155.394C189.731 154.427 189.91 153.655 190.269 153.078C190.644 152.485 191.151 152.064 191.79 151.814C192.445 151.549 193.194 151.416 194.037 151.416C194.676 151.416 195.23 151.455 195.698 151.533C196.166 151.611 196.58 151.728 196.938 151.884C197.313 152.025 197.648 152.188 197.945 152.376L198.272 153.92C197.913 153.655 197.391 153.429 196.704 153.241C196.034 153.039 195.293 152.937 194.481 152.937C193.499 152.937 192.742 153.124 192.211 153.499C191.681 153.873 191.416 154.419 191.416 155.137C191.416 155.714 191.572 156.174 191.884 156.517C192.211 156.861 192.617 157.102 193.101 157.243C193.6 157.383 194.107 157.453 194.622 157.453C195.636 157.453 196.4 157.383 196.915 157.243C197.445 157.087 197.711 156.744 197.711 156.213V150.855C197.711 149.95 197.445 149.287 196.915 148.866C196.385 148.444 195.628 148.234 194.645 148.234C194.021 148.234 193.358 148.327 192.656 148.515C191.97 148.686 191.377 148.967 190.878 149.357V147.672C191.361 147.36 192.009 147.126 192.82 146.97C193.631 146.799 194.419 146.713 195.183 146.713C195.698 146.713 196.174 146.767 196.611 146.877C197.048 146.97 197.438 147.118 197.781 147.321C198.124 147.508 198.413 147.758 198.647 148.07C198.896 148.366 199.084 148.717 199.208 149.123C199.349 149.513 199.419 149.958 199.419 150.457V156.12C199.419 156.946 199.169 157.563 198.67 157.968C198.186 158.374 197.547 158.639 196.751 158.764C195.971 158.889 195.129 158.951 194.224 158.951Z" fill="white"/>
<path d="M204.841 158.6H203.156V142.477H204.841V158.6Z" fill="white"/>
<path d="M219.969 158.928C219.626 158.928 219.236 158.881 218.799 158.787C218.378 158.694 217.964 158.577 217.559 158.436C217.153 158.296 216.794 158.148 216.482 157.992L217.067 157.407V163.678H215.382V149.029C215.382 148.546 215.531 148.156 215.827 147.859C216.139 147.563 216.537 147.337 217.02 147.181C217.504 147.009 218.019 146.892 218.565 146.83C219.111 146.752 219.626 146.713 220.109 146.713C221.045 146.713 221.927 146.908 222.754 147.298C223.58 147.688 224.251 148.351 224.766 149.287C225.281 150.207 225.538 151.463 225.538 153.054C225.538 154.255 225.32 155.301 224.883 156.19C224.462 157.063 223.838 157.742 223.011 158.226C222.184 158.694 221.17 158.928 219.969 158.928ZM219.969 157.383C220.827 157.383 221.529 157.204 222.075 156.845C222.637 156.471 223.058 155.956 223.339 155.301C223.619 154.645 223.76 153.897 223.76 153.054C223.76 152.212 223.666 151.424 223.479 150.691C223.292 149.958 222.933 149.373 222.403 148.936C221.872 148.483 221.1 148.257 220.086 148.257C219.275 148.257 218.565 148.351 217.956 148.538C217.364 148.725 217.067 148.99 217.067 149.334V156.564C217.551 156.845 218.034 157.056 218.518 157.196C219.002 157.321 219.485 157.383 219.969 157.383Z" fill="white"/>
<path d="M230.39 158.6H228.705V142.477H230.39V158.6Z" fill="white"/>
<path d="M238.169 158.951C237.654 158.951 237.132 158.896 236.601 158.787C236.087 158.678 235.603 158.491 235.15 158.226C234.714 157.96 234.355 157.602 234.074 157.149C233.809 156.681 233.676 156.096 233.676 155.394C233.676 154.427 233.856 153.655 234.214 153.078C234.589 152.485 235.096 152.064 235.735 151.814C236.391 151.549 237.14 151.416 237.982 151.416C238.622 151.416 239.175 151.455 239.643 151.533C240.111 151.611 240.525 151.728 240.884 151.884C241.258 152.025 241.594 152.188 241.89 152.376L242.218 153.92C241.859 153.655 241.336 153.429 240.65 153.241C239.979 153.039 239.238 152.937 238.427 152.937C237.444 152.937 236.687 153.124 236.157 153.499C235.626 153.873 235.361 154.419 235.361 155.137C235.361 155.714 235.517 156.174 235.829 156.517C236.157 156.861 236.562 157.102 237.046 157.243C237.545 157.383 238.052 157.453 238.567 157.453C239.581 157.453 240.345 157.383 240.86 157.243C241.391 157.087 241.656 156.744 241.656 156.213V150.855C241.656 149.95 241.391 149.287 240.86 148.866C240.33 148.444 239.573 148.234 238.59 148.234C237.966 148.234 237.303 148.327 236.601 148.515C235.915 148.686 235.322 148.967 234.823 149.357V147.672C235.306 147.36 235.954 147.126 236.765 146.97C237.576 146.799 238.364 146.713 239.129 146.713C239.643 146.713 240.119 146.767 240.556 146.877C240.993 146.97 241.383 147.118 241.726 147.321C242.069 147.508 242.358 147.758 242.592 148.07C242.842 148.366 243.029 148.717 243.154 149.123C243.294 149.513 243.364 149.958 243.364 150.457V156.12C243.364 156.946 243.115 157.563 242.615 157.968C242.132 158.374 241.492 158.639 240.696 158.764C239.916 158.889 239.074 158.951 238.169 158.951Z" fill="white"/>
<path d="M250.776 158.787C249.949 158.787 249.254 158.538 248.693 158.038C248.131 157.524 247.85 156.767 247.85 155.769V148.468H245.815V146.923H247.85V143.624H249.535V146.923H252.554V148.468H249.535V155.23C249.535 155.886 249.637 156.377 249.839 156.705C250.042 157.032 250.456 157.196 251.08 157.196C251.361 157.196 251.634 157.173 251.899 157.126C252.164 157.063 252.382 156.993 252.554 156.915V158.506C252.336 158.584 252.055 158.647 251.712 158.694C251.384 158.756 251.072 158.787 250.776 158.787Z" fill="white"/>
<path d="M256.679 158.6V148.468H254.667V146.923H256.679V146.292C256.679 145.434 256.773 144.739 256.96 144.209C257.163 143.663 257.42 143.242 257.732 142.945C258.044 142.633 258.372 142.415 258.715 142.29C259.058 142.15 259.386 142.072 259.698 142.056C260.01 142.025 260.259 142.009 260.447 142.009C260.665 142.009 260.868 142.025 261.055 142.056C261.242 142.072 261.414 142.103 261.57 142.15V143.647C261.461 143.616 261.336 143.593 261.195 143.577C261.055 143.562 260.899 143.554 260.727 143.554C260.462 143.554 260.189 143.569 259.908 143.601C259.628 143.632 259.37 143.733 259.136 143.905C258.902 144.061 258.715 144.326 258.575 144.7C258.434 145.059 258.364 145.582 258.364 146.268V146.923H261.57V148.468H258.364V158.6H256.679Z" fill="white"/>
<path d="M268.353 158.951C266.527 158.951 265.17 158.413 264.281 157.336C263.407 156.244 262.97 154.731 262.97 152.797C262.97 150.769 263.431 149.248 264.351 148.234C265.287 147.22 266.605 146.713 268.306 146.713C269.569 146.713 270.599 146.97 271.395 147.485C272.19 147.984 272.775 148.694 273.15 149.614C273.524 150.519 273.711 151.58 273.711 152.797C273.711 154.716 273.243 156.221 272.307 157.313C271.387 158.405 270.069 158.951 268.353 158.951ZM268.329 157.407C269.281 157.407 270.022 157.204 270.552 156.798C271.083 156.377 271.457 155.823 271.675 155.137C271.909 154.435 272.026 153.655 272.026 152.797C272.026 151.876 271.909 151.081 271.675 150.41C271.441 149.724 271.051 149.193 270.505 148.819C269.975 148.444 269.25 148.257 268.329 148.257C267.393 148.257 266.66 148.46 266.129 148.866C265.599 149.271 265.217 149.817 264.983 150.504C264.764 151.174 264.655 151.939 264.655 152.797C264.655 154.17 264.928 155.285 265.474 156.143C266.02 156.985 266.972 157.407 268.329 157.407Z" fill="white"/>
<path d="M276.878 158.6V147.859C277.066 147.781 277.424 147.649 277.955 147.462C278.501 147.274 279.148 147.103 279.897 146.947C280.661 146.791 281.449 146.713 282.261 146.713C282.385 146.713 282.51 146.728 282.635 146.76C282.76 146.791 282.885 146.822 283.009 146.853V148.351C282.604 148.304 282.206 148.281 281.816 148.281C281.441 148.281 281.075 148.304 280.716 148.351C280.357 148.382 279.998 148.429 279.64 148.491C279.281 148.554 278.922 148.616 278.563 148.678V158.6H276.878Z" fill="white"/>
<path d="M295.27 150.995V158.6H293.585V150.995C293.585 150.714 293.546 150.418 293.468 150.106C293.406 149.794 293.273 149.497 293.071 149.217C292.868 148.92 292.556 148.686 292.135 148.515C291.713 148.327 291.152 148.234 290.45 148.234C289.966 148.234 289.467 148.273 288.952 148.351C288.437 148.429 287.915 148.546 287.384 148.702V158.6H285.699V147.859C286.074 147.672 286.456 147.508 286.846 147.368C287.252 147.212 287.657 147.087 288.063 146.994C288.484 146.9 288.905 146.83 289.326 146.783C289.763 146.736 290.2 146.713 290.637 146.713C291.776 146.713 292.681 146.884 293.351 147.228C294.022 147.555 294.506 148.039 294.802 148.678C295.114 149.318 295.27 150.09 295.27 150.995ZM293.047 148.327C293.562 147.937 294.085 147.625 294.615 147.391C295.146 147.157 295.692 146.986 296.253 146.877C296.83 146.767 297.408 146.713 297.985 146.713C299.124 146.713 300.028 146.884 300.699 147.228C301.37 147.555 301.854 148.039 302.15 148.678C302.462 149.318 302.618 150.09 302.618 150.995V158.6H300.933V150.995C300.933 150.714 300.894 150.418 300.816 150.106C300.754 149.794 300.621 149.497 300.419 149.217C300.216 148.92 299.904 148.686 299.482 148.515C299.061 148.327 298.5 148.234 297.798 148.234C297.314 148.234 296.815 148.304 296.3 148.444C295.785 148.585 295.263 148.827 294.732 149.17L293.047 148.327Z" fill="white"/>
<path d="M309.657 158.951C308.815 158.951 308.105 158.865 307.528 158.694C306.966 158.522 306.381 158.28 305.773 157.968V156.19C306.257 156.455 306.686 156.681 307.06 156.868C307.434 157.056 307.817 157.196 308.207 157.29C308.597 157.368 309.041 157.407 309.54 157.407C310.321 157.407 310.952 157.235 311.436 156.892C311.935 156.549 312.185 156.104 312.185 155.558C312.185 155.121 312.06 154.786 311.81 154.552C311.576 154.318 311.272 154.123 310.898 153.967C310.523 153.811 310.133 153.647 309.728 153.475C309.275 153.351 308.815 153.218 308.347 153.078C307.895 152.922 307.473 152.727 307.083 152.493C306.709 152.243 306.405 151.931 306.171 151.557C305.937 151.167 305.82 150.667 305.82 150.059C305.82 149.466 305.937 148.959 306.171 148.538C306.42 148.117 306.74 147.774 307.13 147.508C307.52 147.228 307.957 147.025 308.441 146.9C308.924 146.775 309.408 146.713 309.891 146.713C310.594 146.713 311.194 146.806 311.693 146.994C312.193 147.181 312.707 147.391 313.238 147.625V149.31C312.645 148.998 312.115 148.749 311.647 148.561C311.179 148.359 310.625 148.257 309.985 148.257C309.345 148.257 308.768 148.39 308.253 148.655C307.754 148.905 307.505 149.295 307.505 149.825C307.505 150.262 307.629 150.613 307.879 150.878C308.144 151.128 308.487 151.33 308.909 151.486C309.33 151.627 309.782 151.767 310.266 151.908C310.656 152.032 311.062 152.173 311.483 152.329C311.904 152.469 312.294 152.664 312.653 152.914C313.012 153.148 313.3 153.46 313.519 153.85C313.753 154.24 313.87 154.739 313.87 155.347C313.87 156.174 313.659 156.861 313.238 157.407C312.817 157.937 312.278 158.327 311.623 158.577C310.984 158.826 310.328 158.951 309.657 158.951Z" fill="white"/>
<path d="M74.8117 187.387C73.9848 187.387 73.2906 187.138 72.729 186.638C72.1674 186.124 71.8866 185.367 71.8866 184.369V177.068H69.8507V175.523H71.8866V172.224H73.5714V175.523H76.5901V177.068H73.5714V183.83C73.5714 184.486 73.6728 184.977 73.8756 185.305C74.0784 185.632 74.4919 185.796 75.1159 185.796C75.3967 185.796 75.6697 185.773 75.9349 185.726C76.2001 185.663 76.4185 185.593 76.5901 185.515V187.106C76.3717 187.184 76.0909 187.247 75.7477 187.294C75.4201 187.356 75.1081 187.387 74.8117 187.387Z" fill="white"/>
<path d="M84.436 187.551C82.6108 187.551 81.2535 187.013 80.3643 185.936C79.4906 184.844 79.0538 183.331 79.0538 181.397C79.0538 179.369 79.514 177.848 80.4345 176.834C81.3705 175.82 82.6888 175.313 84.3892 175.313C85.6529 175.313 86.6825 175.57 87.4781 176.085C88.2738 176.584 88.8588 177.294 89.2332 178.214C89.6076 179.119 89.7948 180.18 89.7948 181.397C89.7948 183.316 89.3268 184.821 88.3908 185.913C87.4703 187.005 86.1521 187.551 84.436 187.551ZM84.4126 186.007C85.3643 186.007 86.1053 185.804 86.6357 185.398C87.1661 184.977 87.5405 184.423 87.759 183.737C87.993 183.035 88.11 182.255 88.11 181.397C88.11 180.476 87.993 179.681 87.759 179.01C87.5249 178.324 87.1349 177.793 86.5889 177.419C86.0585 177.044 85.3331 176.857 84.4126 176.857C83.4766 176.857 82.7434 177.06 82.2129 177.466C81.6825 177.871 81.3003 178.417 81.0663 179.104C80.8479 179.774 80.7387 180.539 80.7387 181.397C80.7387 182.77 81.0117 183.885 81.5577 184.743C82.1037 185.585 83.0554 186.007 84.4126 186.007Z" fill="white"/>
<path d="M101.059 180.203L106.184 175.523H108.29L101.434 181.584L101.059 180.203ZM101.434 187.2H99.749V171.077H101.434V187.2ZM101.902 179.923L109.133 187.2H106.886L100.755 180.999L101.902 179.923Z" fill="white"/>
<path d="M115.47 187.551C114.363 187.551 113.403 187.325 112.592 186.872C111.781 186.404 111.157 185.71 110.72 184.79C110.283 183.869 110.065 182.723 110.065 181.35C110.065 179.338 110.517 177.832 111.422 176.834C112.342 175.82 113.598 175.313 115.189 175.313C116.437 175.313 117.436 175.594 118.185 176.155C118.949 176.717 119.495 177.473 119.823 178.425C120.15 179.377 120.306 180.453 120.291 181.654H110.907L111.024 180.11H119.191L118.536 180.344C118.489 179.174 118.193 178.3 117.646 177.723C117.116 177.146 116.297 176.857 115.189 176.857C114.425 176.857 113.785 176.998 113.271 177.278C112.771 177.559 112.397 178.051 112.147 178.753C111.898 179.439 111.773 180.406 111.773 181.654C111.773 183.074 112.1 184.158 112.756 184.907C113.427 185.64 114.363 186.007 115.564 186.007C116.141 186.007 116.671 185.968 117.155 185.89C117.639 185.796 118.083 185.671 118.489 185.515C118.895 185.359 119.253 185.188 119.565 185V186.732C119.004 186.997 118.38 187.2 117.693 187.34C117.022 187.481 116.281 187.551 115.47 187.551Z" fill="white"/>
<path d="M128.268 187.551C127.16 187.551 126.2 187.325 125.389 186.872C124.578 186.404 123.954 185.71 123.517 184.79C123.08 183.869 122.862 182.723 122.862 181.35C122.862 179.338 123.314 177.832 124.219 176.834C125.14 175.82 126.395 175.313 127.987 175.313C129.235 175.313 130.233 175.594 130.982 176.155C131.747 176.717 132.293 177.473 132.62 178.425C132.948 179.377 133.104 180.453 133.088 181.654H123.704L123.821 180.11H131.988L131.333 180.344C131.286 179.174 130.99 178.3 130.444 177.723C129.913 177.146 129.094 176.857 127.987 176.857C127.222 176.857 126.583 176.998 126.068 177.278C125.569 177.559 125.194 178.051 124.945 178.753C124.695 179.439 124.57 180.406 124.57 181.654C124.57 183.074 124.898 184.158 125.553 184.907C126.224 185.64 127.16 186.007 128.361 186.007C128.938 186.007 129.469 185.968 129.952 185.89C130.436 185.796 130.881 185.671 131.286 185.515C131.692 185.359 132.051 185.188 132.363 185V186.732C131.801 186.997 131.177 187.2 130.491 187.34C129.82 187.481 129.079 187.551 128.268 187.551Z" fill="white"/>
<path d="M140.831 187.528C140.488 187.528 140.098 187.481 139.661 187.387C139.24 187.294 138.826 187.177 138.421 187.036C138.015 186.896 137.656 186.748 137.344 186.592L137.929 186.007V192.278H136.244V177.629C136.244 177.146 136.393 176.756 136.689 176.459C137.001 176.163 137.399 175.937 137.882 175.781C138.366 175.609 138.881 175.492 139.427 175.43C139.973 175.352 140.488 175.313 140.971 175.313C141.907 175.313 142.789 175.508 143.616 175.898C144.442 176.288 145.113 176.951 145.628 177.887C146.143 178.807 146.4 180.063 146.4 181.654C146.4 182.855 146.182 183.901 145.745 184.79C145.324 185.663 144.7 186.342 143.873 186.826C143.046 187.294 142.032 187.528 140.831 187.528ZM140.831 185.983C141.689 185.983 142.391 185.804 142.937 185.445C143.499 185.071 143.92 184.556 144.201 183.901C144.481 183.245 144.622 182.497 144.622 181.654C144.622 180.812 144.528 180.024 144.341 179.291C144.154 178.558 143.795 177.973 143.265 177.536C142.734 177.083 141.962 176.857 140.948 176.857C140.137 176.857 139.427 176.951 138.818 177.138C138.226 177.325 137.929 177.59 137.929 177.934V185.164C138.413 185.445 138.896 185.656 139.38 185.796C139.864 185.921 140.347 185.983 140.831 185.983Z" fill="white"/>
<path d="M165.925 179.595V187.2H164.241V179.595C164.241 179.314 164.202 179.018 164.124 178.706C164.061 178.394 163.929 178.097 163.726 177.817C163.523 177.52 163.211 177.286 162.79 177.115C162.369 176.927 161.807 176.834 161.105 176.834C160.621 176.834 160.122 176.873 159.607 176.951C159.092 177.029 158.57 177.146 158.039 177.302V187.2H156.355V176.459C156.729 176.272 157.111 176.108 157.501 175.968C157.907 175.812 158.312 175.687 158.718 175.594C159.139 175.5 159.56 175.43 159.982 175.383C160.418 175.336 160.855 175.313 161.292 175.313C162.431 175.313 163.336 175.484 164.007 175.828C164.677 176.155 165.161 176.639 165.457 177.278C165.769 177.918 165.925 178.69 165.925 179.595ZM163.702 176.927C164.217 176.537 164.74 176.225 165.27 175.991C165.801 175.757 166.347 175.586 166.908 175.477C167.486 175.367 168.063 175.313 168.64 175.313C169.779 175.313 170.684 175.484 171.354 175.828C172.025 176.155 172.509 176.639 172.805 177.278C173.117 177.918 173.273 178.69 173.273 179.595V187.2H171.588V179.595C171.588 179.314 171.549 179.018 171.471 178.706C171.409 178.394 171.276 178.097 171.074 177.817C170.871 177.52 170.559 177.286 170.138 177.115C169.716 176.927 169.155 176.834 168.453 176.834C167.969 176.834 167.47 176.904 166.955 177.044C166.44 177.185 165.918 177.427 165.387 177.77L163.702 176.927Z" fill="white"/>
<path d="M181.834 187.551C180.726 187.551 179.767 187.325 178.955 186.872C178.144 186.404 177.52 185.71 177.083 184.79C176.647 183.869 176.428 182.723 176.428 181.35C176.428 179.338 176.881 177.832 177.785 176.834C178.706 175.82 179.962 175.313 181.553 175.313C182.801 175.313 183.799 175.594 184.548 176.155C185.313 176.717 185.859 177.473 186.186 178.425C186.514 179.377 186.67 180.453 186.654 181.654H177.271L177.388 180.11H185.554L184.899 180.344C184.852 179.174 184.556 178.3 184.01 177.723C183.48 177.146 182.661 176.857 181.553 176.857C180.788 176.857 180.149 176.998 179.634 177.278C179.135 177.559 178.76 178.051 178.511 178.753C178.261 179.439 178.136 180.406 178.136 181.654C178.136 183.074 178.464 184.158 179.119 184.907C179.79 185.64 180.726 186.007 181.927 186.007C182.505 186.007 183.035 185.968 183.519 185.89C184.002 185.796 184.447 185.671 184.852 185.515C185.258 185.359 185.617 185.188 185.929 185V186.732C185.367 186.997 184.743 187.2 184.057 187.34C183.386 187.481 182.645 187.551 181.834 187.551Z" fill="white"/>
<path d="M201.488 187.387C200.864 187.387 200.225 187.309 199.57 187.153C198.93 186.982 198.337 186.685 197.791 186.264C197.261 185.827 196.832 185.211 196.504 184.415C196.176 183.62 196.013 182.598 196.013 181.35C196.013 180.102 196.176 179.088 196.504 178.308C196.832 177.512 197.261 176.896 197.791 176.459C198.337 176.023 198.93 175.726 199.57 175.57C200.225 175.399 200.864 175.313 201.488 175.313C202.081 175.313 202.666 175.367 203.244 175.477C203.836 175.586 204.406 175.75 204.952 175.968V177.583C204.437 177.364 203.907 177.2 203.361 177.091C202.815 176.982 202.253 176.927 201.676 176.927C200.287 176.927 199.273 177.278 198.634 177.98C198.01 178.682 197.698 179.806 197.698 181.35C197.698 182.91 198.01 184.041 198.634 184.743C199.273 185.429 200.287 185.773 201.676 185.773C202.253 185.773 202.815 185.718 203.361 185.609C203.907 185.5 204.437 185.336 204.952 185.117V186.755C204.406 186.958 203.836 187.114 203.244 187.223C202.666 187.333 202.081 187.387 201.488 187.387Z" fill="white"/>
<path d="M212.912 187.551C211.087 187.551 209.73 187.013 208.841 185.936C207.967 184.844 207.53 183.331 207.53 181.397C207.53 179.369 207.99 177.848 208.911 176.834C209.847 175.82 211.165 175.313 212.866 175.313C214.129 175.313 215.159 175.57 215.955 176.085C216.75 176.584 217.335 177.294 217.71 178.214C218.084 179.119 218.271 180.18 218.271 181.397C218.271 183.316 217.803 184.821 216.867 185.913C215.947 187.005 214.629 187.551 212.912 187.551ZM212.889 186.007C213.841 186.007 214.582 185.804 215.112 185.398C215.643 184.977 216.017 184.423 216.235 183.737C216.469 183.035 216.586 182.255 216.586 181.397C216.586 180.476 216.469 179.681 216.235 179.01C216.001 178.324 215.611 177.793 215.065 177.419C214.535 177.044 213.81 176.857 212.889 176.857C211.953 176.857 211.22 177.06 210.689 177.466C210.159 177.871 209.777 178.417 209.543 179.104C209.324 179.774 209.215 180.539 209.215 181.397C209.215 182.77 209.488 183.885 210.034 184.743C210.58 185.585 211.532 186.007 212.889 186.007Z" fill="white"/>
<path d="M221.438 176.459C221.813 176.272 222.195 176.108 222.585 175.968C222.991 175.812 223.396 175.687 223.802 175.594C224.223 175.5 224.644 175.43 225.065 175.383C225.502 175.336 225.939 175.313 226.376 175.313C227.515 175.313 228.42 175.484 229.09 175.828C229.761 176.155 230.245 176.639 230.541 177.278C230.853 177.918 231.009 178.69 231.009 179.595V187.2H229.324V179.595C229.324 179.314 229.285 179.018 229.207 178.706C229.145 178.394 229.012 178.097 228.81 177.817C228.607 177.52 228.295 177.286 227.874 177.115C227.452 176.927 226.891 176.834 226.189 176.834C225.705 176.834 225.206 176.873 224.691 176.951C224.176 177.029 223.654 177.146 223.123 177.302V187.2H221.438V176.459Z" fill="white"/>
<path d="M234.761 176.459C235.136 176.272 235.518 176.108 235.908 175.968C236.314 175.812 236.719 175.687 237.125 175.594C237.546 175.5 237.967 175.43 238.388 175.383C238.825 175.336 239.262 175.313 239.699 175.313C240.838 175.313 241.743 175.484 242.413 175.828C243.084 176.155 243.568 176.639 243.864 177.278C244.176 177.918 244.332 178.69 244.332 179.595V187.2H242.647V179.595C242.647 179.314 242.608 179.018 242.53 178.706C242.468 178.394 242.335 178.097 242.133 177.817C241.93 177.52 241.618 177.286 241.196 177.115C240.775 176.927 240.214 176.834 239.512 176.834C239.028 176.834 238.529 176.873 238.014 176.951C237.499 177.029 236.977 177.146 236.446 177.302V187.2H234.761V176.459Z" fill="white"/>
<path d="M252.905 187.551C251.797 187.551 250.838 187.325 250.026 186.872C249.215 186.404 248.591 185.71 248.154 184.79C247.718 183.869 247.499 182.723 247.499 181.35C247.499 179.338 247.952 177.832 248.856 176.834C249.777 175.82 251.033 175.313 252.624 175.313C253.872 175.313 254.87 175.594 255.619 176.155C256.384 176.717 256.93 177.473 257.257 178.425C257.585 179.377 257.741 180.453 257.725 181.654H248.342L248.459 180.11H256.626L255.97 180.344C255.924 179.174 255.627 178.3 255.081 177.723C254.551 177.146 253.732 176.857 252.624 176.857C251.86 176.857 251.22 176.998 250.705 177.278C250.206 177.559 249.831 178.051 249.582 178.753C249.332 179.439 249.207 180.406 249.207 181.654C249.207 183.074 249.535 184.158 250.19 184.907C250.861 185.64 251.797 186.007 252.998 186.007C253.576 186.007 254.106 185.968 254.59 185.89C255.073 185.796 255.518 185.671 255.924 185.515C256.329 185.359 256.688 185.188 257 185V186.732C256.438 186.997 255.814 187.2 255.128 187.34C254.457 187.481 253.716 187.551 252.905 187.551Z" fill="white"/>
<path d="M265.772 187.387C265.148 187.387 264.509 187.309 263.853 187.153C263.214 186.982 262.621 186.685 262.075 186.264C261.545 185.827 261.116 185.211 260.788 184.415C260.46 183.62 260.297 182.598 260.297 181.35C260.297 180.102 260.46 179.088 260.788 178.308C261.116 177.512 261.545 176.896 262.075 176.459C262.621 176.023 263.214 175.726 263.853 175.57C264.509 175.399 265.148 175.313 265.772 175.313C266.365 175.313 266.95 175.367 267.527 175.477C268.12 175.586 268.69 175.75 269.236 175.968V177.583C268.721 177.364 268.19 177.2 267.644 177.091C267.098 176.982 266.537 176.927 265.96 176.927C264.571 176.927 263.557 177.278 262.917 177.98C262.293 178.682 261.981 179.806 261.981 181.35C261.981 182.91 262.293 184.041 262.917 184.743C263.557 185.429 264.571 185.773 265.96 185.773C266.537 185.773 267.098 185.718 267.644 185.609C268.19 185.5 268.721 185.336 269.236 185.117V186.755C268.69 186.958 268.12 187.114 267.527 187.223C266.95 187.333 266.365 187.387 265.772 187.387Z" fill="white"/>
<path d="M276.073 187.387C275.246 187.387 274.552 187.138 273.99 186.638C273.429 186.124 273.148 185.367 273.148 184.369V177.068H271.112V175.523H273.148V172.224H274.833V175.523H277.852V177.068H274.833V183.83C274.833 184.486 274.934 184.977 275.137 185.305C275.34 185.632 275.753 185.796 276.377 185.796C276.658 185.796 276.931 185.773 277.196 185.726C277.462 185.663 277.68 185.593 277.852 185.515V187.106C277.633 187.184 277.352 187.247 277.009 187.294C276.682 187.356 276.37 187.387 276.073 187.387Z" fill="white"/>
<path d="M285.721 187.551C284.613 187.551 283.654 187.325 282.843 186.872C282.031 186.404 281.407 185.71 280.971 184.79C280.534 183.869 280.315 182.723 280.315 181.35C280.315 179.338 280.768 177.832 281.673 176.834C282.593 175.82 283.849 175.313 285.44 175.313C286.688 175.313 287.687 175.594 288.435 176.155C289.2 176.717 289.746 177.473 290.073 178.425C290.401 179.377 290.557 180.453 290.542 181.654H281.158L281.275 180.11H289.442L288.786 180.344C288.74 179.174 288.443 178.3 287.897 177.723C287.367 177.146 286.548 176.857 285.44 176.857C284.676 176.857 284.036 176.998 283.521 177.278C283.022 177.559 282.648 178.051 282.398 178.753C282.148 179.439 282.024 180.406 282.024 181.654C282.024 183.074 282.351 184.158 283.006 184.907C283.677 185.64 284.613 186.007 285.815 186.007C286.392 186.007 286.922 185.968 287.406 185.89C287.889 185.796 288.334 185.671 288.74 185.515C289.145 185.359 289.504 185.188 289.816 185V186.732C289.254 186.997 288.63 187.2 287.944 187.34C287.273 187.481 286.532 187.551 285.721 187.551Z" fill="white"/>
<path d="M298.542 187.551C297.98 187.551 297.387 187.465 296.763 187.294C296.139 187.138 295.546 186.841 294.985 186.404C294.439 185.952 293.986 185.312 293.627 184.486C293.284 183.643 293.113 182.551 293.113 181.21C293.113 179.4 293.549 177.973 294.423 176.927C295.312 175.867 296.654 175.336 298.448 175.336C298.791 175.336 299.197 175.383 299.665 175.477C300.133 175.57 300.593 175.687 301.046 175.828C301.498 175.968 301.872 176.116 302.169 176.272L301.584 176.857V170.586H303.269V185.188C303.269 185.624 303.113 185.999 302.801 186.311C302.504 186.607 302.114 186.849 301.631 187.036C301.147 187.208 300.632 187.333 300.086 187.411C299.54 187.504 299.025 187.551 298.542 187.551ZM298.565 186.007C299.376 186.007 300.078 185.913 300.671 185.726C301.28 185.539 301.584 185.305 301.584 185.024V177.7C301.1 177.419 300.578 177.216 300.016 177.091C299.47 176.951 298.947 176.881 298.448 176.881C297.606 176.881 296.919 177.068 296.389 177.442C295.874 177.801 295.492 178.308 295.242 178.963C295.008 179.603 294.891 180.352 294.891 181.21C294.891 182.052 294.985 182.84 295.172 183.573C295.359 184.291 295.718 184.876 296.248 185.328C296.779 185.78 297.551 186.007 298.565 186.007Z" fill="white"/>
<path d="M60.4063 215.8L56.5218 204.123H58.3002L61.553 214.536L61.1083 214.724L64.1973 204.123H65.8119L68.9242 214.443H68.5966L71.8494 204.123H73.5108L69.6263 215.8H67.918L64.8057 205.457L65.1099 205.738L62.1146 215.8H60.4063Z" fill="white"/>
<path d="M76.2932 215.8V204.123H77.978V215.8H76.2932ZM76.1996 202.041V200.192H78.0716V202.041H76.1996Z" fill="white"/>
<path d="M85.4952 215.987C84.6684 215.987 83.9741 215.738 83.4125 215.238C82.8509 214.724 82.5701 213.967 82.5701 212.969V205.668H80.5342V204.123H82.5701V200.824H84.2549V204.123H87.2737V205.668H84.2549V212.43C84.2549 213.086 84.3564 213.577 84.5592 213.905C84.762 214.232 85.1754 214.396 85.7994 214.396C86.0802 214.396 86.3532 214.373 86.6184 214.326C86.8836 214.263 87.1021 214.193 87.2737 214.115V215.706C87.0553 215.784 86.7744 215.847 86.4312 215.894C86.1036 215.956 85.7916 215.987 85.4952 215.987Z" fill="white"/>
<path d="M90.3224 215.8V198.952H92.0072V205.434L91.82 204.989C92.4128 204.662 93.0369 204.404 93.6921 204.217C94.3473 204.014 94.9635 203.913 95.5408 203.913C96.508 203.913 97.3192 204.092 97.9745 204.451C98.6453 204.81 99.1523 205.356 99.4955 206.089C99.8543 206.807 100.034 207.735 100.034 208.874V215.8H98.3489V208.874C98.3489 207.782 98.0993 206.939 97.6 206.346C97.1008 205.754 96.352 205.457 95.3536 205.457C94.8075 205.457 94.2537 205.535 93.6921 205.691C93.1461 205.847 92.5844 206.081 92.0072 206.393V215.8H90.3224Z" fill="white"/>
<path d="M115.156 216.128C114.813 216.128 114.423 216.081 113.986 215.987C113.565 215.894 113.152 215.777 112.746 215.636C112.34 215.496 111.981 215.348 111.669 215.192L112.254 214.607V220.878H110.57V206.229C110.57 205.746 110.718 205.356 111.014 205.059C111.326 204.763 111.724 204.537 112.208 204.381C112.691 204.209 113.206 204.092 113.752 204.03C114.298 203.952 114.813 203.913 115.297 203.913C116.233 203.913 117.114 204.108 117.941 204.498C118.768 204.888 119.439 205.551 119.953 206.487C120.468 207.407 120.726 208.663 120.726 210.254C120.726 211.455 120.507 212.501 120.07 213.39C119.649 214.263 119.025 214.942 118.198 215.426C117.371 215.894 116.357 216.128 115.156 216.128ZM115.156 214.583C116.014 214.583 116.716 214.404 117.262 214.045C117.824 213.671 118.245 213.156 118.526 212.501C118.807 211.845 118.947 211.097 118.947 210.254C118.947 209.412 118.854 208.624 118.666 207.891C118.479 207.158 118.12 206.573 117.59 206.136C117.059 205.683 116.287 205.457 115.273 205.457C114.462 205.457 113.752 205.551 113.144 205.738C112.551 205.925 112.254 206.19 112.254 206.534V213.764C112.738 214.045 113.222 214.256 113.705 214.396C114.189 214.521 114.673 214.583 115.156 214.583Z" fill="white"/>
<path d="M128.713 216.151C127.606 216.151 126.646 215.925 125.835 215.472C125.024 215.004 124.4 214.31 123.963 213.39C123.526 212.469 123.308 211.323 123.308 209.95C123.308 207.938 123.76 206.432 124.665 205.434C125.585 204.42 126.841 203.913 128.432 203.913C129.68 203.913 130.679 204.194 131.428 204.755C132.192 205.317 132.738 206.073 133.066 207.025C133.393 207.977 133.549 209.053 133.534 210.254H124.15L124.267 208.71H132.434L131.779 208.944C131.732 207.774 131.435 206.9 130.889 206.323C130.359 205.746 129.54 205.457 128.432 205.457C127.668 205.457 127.028 205.598 126.514 205.878C126.014 206.159 125.64 206.651 125.39 207.353C125.141 208.039 125.016 209.006 125.016 210.254C125.016 211.674 125.343 212.758 125.999 213.507C126.67 214.24 127.606 214.607 128.807 214.607C129.384 214.607 129.914 214.568 130.398 214.49C130.882 214.396 131.326 214.271 131.732 214.115C132.138 213.959 132.496 213.788 132.808 213.6V215.332C132.247 215.597 131.623 215.8 130.936 215.94C130.265 216.081 129.524 216.151 128.713 216.151Z" fill="white"/>
<path d="M141.487 216.151C139.662 216.151 138.305 215.613 137.415 214.536C136.542 213.444 136.105 211.931 136.105 209.997C136.105 207.969 136.565 206.448 137.486 205.434C138.422 204.42 139.74 203.913 141.44 203.913C142.704 203.913 143.734 204.17 144.529 204.685C145.325 205.184 145.91 205.894 146.284 206.814C146.659 207.719 146.846 208.78 146.846 209.997C146.846 211.916 146.378 213.421 145.442 214.513C144.521 215.605 143.203 216.151 141.487 216.151ZM141.464 214.607C142.415 214.607 143.156 214.404 143.687 213.998C144.217 213.577 144.592 213.023 144.81 212.337C145.044 211.635 145.161 210.855 145.161 209.997C145.161 209.076 145.044 208.281 144.81 207.61C144.576 206.924 144.186 206.393 143.64 206.019C143.11 205.644 142.384 205.457 141.464 205.457C140.528 205.457 139.794 205.66 139.264 206.066C138.734 206.471 138.351 207.017 138.117 207.704C137.899 208.374 137.79 209.139 137.79 209.997C137.79 211.37 138.063 212.485 138.609 213.343C139.155 214.185 140.107 214.607 141.464 214.607Z" fill="white"/>
<path d="M154.6 216.128C154.256 216.128 153.866 216.081 153.429 215.987C153.008 215.894 152.595 215.777 152.189 215.636C151.784 215.496 151.425 215.348 151.113 215.192L151.698 214.607V220.878H150.013V206.229C150.013 205.746 150.161 205.356 150.458 205.059C150.77 204.763 151.167 204.537 151.651 204.381C152.135 204.209 152.649 204.092 153.195 204.03C153.741 203.952 154.256 203.913 154.74 203.913C155.676 203.913 156.557 204.108 157.384 204.498C158.211 204.888 158.882 205.551 159.397 206.487C159.912 207.407 160.169 208.663 160.169 210.254C160.169 211.455 159.951 212.501 159.514 213.39C159.093 214.263 158.468 214.942 157.642 215.426C156.815 215.894 155.801 216.128 154.6 216.128ZM154.6 214.583C155.458 214.583 156.16 214.404 156.706 214.045C157.267 213.671 157.688 213.156 157.969 212.501C158.25 211.845 158.39 211.097 158.39 210.254C158.39 209.412 158.297 208.624 158.11 207.891C157.922 207.158 157.564 206.573 157.033 206.136C156.503 205.683 155.731 205.457 154.717 205.457C153.905 205.457 153.195 205.551 152.587 205.738C151.994 205.925 151.698 206.19 151.698 206.534V213.764C152.181 214.045 152.665 214.256 153.149 214.396C153.632 214.521 154.116 214.583 154.6 214.583Z" fill="white"/>
<path d="M165.021 215.8H163.336V199.677H165.021V215.8Z" fill="white"/>
<path d="M173.595 216.151C172.488 216.151 171.528 215.925 170.717 215.472C169.906 215.004 169.282 214.31 168.845 213.39C168.408 212.469 168.19 211.323 168.19 209.95C168.19 207.938 168.642 206.432 169.547 205.434C170.467 204.42 171.723 203.913 173.315 203.913C174.563 203.913 175.561 204.194 176.31 204.755C177.074 205.317 177.62 206.073 177.948 207.025C178.276 207.977 178.432 209.053 178.416 210.254H169.032L169.149 208.71H177.316L176.661 208.944C176.614 207.774 176.318 206.9 175.772 206.323C175.241 205.746 174.422 205.457 173.315 205.457C172.55 205.457 171.911 205.598 171.396 205.878C170.896 206.159 170.522 206.651 170.272 207.353C170.023 208.039 169.898 209.006 169.898 210.254C169.898 211.674 170.226 212.758 170.881 213.507C171.552 214.24 172.488 214.607 173.689 214.607C174.266 214.607 174.797 214.568 175.28 214.49C175.764 214.396 176.209 214.271 176.614 214.115C177.02 213.959 177.379 213.788 177.691 213.6V215.332C177.129 215.597 176.505 215.8 175.818 215.94C175.148 216.081 174.407 216.151 173.595 216.151Z" fill="white"/>
<path d="M188.476 215.8V200.192H190.161V215.8H188.476Z" fill="white"/>
<path d="M205.705 215.987C205.081 215.987 204.441 215.909 203.786 215.753C203.146 215.582 202.553 215.285 202.007 214.864C201.477 214.427 201.048 213.811 200.72 213.015C200.393 212.22 200.229 211.198 200.229 209.95C200.229 208.702 200.393 207.688 200.72 206.908C201.048 206.112 201.477 205.496 202.007 205.059C202.553 204.623 203.146 204.326 203.786 204.17C204.441 203.999 205.081 203.913 205.705 203.913C206.298 203.913 206.883 203.967 207.46 204.077C208.053 204.186 208.622 204.35 209.168 204.568V206.183C208.653 205.964 208.123 205.8 207.577 205.691C207.031 205.582 206.469 205.527 205.892 205.527C204.503 205.527 203.489 205.878 202.85 206.58C202.226 207.282 201.914 208.406 201.914 209.95C201.914 211.51 202.226 212.641 202.85 213.343C203.489 214.029 204.503 214.373 205.892 214.373C206.469 214.373 207.031 214.318 207.577 214.209C208.123 214.1 208.653 213.936 209.168 213.717V215.355C208.622 215.558 208.053 215.714 207.46 215.823C206.883 215.933 206.298 215.987 205.705 215.987Z" fill="white"/>
<path d="M216.357 216.151C215.842 216.151 215.319 216.096 214.789 215.987C214.274 215.878 213.79 215.691 213.338 215.426C212.901 215.16 212.542 214.802 212.261 214.349C211.996 213.881 211.864 213.296 211.864 212.594C211.864 211.627 212.043 210.855 212.402 210.278C212.776 209.685 213.283 209.264 213.923 209.014C214.578 208.749 215.327 208.616 216.169 208.616C216.809 208.616 217.363 208.655 217.831 208.733C218.299 208.811 218.712 208.928 219.071 209.084C219.445 209.225 219.781 209.388 220.077 209.576L220.405 211.12C220.046 210.855 219.523 210.629 218.837 210.441C218.166 210.239 217.425 210.137 216.614 210.137C215.631 210.137 214.874 210.324 214.344 210.699C213.814 211.073 213.548 211.619 213.548 212.337C213.548 212.914 213.704 213.374 214.016 213.717C214.344 214.061 214.75 214.302 215.233 214.443C215.733 214.583 216.24 214.653 216.754 214.653C217.768 214.653 218.533 214.583 219.048 214.443C219.578 214.287 219.843 213.944 219.843 213.413V208.055C219.843 207.15 219.578 206.487 219.048 206.066C218.517 205.644 217.761 205.434 216.778 205.434C216.154 205.434 215.491 205.527 214.789 205.715C214.102 205.886 213.509 206.167 213.01 206.557V204.872C213.494 204.56 214.141 204.326 214.952 204.17C215.764 203.999 216.552 203.913 217.316 203.913C217.831 203.913 218.307 203.967 218.743 204.077C219.18 204.17 219.57 204.318 219.913 204.521C220.257 204.708 220.545 204.958 220.779 205.27C221.029 205.566 221.216 205.917 221.341 206.323C221.481 206.713 221.552 207.158 221.552 207.657V213.32C221.552 214.146 221.302 214.763 220.803 215.168C220.319 215.574 219.679 215.839 218.884 215.964C218.104 216.089 217.261 216.151 216.357 216.151Z" fill="white"/>
<path d="M225.289 215.8V205.059C225.476 204.981 225.835 204.849 226.365 204.662C226.911 204.474 227.559 204.303 228.308 204.147C229.072 203.991 229.86 203.913 230.671 203.913C230.796 203.913 230.921 203.928 231.046 203.96C231.17 203.991 231.295 204.022 231.42 204.053V205.551C231.014 205.504 230.617 205.481 230.227 205.481C229.852 205.481 229.485 205.504 229.127 205.551C228.768 205.582 228.409 205.629 228.05 205.691C227.691 205.754 227.333 205.816 226.974 205.878V215.8H225.289Z" fill="white"/>
<path d="M238.108 216.151C237 216.151 236.041 215.925 235.23 215.472C234.418 215.004 233.794 214.31 233.357 213.39C232.921 212.469 232.702 211.323 232.702 209.95C232.702 207.938 233.155 206.432 234.059 205.434C234.98 204.42 236.236 203.913 237.827 203.913C239.075 203.913 240.074 204.194 240.822 204.755C241.587 205.317 242.133 206.073 242.46 207.025C242.788 207.977 242.944 209.053 242.928 210.254H233.545L233.662 208.71H241.829L241.173 208.944C241.127 207.774 240.83 206.9 240.284 206.323C239.754 205.746 238.935 205.457 237.827 205.457C237.063 205.457 236.423 205.598 235.908 205.878C235.409 206.159 235.035 206.651 234.785 207.353C234.535 208.039 234.411 209.006 234.411 210.254C234.411 211.674 234.738 212.758 235.393 213.507C236.064 214.24 237 214.607 238.201 214.607C238.779 214.607 239.309 214.568 239.793 214.49C240.276 214.396 240.721 214.271 241.127 214.115C241.532 213.959 241.891 213.788 242.203 213.6V215.332C241.641 215.597 241.017 215.8 240.331 215.94C239.66 216.081 238.919 216.151 238.108 216.151Z" fill="white"/>
<path d="M256.897 216.151C256.382 216.151 255.859 216.096 255.329 215.987C254.814 215.878 254.33 215.691 253.878 215.426C253.441 215.16 253.082 214.802 252.802 214.349C252.536 213.881 252.404 213.296 252.404 212.594C252.404 211.627 252.583 210.855 252.942 210.278C253.316 209.685 253.823 209.264 254.463 209.014C255.118 208.749 255.867 208.616 256.71 208.616C257.349 208.616 257.903 208.655 258.371 208.733C258.839 208.811 259.252 208.928 259.611 209.084C259.986 209.225 260.321 209.388 260.617 209.576L260.945 211.12C260.586 210.855 260.064 210.629 259.377 210.441C258.706 210.239 257.965 210.137 257.154 210.137C256.171 210.137 255.415 210.324 254.884 210.699C254.354 211.073 254.089 211.619 254.089 212.337C254.089 212.914 254.245 213.374 254.557 213.717C254.884 214.061 255.29 214.302 255.774 214.443C256.273 214.583 256.78 214.653 257.295 214.653C258.309 214.653 259.073 214.583 259.588 214.443C260.118 214.287 260.383 213.944 260.383 213.413V208.055C260.383 207.15 260.118 206.487 259.588 206.066C259.057 205.644 258.301 205.434 257.318 205.434C256.694 205.434 256.031 205.527 255.329 205.715C254.642 205.886 254.05 206.167 253.55 206.557V204.872C254.034 204.56 254.681 204.326 255.493 204.17C256.304 203.999 257.092 203.913 257.856 203.913C258.371 203.913 258.847 203.967 259.284 204.077C259.72 204.17 260.11 204.318 260.454 204.521C260.797 204.708 261.086 204.958 261.32 205.27C261.569 205.566 261.756 205.917 261.881 206.323C262.022 206.713 262.092 207.158 262.092 207.657V213.32C262.092 214.146 261.842 214.763 261.343 215.168C260.859 215.574 260.22 215.839 259.424 215.964C258.644 216.089 257.802 216.151 256.897 216.151Z" fill="white"/>
<path d="M270.439 216.151C269.831 216.151 269.246 216.112 268.684 216.034C268.138 215.972 267.647 215.855 267.21 215.683C266.789 215.496 266.453 215.254 266.204 214.958C265.954 214.661 265.829 214.279 265.829 213.811V199.186H267.514V205.457L266.929 204.872C267.241 204.716 267.615 204.568 268.052 204.428C268.505 204.287 268.965 204.17 269.433 204.077C269.901 203.983 270.307 203.936 270.65 203.936C272.459 203.936 273.801 204.467 274.675 205.527C275.548 206.573 275.985 208 275.985 209.81C275.985 211.151 275.806 212.243 275.447 213.086C275.088 213.912 274.628 214.552 274.066 215.004C273.52 215.441 272.927 215.738 272.288 215.894C271.648 216.065 271.032 216.151 270.439 216.151ZM270.275 214.607C271.383 214.607 272.218 214.38 272.779 213.928C273.341 213.476 273.715 212.891 273.902 212.173C274.105 211.44 274.207 210.652 274.207 209.81C274.207 208.952 274.082 208.203 273.832 207.563C273.598 206.908 273.224 206.401 272.709 206.042C272.194 205.668 271.508 205.481 270.65 205.481C270.166 205.481 269.643 205.551 269.082 205.691C268.52 205.816 267.998 206.019 267.514 206.3V213.413C267.514 213.756 267.662 214.014 267.959 214.185C268.271 214.357 268.637 214.474 269.058 214.536C269.495 214.583 269.901 214.607 270.275 214.607Z" fill="white"/>
<path d="M283.949 216.151C282.124 216.151 280.767 215.613 279.878 214.536C279.004 213.444 278.567 211.931 278.567 209.997C278.567 207.969 279.027 206.448 279.948 205.434C280.884 204.42 282.202 203.913 283.902 203.913C285.166 203.913 286.196 204.17 286.991 204.685C287.787 205.184 288.372 205.894 288.746 206.814C289.121 207.719 289.308 208.78 289.308 209.997C289.308 211.916 288.84 213.421 287.904 214.513C286.984 215.605 285.665 216.151 283.949 216.151ZM283.926 214.607C284.878 214.607 285.619 214.404 286.149 213.998C286.679 213.577 287.054 213.023 287.272 212.337C287.506 211.635 287.623 210.855 287.623 209.997C287.623 209.076 287.506 208.281 287.272 207.61C287.038 206.924 286.648 206.393 286.102 206.019C285.572 205.644 284.846 205.457 283.926 205.457C282.99 205.457 282.257 205.66 281.726 206.066C281.196 206.471 280.814 207.017 280.58 207.704C280.361 208.374 280.252 209.139 280.252 209.997C280.252 211.37 280.525 212.485 281.071 213.343C281.617 214.185 282.569 214.607 283.926 214.607Z" fill="white"/>
<path d="M297.366 216.151C296.336 216.151 295.455 215.972 294.722 215.613C293.988 215.254 293.427 214.731 293.037 214.045C292.662 213.359 292.475 212.516 292.475 211.518V204.123H294.16V211.143C294.16 212.329 294.417 213.203 294.932 213.764C295.463 214.31 296.274 214.583 297.366 214.583C298.458 214.583 299.261 214.31 299.776 213.764C300.307 213.203 300.572 212.329 300.572 211.143V204.123H302.257V211.518C302.257 213 301.828 214.146 300.97 214.958C300.127 215.753 298.926 216.151 297.366 216.151Z" fill="white"/>
<path d="M309.678 215.987C308.851 215.987 308.157 215.738 307.595 215.238C307.033 214.724 306.753 213.967 306.753 212.969V205.668H304.717V204.123H306.753V200.824H308.437V204.123H311.456V205.668H308.437V212.43C308.437 213.086 308.539 213.577 308.742 213.905C308.944 214.232 309.358 214.396 309.982 214.396C310.263 214.396 310.536 214.373 310.801 214.326C311.066 214.263 311.285 214.193 311.456 214.115V215.706C311.238 215.784 310.957 215.847 310.614 215.894C310.286 215.956 309.974 215.987 309.678 215.987Z" fill="white"/>
<path d="M314.505 215.8V213.46H316.845V215.8H314.505Z" fill="white"/>
</svg>
