<svg width="147" height="29" viewBox="0 0 147 29" fill="none" xmlns="http://www.w3.org/2000/svg">
<circle cx="3.68197" cy="7.92367" r="3.68197" fill="#071013"/>
<circle cx="41.6645" cy="7.92367" r="3.68197" fill="#071013"/>
<path d="M13.3712 23.6206C21.1136 25.8831 25.331 26.0157 32.5561 23.6206" stroke="#071013" stroke-width="6" stroke-linecap="round"/>
<path d="M58 25.637H68.7474C74.3975 25.637 77.4067 22.6326 77.4067 18.5518C77.4067 14.7588 74.7414 12.468 71.8795 12.3303V12.0799C74.4957 11.4791 76.4241 9.58883 76.4241 6.57198C76.4241 2.72893 73.6236 0 68.0718 0H58V25.637ZM63.3184 21.2056V14.3958H67.7771C70.3319 14.3958 71.9163 15.8979 71.9163 18.0135C71.9163 19.9413 70.6267 21.2056 67.6542 21.2056H63.3184ZM63.3184 10.728V4.38132H67.3594C69.7177 4.38132 71.0566 5.6206 71.0566 7.47328C71.0566 9.5012 69.4352 10.728 67.2612 10.728H63.3184Z" fill="#071013"/>
<path d="M85.388 26C88.1762 26 89.9818 24.7607 90.903 22.9706H91.0504V25.637H96.0126V12.6683C96.0126 8.08666 92.2049 6.15888 88.0042 6.15888C83.4842 6.15888 80.5118 8.36206 79.7871 11.8671L84.6265 12.2677C84.9827 10.9909 86.1004 10.052 87.9797 10.052C89.7607 10.052 90.7801 10.9658 90.7801 12.5431V12.6182C90.7801 13.8575 89.4905 14.0202 86.211 14.3457C82.477 14.6962 79.1238 15.973 79.1238 20.2667C79.1238 24.0722 81.7892 26 85.388 26ZM86.8865 22.3197C85.2775 22.3197 84.1229 21.5561 84.1229 20.0915C84.1229 18.5893 85.3389 17.8507 87.1813 17.5879C88.3236 17.4251 90.1906 17.1497 90.817 16.7241V18.7646C90.817 20.78 89.1834 22.3197 86.8865 22.3197Z" fill="#071013"/>
<path d="M99.4094 25.637H104.568V22.5575H104.801C105.526 24.1598 107.111 25.9499 110.157 25.9499C114.456 25.9499 117.809 22.4824 117.809 16.0481C117.809 9.43862 114.308 6.15888 110.169 6.15888C107.012 6.15888 105.502 8.07415 104.801 9.6389H104.642V0H99.4094V25.637ZM104.531 16.0231C104.531 12.5932 105.956 10.4025 108.499 10.4025C111.09 10.4025 112.466 12.6933 112.466 16.0231C112.466 19.3779 111.066 21.7063 108.499 21.7063C105.981 21.7063 104.531 19.4531 104.531 16.0231Z" fill="#071013"/>
<path d="M120.638 25.637H125.796V22.5575H126.03C126.754 24.1598 128.339 25.9499 131.385 25.9499C135.684 25.9499 139.037 22.4824 139.037 16.0481C139.037 9.43862 135.537 6.15888 131.397 6.15888C128.241 6.15888 126.73 8.07415 126.03 9.6389H125.87V0H120.638V25.637ZM125.759 16.0231C125.759 12.5932 127.184 10.4025 129.727 10.4025C132.318 10.4025 133.694 12.6933 133.694 16.0231C133.694 19.3779 132.294 21.7063 129.727 21.7063C127.209 21.7063 125.759 19.4531 125.759 16.0231Z" fill="#071013"/>
<path d="M147 0H141.768V25.637H147V0Z" fill="#071013"/>
</svg>
