<svg width="55" height="26" viewBox="0 0 55 26" fill="none" xmlns="http://www.w3.org/2000/svg">
<path d="M28 12.5002C23 10.1668 10.6 6.20015 1 9.00015M1 9.00015C2.5 6.83344 7.3 2.2 14.5 1M1 9.00015C3.16667 9.0001 8.5 10.2 12.5 15" stroke="black" stroke-linecap="round" stroke-linejoin="round"/>
<path d="M35.1098 24V19.814L31.5958 14.662H33.4858L35.9778 18.54L38.3718 14.662H40.0378L36.6498 19.842V24H35.1098ZM42.63 24.21C41.4913 24.21 40.642 23.888 40.082 23.244C39.5313 22.6 39.256 21.6807 39.256 20.486C39.256 19.226 39.5407 18.2973 40.11 17.7C40.6887 17.1027 41.524 16.804 42.616 16.804C43.764 16.804 44.618 17.126 45.178 17.77C45.738 18.4047 46.018 19.31 46.018 20.486C46.018 21.6713 45.724 22.5907 45.136 23.244C44.548 23.888 43.7127 24.21 42.63 24.21ZM42.616 22.964C43.3253 22.964 43.8247 22.7353 44.114 22.278C44.4033 21.8207 44.548 21.2233 44.548 20.486C44.548 19.6833 44.3987 19.0767 44.1 18.666C43.8013 18.246 43.3067 18.036 42.616 18.036C41.9067 18.036 41.412 18.2553 41.132 18.694C40.852 19.1233 40.712 19.7207 40.712 20.486C40.712 21.2607 40.8567 21.8673 41.146 22.306C41.4353 22.7447 41.9253 22.964 42.616 22.964ZM50.5417 24.21C49.5804 24.21 48.8197 23.972 48.2597 23.496C47.7091 23.02 47.4337 22.3153 47.4337 21.382V16.972H48.9037V21.172C48.9037 21.7693 49.0344 22.2127 49.2957 22.502C49.5571 22.782 49.9724 22.922 50.5417 22.922C51.1017 22.922 51.5124 22.782 51.7737 22.502C52.0444 22.2127 52.1797 21.7693 52.1797 21.172V16.972H53.5937V21.382C53.5937 22.3153 53.3231 23.02 52.7817 23.496C52.2404 23.972 51.4937 24.21 50.5417 24.21Z" fill="black"/>
</svg>
