<svg width="55" height="20" viewBox="0 0 55 20" fill="none" xmlns="http://www.w3.org/2000/svg">
<path d="M27.5 12.0002C32.5 9.66682 44.9 5.70015 54.5 8.50015M54.5 8.50015C53 6.33344 48.2 1.7 41 0.5M54.5 8.50015C52.3333 8.5001 47 9.7 43 14.5" stroke="black" stroke-linecap="round" stroke-linejoin="round"/>
<path d="M4.1098 18V13.814L0.595797 8.662H2.4858L4.9778 12.54L7.3718 8.662H9.0378L5.6498 13.842V18H4.1098ZM11.63 18.21C10.4913 18.21 9.64198 17.888 9.08198 17.244C8.53132 16.6 8.25598 15.6807 8.25598 14.486C8.25598 13.226 8.54065 12.2973 9.10998 11.7C9.68865 11.1027 10.524 10.804 11.616 10.804C12.764 10.804 13.618 11.126 14.178 11.77C14.738 12.4047 15.018 13.31 15.018 14.486C15.018 15.6713 14.724 16.5907 14.136 17.244C13.548 17.888 12.7127 18.21 11.63 18.21ZM11.616 16.964C12.3253 16.964 12.8247 16.7353 13.114 16.278C13.4033 15.8207 13.548 15.2233 13.548 14.486C13.548 13.6833 13.3987 13.0767 13.1 12.666C12.8013 12.246 12.3067 12.036 11.616 12.036C10.9067 12.036 10.412 12.2553 10.132 12.694C9.85198 13.1233 9.71198 13.7207 9.71198 14.486C9.71198 15.2607 9.85665 15.8673 10.146 16.306C10.4353 16.7447 10.9253 16.964 11.616 16.964ZM19.5417 18.21C18.5804 18.21 17.8197 17.972 17.2597 17.496C16.7091 17.02 16.4337 16.3153 16.4337 15.382V10.972H17.9037V15.172C17.9037 15.7693 18.0344 16.2127 18.2957 16.502C18.5571 16.782 18.9724 16.922 19.5417 16.922C20.1017 16.922 20.5124 16.782 20.7737 16.502C21.0444 16.2127 21.1797 15.7693 21.1797 15.172V10.972H22.5937V15.382C22.5937 16.3153 22.3231 17.02 21.7817 17.496C21.2404 17.972 20.4937 18.21 19.5417 18.21Z" fill="black"/>
</svg>
