<svg width="105" height="25" viewBox="0 0 105 25" fill="none" xmlns="http://www.w3.org/2000/svg">
<path d="M6.83896 8.53208V10.6181C7.70954 9.66835 8.51228 9.00694 9.24719 8.63383C9.9934 8.24942 10.8074 8.05722 11.6893 8.05722C12.7069 8.05722 13.5605 8.29465 14.2502 8.76951C14.9399 9.24437 15.4713 9.96797 15.8444 10.9403C16.7489 9.92274 17.6138 9.18784 18.4392 8.73559C19.2758 8.28334 20.1464 8.05722 21.0509 8.05722C22.1476 8.05722 23.0182 8.31161 23.6626 8.82039C24.3184 9.31786 24.7707 9.95666 25.0194 10.7368C25.2794 11.5056 25.4095 12.738 25.4095 14.4339V20.9294C25.4095 22.1504 25.5169 22.908 25.7317 23.2019C25.9578 23.4959 26.4214 23.6881 27.1224 23.7785V24.3891H18.931V23.7785C19.5754 23.722 20.0503 23.4733 20.3556 23.0323C20.5591 22.7271 20.6608 22.0261 20.6608 20.9294V14.1117C20.6608 12.6984 20.6043 11.7996 20.4912 11.4152C20.3782 11.0308 20.1973 10.7481 19.9485 10.5672C19.7111 10.375 19.4285 10.2789 19.1006 10.2789C18.6144 10.2789 18.1226 10.4598 17.6251 10.8216C17.1276 11.1721 16.6245 11.7035 16.1157 12.4158V20.9294C16.1157 22.0713 16.2118 22.7892 16.404 23.0832C16.6641 23.5015 17.1616 23.7333 17.8965 23.7785V24.3891H9.68813V23.7785C10.1291 23.7559 10.4739 23.6485 10.7227 23.4563C10.9827 23.2528 11.1523 23.0154 11.2314 22.744C11.3219 22.4614 11.3671 21.8565 11.3671 20.9294V14.1117C11.3671 12.6758 11.3106 11.777 11.1975 11.4152C11.0845 11.0534 10.8922 10.7707 10.6209 10.5672C10.3609 10.3637 10.0782 10.2619 9.77293 10.2619C9.32068 10.2619 8.908 10.3806 8.53489 10.6181C8.0035 10.9686 7.43819 11.5678 6.83896 12.4158V20.9294C6.83896 22.0487 6.94637 22.7892 7.16119 23.151C7.38731 23.5015 7.85087 23.7107 8.55185 23.7785V24.3891H0.377441V23.7785C1.04451 23.7107 1.51937 23.4959 1.80203 23.1341C1.99423 22.8853 2.09034 22.1504 2.09034 20.9294V11.9748C2.09034 10.7764 1.97727 10.0302 1.75115 9.73619C1.53633 9.44223 1.07843 9.25002 0.377441 9.15957V8.53208H6.83896Z" fill="#2E3B4C"/>
<path d="M33.0073 0.849487C33.7422 0.849487 34.364 1.10953 34.8728 1.62962C35.3816 2.1384 35.636 2.75459 35.636 3.47819C35.636 4.20179 35.3759 4.81798 34.8558 5.32676C34.347 5.83554 33.7309 6.08993 33.0073 6.08993C32.2837 6.08993 31.6675 5.83554 31.1587 5.32676C30.6499 4.81798 30.3955 4.20179 30.3955 3.47819C30.3955 2.75459 30.6499 2.1384 31.1587 1.62962C31.6675 1.10953 32.2837 0.849487 33.0073 0.849487ZM35.3816 8.53208V21.099C35.3816 22.2183 35.5116 22.9362 35.7716 23.2528C36.0317 23.5581 36.5405 23.7333 37.298 23.7785V24.3891H28.7335V23.7785C29.4345 23.7559 29.9546 23.5524 30.2938 23.168C30.5199 22.908 30.6329 22.2183 30.6329 21.099V11.8392C30.6329 10.7198 30.5029 10.0075 30.2429 9.70227C29.9828 9.3857 29.4797 9.2048 28.7335 9.15957V8.53208H35.3816Z" fill="#2E3B4C"/>
<path d="M45.3367 8.53208V10.5842C46.1508 9.70227 46.9309 9.06347 47.6771 8.66775C48.4233 8.26073 49.2261 8.05722 50.0853 8.05722C51.1142 8.05722 51.9678 8.34552 52.6462 8.92214C53.3246 9.48746 53.7768 10.1941 54.0029 11.0421C54.1838 11.6865 54.2743 12.9246 54.2743 14.7562V20.9294C54.2743 22.1504 54.3817 22.9136 54.5965 23.2189C54.8226 23.5128 55.2862 23.6994 55.9872 23.7785V24.3891H47.9654V23.7785C48.5646 23.6994 48.9943 23.4507 49.2543 23.0323C49.4352 22.7497 49.5257 22.0487 49.5257 20.9294V13.8743C49.5257 12.5741 49.4748 11.7544 49.373 11.4152C49.2713 11.076 49.096 10.8159 48.8473 10.635C48.6099 10.4428 48.3442 10.3467 48.0502 10.3467C47.0779 10.3467 46.1734 11.0421 45.3367 12.4327V20.9294C45.3367 22.1165 45.4441 22.8684 45.6589 23.185C45.8851 23.5015 46.2977 23.6994 46.897 23.7785V24.3891H38.8752V23.7785C39.5423 23.7107 40.0171 23.4959 40.2998 23.1341C40.492 22.8853 40.5881 22.1504 40.5881 20.9294V11.9748C40.5881 10.7764 40.475 10.0302 40.2489 9.73619C40.0341 9.44223 39.5762 9.25002 38.8752 9.15957V8.53208H45.3367Z" fill="#2E3B4C"/>
<path d="M73.608 1.39219V19.6405C73.608 20.8728 73.6419 21.6021 73.7097 21.8282C73.8002 22.2013 73.9698 22.4783 74.2185 22.6592C74.4785 22.8401 74.9251 22.9532 75.5583 22.9984V23.5581L68.8593 24.8639V22.354C68.0566 23.3263 67.3387 23.9877 66.7055 24.3382C66.0837 24.6887 65.377 24.8639 64.5856 24.8639C62.5618 24.8639 60.9619 23.9594 59.7861 22.1504C58.8364 20.6806 58.3615 18.8773 58.3615 16.7404C58.3615 15.0332 58.6555 13.5068 59.2434 12.1614C59.8313 10.8046 60.6341 9.78142 61.6516 9.09174C62.6805 8.40206 63.7828 8.05722 64.9587 8.05722C65.7162 8.05722 66.3889 8.2042 66.9769 8.49816C67.5648 8.79212 68.1923 9.30656 68.8593 10.0415V5.25892C68.8593 4.04915 68.8085 3.3199 68.7067 3.07116C68.571 2.74328 68.3675 2.5002 68.0962 2.34191C67.8248 2.18362 67.316 2.10448 66.5698 2.10448V1.39219H73.608ZM68.8593 12.1444C68.0227 10.5389 66.9995 9.73619 65.7897 9.73619C65.3714 9.73619 65.0265 9.84925 64.7552 10.0754C64.3368 10.4259 63.992 11.0421 63.7207 11.924C63.4606 12.8058 63.3306 14.1569 63.3306 15.9772C63.3306 17.9784 63.4776 19.4596 63.7715 20.4206C64.0655 21.3816 64.4669 22.077 64.9757 22.5066C65.2357 22.7214 65.5918 22.8288 66.0441 22.8288C67.039 22.8288 67.9775 22.0487 68.8593 20.4884V12.1444Z" fill="#2E3B4C"/>
<path d="M84.4789 10.1941V21.2007C84.4789 22.2635 84.592 22.9306 84.8181 23.2019C85.1799 23.6203 85.847 23.8125 86.8193 23.7785V24.3891H77.4747V23.7785C78.187 23.7672 78.6901 23.6881 78.9841 23.5411C79.2894 23.3828 79.4985 23.168 79.6116 22.8967C79.7246 22.6253 79.7812 22.06 79.7812 21.2007V10.1941H77.4747V8.53208H79.7812V7.36188L79.7642 6.56479C79.7642 4.93669 80.3578 3.57994 81.545 2.49455C82.7434 1.40915 84.3602 0.866447 86.3953 0.866447C87.786 0.866447 88.8149 1.12649 89.4819 1.64658C90.1603 2.16666 90.4995 2.74328 90.4995 3.37643C90.4995 3.88521 90.2903 4.32616 89.872 4.69926C89.4537 5.07237 88.8997 5.25892 88.21 5.25892C87.6221 5.25892 87.1528 5.10629 86.8024 4.80102C86.4632 4.49575 86.2936 4.15656 86.2936 3.78346C86.2936 3.6817 86.3275 3.47254 86.3953 3.15596C86.4405 2.96375 86.4632 2.78285 86.4632 2.61326C86.4632 2.37583 86.3953 2.20058 86.2597 2.08752C86.0788 1.91793 85.8583 1.83313 85.5982 1.83313C85.2704 1.83313 84.9934 1.96881 84.7672 2.24015C84.5524 2.5115 84.445 2.9468 84.445 3.54603L84.4789 6.51391V8.53208H86.8193V10.1941H84.4789Z" fill="#2E3B4C"/>
<path d="M95.299 1.39219V21.099C95.299 22.2183 95.429 22.9362 95.6891 23.2528C95.9491 23.5581 96.4579 23.7333 97.2154 23.7785V24.3891H88.6509V23.7785C89.3519 23.7559 89.872 23.5524 90.2112 23.168C90.4373 22.908 90.5504 22.2183 90.5504 21.099V4.6823C90.5504 3.57429 90.4204 2.86765 90.1603 2.56238C89.9003 2.24581 89.3971 2.06491 88.6509 2.01968V1.39219H95.299Z" fill="#2E3B4C"/>
<path d="M101.93 19.1656C102.722 19.1656 103.389 19.4426 103.931 19.9966C104.485 20.5506 104.762 21.2177 104.762 21.9978C104.762 22.7779 104.485 23.445 103.931 23.999C103.377 24.5417 102.71 24.8131 101.93 24.8131C101.15 24.8131 100.483 24.5417 99.9289 23.999C99.3862 23.445 99.1148 22.7779 99.1148 21.9978C99.1148 21.2177 99.3862 20.5506 99.9289 19.9966C100.483 19.4426 101.15 19.1656 101.93 19.1656Z" fill="#2E3B4C"/>
</svg>
