<svg width="429" height="334" viewBox="0 0 429 334" fill="none" xmlns="http://www.w3.org/2000/svg">
<rect x="0.472656" width="428" height="333.615" fill="#F0F7F7"/>
<path d="M216.548 136.835H135.492C133.028 136.835 131.031 138.835 131.031 141.303V142.097C131.031 144.564 133.028 146.565 135.492 146.565H216.548C219.012 146.565 221.009 144.564 221.009 142.097V141.303C221.009 138.835 219.012 136.835 216.548 136.835Z" fill="#A9C7EA"/>
<path d="M236.702 145.125H155.646C153.182 145.125 151.185 147.125 151.185 149.592V150.386C151.185 152.854 153.182 154.854 155.646 154.854H236.702C239.166 154.854 241.164 152.854 241.164 150.386V149.592C241.164 147.125 239.166 145.125 236.702 145.125Z" fill="#A9C7EA"/>
<path d="M202.508 152.329H121.453C118.989 152.329 116.991 154.329 116.991 156.796V157.59C116.991 160.058 118.989 162.058 121.453 162.058H202.508C204.973 162.058 206.97 160.058 206.97 157.59V156.796C206.97 154.329 204.973 152.329 202.508 152.329Z" fill="#A9C7EA"/>
<g opacity="0.5">
<path opacity="0.5" d="M381.911 322.082C379.751 322.082 330.081 343.708 272.494 286.762C241.222 255.841 210.59 252.549 189.123 255.998C175.93 258.116 163.885 264.566 154.343 273.91C146.669 281.455 128.096 291.736 84.5808 288.928C17.6365 284.604 0 332.539 0 332.539H395.556C395.556 332.539 384.056 322.082 381.911 322.082Z" fill="url(#paint0_linear_57:3423)"/>
</g>
<path d="M0.0178833 333.615C0.0178833 333.615 17.6544 285.68 84.5987 290.005C128.114 292.826 146.692 282.531 154.343 274.991C163.867 265.629 175.908 259.197 189.087 257.079C210.554 253.63 241.19 256.922 272.459 287.843C330.045 344.789 379.716 323.163 381.875 323.163C384.034 323.163 395.551 333.615 395.551 333.615H0.0178833Z" fill="#A9C7EA"/>
<path opacity="0.02" d="M0.0178833 333.615C0.0178833 333.615 17.6544 285.68 84.5987 290.005C128.114 292.826 146.692 282.531 154.343 274.991C163.867 265.629 175.908 259.197 189.087 257.079C210.554 253.63 241.19 256.922 272.459 287.843C330.045 344.789 379.716 323.163 381.875 323.163C384.034 323.163 395.551 333.615 395.551 333.615H0.0178833Z" fill="black"/>
<path d="M126.564 69.7957H45.5091C43.0449 69.7957 41.0473 71.796 41.0473 74.2634V75.0574C41.0473 77.5249 43.0449 79.5252 45.5091 79.5252H126.564C129.029 79.5252 131.026 77.5249 131.026 75.0574V74.2634C131.026 71.796 129.029 69.7957 126.564 69.7957Z" fill="#A9C7EA"/>
<path d="M146.723 78.0853H65.6677C63.2035 78.0853 61.2059 80.0856 61.2059 82.5531V83.3471C61.2059 85.8146 63.2035 87.8149 65.6677 87.8149H146.723C149.187 87.8149 151.185 85.8146 151.185 83.3471V82.5531C151.185 80.0856 149.187 78.0853 146.723 78.0853Z" fill="#A9C7EA"/>
<path d="M112.529 85.2939H31.4741C29.0099 85.2939 27.0123 87.2942 27.0123 89.7617V90.5557C27.0123 93.0232 29.0099 95.0235 31.4741 95.0235H112.529C114.994 95.0235 116.991 93.0232 116.991 90.5557V89.7617C116.991 87.2942 114.994 85.2939 112.529 85.2939Z" fill="#A9C7EA"/>
<g opacity="0.5">
<path opacity="0.5" d="M89.2799 87.0971C109.357 87.0971 125.632 70.7995 125.632 50.6954C125.632 30.5913 109.357 14.2937 89.2799 14.2937C69.2029 14.2937 52.9273 30.5913 52.9273 50.6954C52.9273 70.7995 69.2029 87.0971 89.2799 87.0971Z" fill="url(#paint1_linear_57:3423)"/>
</g>
<path d="M89.28 83.1317C107.17 83.1317 121.673 68.6095 121.673 50.6954C121.673 32.7813 107.17 18.259 89.28 18.259C71.3901 18.259 56.8875 32.7813 56.8875 50.6954C56.8875 68.6095 71.3901 83.1317 89.28 83.1317Z" fill="#FFA450"/>
<path d="M80.9478 281.912H74.3358V286.954H80.9478V281.912Z" fill="#F0F7F7"/>
<g opacity="0.2">
<path opacity="0.2" d="M202.724 257.039C202.665 257.025 202.724 257.039 202.724 257.039V257.039Z" fill="url(#paint2_linear_57:3423)"/>
</g>
<g opacity="0.2">
<path opacity="0.2" d="M203.373 270.066H203.427C203.438 270.061 203.448 270.054 203.455 270.045C203.462 270.035 203.466 270.024 203.467 270.012C203.47 269.994 203.47 269.976 203.467 269.958V269.913C203.422 269.806 203.319 269.662 203.261 269.536L203.234 269.469C203.232 269.439 203.232 269.409 203.234 269.379C203.234 269.379 203.234 269.352 203.234 269.339L204.202 266.159L204.224 266.082C204.224 266.082 205.456 266.612 205.774 267.67C205.957 268.184 205.967 268.743 205.801 269.263L205.779 269.317H205.801V269.9H207.145C207.239 269.855 207.114 269.738 206.988 269.622L206.957 269.59L206.876 269.505C206.853 269.479 206.834 269.45 206.818 269.42L206.796 269.366V269.335H206.755V269.285C206.923 268.506 206.885 267.696 206.644 266.936C206.404 266.176 205.97 265.492 205.384 264.952V264.952C205.708 263.984 205.708 262.937 205.384 261.969C205.51 261.879 207.951 260.112 207.933 257.824C207.941 257.702 207.941 257.579 207.933 257.456C207.933 257.456 208.144 257.281 207.933 256.963V256.936H207.911H207.763C207.667 256.945 207.573 256.976 207.49 257.026C207.49 257.026 207.351 257.474 207.49 257.591H207.454C207.454 257.591 206.007 260.731 205.039 261.179L204.972 261.139V260.731C204.973 260.713 204.973 260.695 204.972 260.677V260.677C204.973 260.661 204.973 260.644 204.972 260.628C205.081 260.571 205.179 260.497 205.263 260.408V260.408C205.296 260.374 205.325 260.338 205.353 260.3V260.3L205.389 260.246L205.425 260.184L205.452 260.125C205.471 260.083 205.487 260.04 205.501 259.995V259.941V259.874C205.501 259.874 205.501 259.838 205.501 259.82C205.501 259.798 205.501 259.775 205.501 259.749C205.501 259.62 205.478 259.492 205.434 259.372C205.434 259.339 205.42 259.306 205.393 259.273L205.371 259.224L205.34 259.17C205.364 259.14 205.392 259.114 205.425 259.094C205.487 259.059 205.555 259.037 205.626 259.031H205.801H205.837C205.862 259.021 205.886 259.007 205.909 258.99C205.943 258.962 205.982 258.94 206.025 258.928H205.761H205.72H205.685H205.644H205.608H205.573H205.537H205.501H205.465L205.393 258.896C205.431 258.911 205.47 258.92 205.51 258.923H205.662H205.689L205.716 258.901V258.865H205.667H205.635C205.574 258.873 205.513 258.873 205.452 258.865H205.322H205.263L205.21 258.842C205.283 258.869 205.365 258.866 205.436 258.832C205.507 258.799 205.561 258.739 205.588 258.665C205.615 258.591 205.611 258.51 205.578 258.439C205.545 258.368 205.485 258.313 205.411 258.286L205.461 258.255C205.512 258.21 205.544 258.148 205.55 258.08C205.556 258.052 205.556 258.023 205.55 257.995L205.519 258.021H205.492C205.407 258.081 205.304 258.11 205.201 258.102H205.165C205.074 258.079 204.985 258.046 204.901 258.004L204.824 257.977H204.802H204.739H204.703H204.654H204.417C204.082 257.988 203.763 258.122 203.521 258.353C203.465 258.409 203.414 258.469 203.369 258.533C203.336 258.204 203.397 257.873 203.543 257.577H203.516H203.436L203.395 257.654C203.417 257.545 203.458 257.442 203.516 257.349H203.49C203.549 257.282 203.582 257.196 203.582 257.106C203.582 257.017 203.549 256.931 203.49 256.864C203.279 256.546 202.889 256.792 202.889 256.792C202.858 256.896 202.837 257.003 202.826 257.111L202.764 257.084C202.692 257.326 201.895 260.107 203.212 261.884C203.21 261.921 203.21 261.959 203.212 261.996V264.992L202.316 269.101L202.141 269.877L203.4 270.084L203.373 270.066ZM203.597 260.354C203.668 260.413 203.746 260.463 203.83 260.502C203.827 260.53 203.827 260.559 203.83 260.587V260.978L203.754 261.013C203.696 260.821 203.646 260.596 203.593 260.354H203.597Z" fill="url(#paint3_linear_57:3423)"/>
</g>
<path d="M207.947 257.806C207.947 257.806 208.18 257.609 207.947 257.259C207.714 256.909 207.284 257.183 207.284 257.183C207.284 257.183 207.127 257.69 207.284 257.806C207.441 257.923 207.947 257.806 207.947 257.806Z" fill="#CA7070"/>
<path d="M205.537 270.887H206.612C206.608 270.938 206.615 270.989 206.633 271.037C206.651 271.085 206.679 271.129 206.715 271.165C206.858 271.331 207.163 271.533 207.015 271.613H205.537V270.887Z" fill="#00695C"/>
<path opacity="0.2" d="M206.634 271.165C206.598 271.129 206.57 271.085 206.552 271.037C206.534 270.989 206.527 270.938 206.531 270.887H206.607C206.603 270.938 206.61 270.989 206.628 271.037C206.646 271.085 206.674 271.129 206.71 271.165C206.854 271.331 207.158 271.533 207.01 271.613H206.934C207.069 271.533 206.777 271.331 206.634 271.165Z" fill="white"/>
<path d="M201.702 270.667L202.723 270.846C202.696 270.966 202.712 271.092 202.768 271.201C202.88 271.429 203.127 271.725 202.979 271.788L201.523 271.55L201.702 270.667Z" fill="#00695C"/>
<path d="M202.195 257.331C202.195 257.331 201.044 260.969 202.974 262.983L203.534 262.534C203.534 262.534 202.392 258.564 203.032 257.631C201.904 257.277 202.195 257.331 202.195 257.331Z" fill="#00695C"/>
<path d="M202.992 257.649C202.992 257.649 203.225 257.452 202.992 257.102C202.759 256.752 202.329 257.026 202.329 257.026C202.329 257.026 202.172 257.533 202.329 257.649C202.486 257.766 202.992 257.649 202.992 257.649Z" fill="#CA7070"/>
<path opacity="0.2" d="M202.679 271.183C202.622 271.074 202.606 270.948 202.634 270.828L201.702 270.676L202.723 270.846C202.696 270.966 202.712 271.092 202.768 271.201C202.88 271.429 203.127 271.725 202.979 271.788H202.916C203.015 271.681 202.786 271.402 202.679 271.183Z" fill="white"/>
<path d="M203.906 262.341H203.996C204.273 262.341 204.497 262.116 204.497 261.839V261.22C204.497 260.942 204.273 260.717 203.996 260.717H203.906C203.629 260.717 203.404 260.942 203.404 261.22V261.839C203.404 262.116 203.629 262.341 203.906 262.341Z" fill="#CA7070"/>
<path opacity="0.2" d="M203.454 262.772C203.454 262.772 202.325 258.851 202.938 257.887H203.028H203.055C202.414 258.82 203.557 262.79 203.557 262.79L202.997 263.238L202.947 263.185L203.454 262.772Z" fill="white"/>
<path d="M203.928 261.287C204.596 261.287 205.138 260.745 205.138 260.076C205.138 259.407 204.596 258.865 203.928 258.865C203.26 258.865 202.719 259.407 202.719 260.076C202.719 260.745 203.26 261.287 203.928 261.287Z" fill="#CA7070"/>
<path opacity="0.2" d="M204.358 261.794V261.265C204.363 261.226 204.363 261.187 204.358 261.148C204.595 261.027 204.785 260.831 204.9 260.591C205.014 260.35 205.046 260.079 204.991 259.819C204.936 259.558 204.797 259.323 204.595 259.15C204.393 258.977 204.14 258.875 203.875 258.86H203.942C204.213 258.86 204.477 258.951 204.69 259.119C204.904 259.287 205.054 259.521 205.119 259.785C205.183 260.049 205.156 260.327 205.044 260.574C204.931 260.822 204.739 261.024 204.497 261.148C204.502 261.187 204.502 261.226 204.497 261.265V261.794C204.497 261.939 204.44 262.078 204.337 262.181C204.235 262.284 204.096 262.341 203.951 262.341H203.884C204.016 262.324 204.137 262.258 204.225 262.158C204.312 262.057 204.36 261.928 204.358 261.794V261.794Z" fill="white"/>
<path d="M202.701 266.114C202.701 266.114 205.035 266.378 205.12 266.114C205.486 265.036 205.486 263.868 205.12 262.79C205.12 262.631 205.089 262.473 205.028 262.326C204.967 262.179 204.878 262.046 204.766 261.933C204.654 261.821 204.52 261.732 204.373 261.671C204.227 261.61 204.069 261.579 203.911 261.579V261.579C203.59 261.579 203.282 261.706 203.055 261.933C202.828 262.161 202.701 262.469 202.701 262.79V266.114Z" fill="#00695C"/>
<path d="M202.701 266.114L201.648 270.958H202.701L203.794 267.37C203.794 267.37 205.138 267.957 205.51 269.128C205.735 269.719 205.735 270.372 205.51 270.963H206.643V270.909C206.83 270.045 206.787 269.148 206.518 268.306C206.249 267.464 205.764 266.708 205.111 266.114" fill="#263238"/>
<path opacity="0.2" d="M204.963 266.114C205.329 265.036 205.329 263.868 204.963 262.79C204.963 262.482 204.845 262.186 204.635 261.962C204.424 261.738 204.136 261.603 203.83 261.583H203.906C204.227 261.583 204.534 261.711 204.761 261.938C204.988 262.165 205.116 262.473 205.116 262.794C205.481 263.872 205.481 265.041 205.116 266.118C205.084 266.213 204.766 266.239 204.367 266.235C204.712 266.226 204.963 266.195 204.963 266.114Z" fill="white"/>
<path d="M205.138 262.772C205.138 262.772 208.274 260.583 207.947 257.811H207.248C207.248 257.811 205.568 261.444 204.497 261.799C203.427 262.153 205.138 262.772 205.138 262.772Z" fill="#00695C"/>
<g opacity="0.2">
<path opacity="0.2" d="M203.772 267.446L202.701 270.976H202.544L203.637 267.388L203.772 267.446Z" fill="white"/>
<path opacity="0.2" d="M204.963 266.132H205.12C205.773 266.726 206.258 267.482 206.527 268.324C206.796 269.166 206.839 270.063 206.652 270.927V270.981H206.495V270.927C206.682 270.063 206.639 269.166 206.371 268.324C206.102 267.482 205.616 266.726 204.963 266.132Z" fill="white"/>
</g>
<path opacity="0.2" d="M207.83 257.838H207.947C208.26 260.614 205.138 262.799 205.138 262.799L205.062 262.767C205.411 262.512 208.121 260.435 207.83 257.838Z" fill="white"/>
<path d="M204.892 259.533C204.825 259.69 204.778 259.854 204.753 260.022C204.722 260.194 204.656 260.358 204.561 260.504C204.466 260.651 204.342 260.777 204.197 260.874C204.03 260.965 203.845 261.016 203.655 261.022C203.512 261.04 203.367 261.028 203.229 260.986C203.091 260.944 202.963 260.874 202.853 260.78C202.726 260.642 202.641 260.471 202.607 260.287C202.547 260.013 202.556 259.728 202.634 259.458C202.713 259.188 202.857 258.943 203.055 258.744C203.256 258.549 203.507 258.415 203.781 258.357C204.054 258.3 204.338 258.32 204.6 258.416C204.695 258.462 204.794 258.499 204.896 258.524C204.977 258.54 205.06 258.535 205.138 258.51C205.217 258.485 205.287 258.44 205.344 258.38C205.357 258.421 205.36 258.464 205.353 258.506C205.345 258.548 205.329 258.588 205.303 258.622C205.278 258.656 205.245 258.683 205.207 258.702C205.169 258.721 205.127 258.731 205.084 258.73C205.174 258.773 205.271 258.798 205.37 258.804C205.469 258.809 205.568 258.795 205.662 258.762C205.609 258.873 205.516 258.961 205.401 259.007C205.287 259.053 205.159 259.053 205.044 259.008C205.264 259.107 205.502 259.155 205.743 259.152C205.693 259.152 205.595 259.246 205.532 259.264C205.455 259.271 205.377 259.271 205.299 259.264C205.212 259.265 205.128 259.29 205.055 259.338C204.983 259.386 204.926 259.454 204.892 259.533Z" fill="#263238"/>
<g opacity="0.2">
<path opacity="0.2" d="M205.053 258.735C205.143 258.778 205.24 258.802 205.34 258.807C205.21 258.816 205.08 258.791 204.963 258.735C205.001 258.735 205.039 258.727 205.073 258.712C205.108 258.697 205.139 258.675 205.165 258.647C205.191 258.619 205.21 258.586 205.223 258.55C205.235 258.515 205.24 258.477 205.237 258.439L205.299 258.385C205.312 258.424 205.315 258.466 205.308 258.507C205.302 258.548 205.286 258.587 205.263 258.621C205.239 258.655 205.207 258.683 205.171 258.702C205.135 258.722 205.094 258.733 205.053 258.735V258.735Z" fill="white"/>
<path opacity="0.2" d="M204.811 258.524C204.709 258.499 204.61 258.463 204.515 258.416C204.373 258.359 204.221 258.328 204.067 258.322C204.253 258.316 204.437 258.348 204.609 258.416C204.704 258.463 204.803 258.499 204.905 258.524H204.945C204.901 258.531 204.856 258.531 204.811 258.524V258.524Z" fill="white"/>
<path opacity="0.2" d="M205.411 259.264C205.474 259.264 205.573 259.152 205.622 259.152C205.381 259.156 205.143 259.107 204.923 259.008C204.973 259.028 205.026 259.039 205.08 259.04C205.279 259.115 205.49 259.152 205.702 259.147C205.653 259.147 205.555 259.242 205.492 259.26C205.439 259.268 205.384 259.268 205.331 259.26L205.411 259.264Z" fill="white"/>
<path opacity="0.2" d="M203.575 261.022C203.764 261.016 203.95 260.965 204.117 260.874C204.261 260.777 204.385 260.651 204.48 260.505C204.576 260.358 204.641 260.194 204.672 260.022C204.697 259.854 204.744 259.69 204.811 259.533C204.846 259.461 204.9 259.4 204.967 259.355C205.034 259.311 205.112 259.286 205.192 259.282H205.268C205.188 259.286 205.11 259.311 205.043 259.355C204.976 259.4 204.922 259.461 204.887 259.533C204.82 259.69 204.774 259.854 204.748 260.022C204.717 260.194 204.652 260.358 204.557 260.505C204.461 260.651 204.337 260.777 204.193 260.874C204.026 260.965 203.84 261.016 203.651 261.022H203.575Z" fill="white"/>
<path opacity="0.2" d="M205.147 259.044C205.229 259.039 205.309 259.012 205.379 258.968C205.449 258.923 205.506 258.861 205.546 258.789L205.635 258.762C205.592 258.853 205.523 258.929 205.435 258.98C205.348 259.03 205.247 259.053 205.147 259.044V259.044Z" fill="white"/>
</g>
<path opacity="0.2" d="M207.871 257.806C207.871 257.806 208.103 257.609 207.871 257.259C207.84 257.208 207.797 257.165 207.747 257.134C207.696 257.103 207.639 257.084 207.579 257.08C207.651 257.071 207.724 257.084 207.789 257.116C207.854 257.148 207.909 257.197 207.947 257.259C208.18 257.609 207.947 257.806 207.947 257.806C207.8 257.839 207.649 257.855 207.499 257.856C207.624 257.849 207.748 257.833 207.871 257.806Z" fill="white"/>
<path d="M213.21 253.451C213.21 253.451 212.059 257.088 213.99 259.103L214.55 258.654C214.55 258.654 213.408 254.684 214.048 253.751C212.919 253.397 213.21 253.451 213.21 253.451Z" fill="#FF5252"/>
<path d="M214.008 253.773C214.008 253.773 214.241 253.576 214.008 253.226C213.775 252.876 213.345 253.15 213.345 253.15C213.345 253.15 213.188 253.657 213.345 253.773C213.501 253.89 214.008 253.773 214.008 253.773Z" fill="#F6B9AD"/>
<path d="M214.922 258.466H215.011C215.288 258.466 215.513 258.241 215.513 257.963V257.344C215.513 257.067 215.288 256.842 215.011 256.842H214.922C214.644 256.842 214.42 257.067 214.42 257.344V257.963C214.42 258.241 214.644 258.466 214.922 258.466Z" fill="#F6B9AD"/>
<path opacity="0.2" d="M214.469 258.91C214.469 258.91 213.34 254.989 213.954 254.025H214.044H214.07C213.43 254.958 214.572 258.928 214.572 258.928L214.012 259.376L213.963 259.322L214.469 258.91Z" fill="white"/>
<path d="M214.944 257.407C215.612 257.407 216.153 256.865 216.153 256.196C216.153 255.527 215.612 254.985 214.944 254.985C214.276 254.985 213.734 255.527 213.734 256.196C213.734 256.865 214.276 257.407 214.944 257.407Z" fill="#F6B9AD"/>
<path opacity="0.2" d="M215.374 257.914V257.389C215.378 257.35 215.378 257.311 215.374 257.272C215.611 257.151 215.801 256.955 215.915 256.715C216.03 256.475 216.062 256.203 216.007 255.943C215.952 255.683 215.813 255.448 215.611 255.274C215.409 255.101 215.156 254.999 214.89 254.985H214.957C215.229 254.984 215.492 255.075 215.706 255.243C215.919 255.411 216.07 255.646 216.134 255.91C216.198 256.174 216.172 256.452 216.059 256.699C215.947 256.946 215.754 257.148 215.513 257.272C215.517 257.311 215.517 257.35 215.513 257.389V257.918C215.513 258.063 215.455 258.203 215.353 258.305C215.25 258.408 215.111 258.466 214.966 258.466H214.899C215.032 258.448 215.154 258.382 215.242 258.28C215.329 258.179 215.376 258.048 215.374 257.914V257.914Z" fill="white"/>
<path d="M213.716 262.234C213.716 262.234 216.05 262.498 216.135 262.234C216.413 261.381 215.688 260.439 216.041 259.991C216.151 259.832 216.217 259.648 216.233 259.456C216.25 259.264 216.216 259.071 216.135 258.896C216.135 258.737 216.104 258.58 216.043 258.433C215.983 258.286 215.894 258.152 215.781 258.04C215.669 257.927 215.536 257.838 215.389 257.777C215.242 257.716 215.085 257.685 214.926 257.685V257.685C214.605 257.685 214.298 257.813 214.071 258.04C213.844 258.267 213.716 258.575 213.716 258.896V262.234Z" fill="#FF5252"/>
<path opacity="0.2" d="M216.046 260.009C216.155 259.85 216.221 259.666 216.238 259.474C216.254 259.282 216.221 259.089 216.14 258.914C216.14 258.593 216.012 258.285 215.786 258.058C215.559 257.831 215.251 257.703 214.93 257.703H214.854C215.161 257.722 215.449 257.858 215.659 258.082C215.87 258.306 215.987 258.602 215.988 258.91C216.068 259.085 216.102 259.277 216.086 259.469C216.069 259.661 216.003 259.846 215.894 260.004C215.517 260.453 216.265 261.377 215.988 262.247C215.961 262.328 215.719 262.359 215.401 262.364C215.795 262.364 216.113 262.341 216.144 262.247C216.418 261.381 215.67 260.457 216.046 260.009Z" fill="white"/>
<path d="M215.638 262.157C216.538 263.583 216.888 265.287 216.624 266.953V267.006H215.898C216.044 266.404 216.044 265.775 215.898 265.172C215.76 264.469 215.368 263.843 214.796 263.413L214.093 267.002H213.416L214.093 262.157H215.638Z" fill="#F6B9AD"/>
<path d="M219.746 255.186C219.746 255.186 220.028 255.07 219.907 254.662C219.787 254.253 219.298 254.392 219.298 254.392C219.298 254.392 218.998 254.841 219.115 254.989C219.231 255.137 219.746 255.186 219.746 255.186Z" fill="#F6B9AD"/>
<path d="M215.602 259.107C215.602 259.107 219.226 257.932 219.742 255.187L219.07 254.98C219.07 254.98 216.382 257.963 215.271 257.986C214.16 258.008 215.602 259.107 215.602 259.107Z" fill="#FF5252"/>
<path opacity="0.2" d="M219.616 255.191L219.728 255.227C219.213 257.972 215.589 259.147 215.589 259.147L215.526 259.098C215.952 258.945 219.137 257.752 219.616 255.191Z" fill="white"/>
<g opacity="0.2">
<path opacity="0.2" d="M214.63 263.409L213.927 266.997H214.084L214.765 263.508C214.722 263.472 214.677 263.439 214.63 263.409V263.409Z" fill="white"/>
<path opacity="0.2" d="M215.638 262.157H215.481C216.381 263.583 216.732 265.287 216.467 266.953V267.006H216.61V266.953C216.879 265.289 216.533 263.584 215.638 262.157V262.157Z" fill="white"/>
</g>
<path opacity="0.2" d="M219.666 255.146C219.666 255.146 219.948 255.03 219.827 254.621C219.812 254.564 219.785 254.511 219.746 254.466C219.707 254.422 219.658 254.387 219.603 254.366C219.674 254.379 219.74 254.412 219.793 254.461C219.846 254.51 219.885 254.574 219.903 254.644C220.024 255.047 219.742 255.169 219.742 255.169C219.59 255.156 219.44 255.128 219.294 255.083C219.416 255.114 219.54 255.135 219.666 255.146V255.146Z" fill="white"/>
<path d="M213.717 262.104L212.247 265.208C213.106 265.25 213.961 265.354 214.805 265.517C216.431 265.827 217.206 265.069 217.206 265.069L216.162 262.104H213.717Z" fill="#263238"/>
<path d="M216.584 266.989C216.584 266.989 217.359 267.146 217.202 267.437H215.809L215.885 266.989H216.584Z" fill="#FF5252"/>
<path d="M216.042 255.2C216.042 255.2 214.182 257.838 215.034 258.923L211.705 258.847C211.705 258.847 212.632 252.872 216.042 255.2Z" fill="#FFA450"/>
<path opacity="0.2" d="M216.041 255.2C215.66 254.917 215.213 254.735 214.742 254.671C215.062 254.773 215.364 254.925 215.638 255.119C215.638 255.119 213.779 257.757 214.63 258.842L211.701 258.775V258.842L215.029 258.919C214.182 257.838 216.041 255.2 216.041 255.2Z" fill="white"/>
<path opacity="0.2" d="M216.162 262.104H215.929L216.978 265.051C216.544 265.408 215.998 265.598 215.437 265.589C216.081 265.652 216.725 265.459 217.228 265.051L216.162 262.104Z" fill="white"/>
<path opacity="0.2" d="M214.106 266.989H213.949C213.949 266.989 214.724 267.146 214.568 267.437H214.724C214.881 267.141 214.106 266.989 214.106 266.989Z" fill="white"/>
<path opacity="0.2" d="M216.583 266.989H216.427C216.427 266.989 217.202 267.146 217.045 267.437H217.202C217.358 267.141 216.583 266.989 216.583 266.989Z" fill="white"/>
<path d="M325.028 194.14L320.709 169.989L334.386 169.321V194.14H343.744L353.102 167.468" stroke="#B3B3B3" stroke-miterlimit="10"/>
<path d="M340.872 191.615H327.899C321.145 191.615 315.67 197.098 315.67 203.861V206.041C315.67 212.804 321.145 218.287 327.899 218.287H340.872C347.626 218.287 353.102 212.804 353.102 206.041V203.861C353.102 197.098 347.626 191.615 340.872 191.615Z" fill="#597393"/>
<path opacity="0.05" d="M340.147 191.615H329.351C325.822 191.625 322.44 193.034 319.945 195.533C317.45 198.031 316.043 201.417 316.032 204.951V204.951C316.032 205.256 316.032 205.552 316.068 205.848C316.306 202.479 317.807 199.325 320.271 197.019C322.734 194.712 325.978 193.424 329.351 193.414H340.147C343.519 193.424 346.763 194.712 349.227 197.019C351.69 199.325 353.191 202.479 353.429 205.848C353.429 205.552 353.465 205.251 353.465 204.951C353.454 201.417 352.048 198.031 349.552 195.533C347.057 193.034 343.676 191.625 340.147 191.615V191.615Z" fill="black"/>
<path d="M391.166 121.862C391.166 152.661 365.47 177.628 338.113 177.628C310.755 177.628 282.717 152.661 282.717 121.862C282.717 91.0626 310.755 66.095 338.117 66.095C365.479 66.095 391.166 91.0626 391.166 121.862Z" fill="url(#paint4_linear_57:3423)"/>
<path d="M388.63 119.435C388.63 148.794 364.14 172.591 338.059 172.591C311.978 172.591 285.253 148.794 285.253 119.435C285.253 90.0756 311.987 66.2968 338.064 66.2968C364.14 66.2968 388.63 90.0711 388.63 119.435Z" fill="#597393"/>
<path d="M341.692 174.457H329.96V178.561H341.692V174.457Z" fill="#597393"/>
<g opacity="0.2">
<path opacity="0.2" d="M338.064 66.095C337.441 66.095 336.823 66.095 336.2 66.1398C361.568 67.2388 384.908 90.5915 384.908 119.251C384.908 147.91 361.568 171.263 336.218 172.362C336.841 172.389 337.463 172.407 338.082 172.407C364.158 172.407 388.653 148.61 388.653 119.251C388.653 89.8918 364.14 66.095 338.064 66.095Z" fill="black"/>
</g>
<g opacity="0.2">
<path opacity="0.2" d="M288.241 119.435C288.241 90.4973 314.223 66.9517 339.927 66.2968C339.555 66.2968 339.183 66.2968 338.812 66.2968C312.735 66.2968 286.005 90.0936 286.005 119.453C286.005 148.812 312.731 172.609 338.807 172.609C339.179 172.609 339.551 172.609 339.923 172.609C314.209 171.909 288.241 148.386 288.241 119.435Z" fill="white"/>
</g>
<path d="M353.245 165.131H319.531V176.134H353.245V165.131Z" fill="#597393"/>
<path opacity="0.2" d="M319.531 70.15C319.531 70.15 279.487 115.985 319.531 168.72L332.755 168.675C332.755 168.675 296.25 125.109 331.08 66.8485L324.571 68.3333L319.531 70.15Z" fill="white"/>
<path opacity="0.2" d="M354.361 69.4367C354.361 69.4367 394.404 115.972 354.361 168.706L341.137 168.661C341.137 168.661 377.641 124.701 342.812 66.4537L349.33 67.7591L354.361 69.4367Z" fill="white"/>
<rect width="428" height="334" fill="url(#paint5_linear_57:3423)" fill-opacity="0.3"/>
<path d="M302.311 30.5321V32.6181C303.182 31.6684 303.985 31.0069 304.72 30.6338C305.466 30.2494 306.28 30.0572 307.162 30.0572C308.179 30.0572 309.033 30.2946 309.723 30.7695C310.412 31.2444 310.944 31.968 311.317 32.9403C312.221 31.9227 313.086 31.1878 313.912 30.7356C314.748 30.2833 315.619 30.0572 316.523 30.0572C317.62 30.0572 318.491 30.3116 319.135 30.8204C319.791 31.3179 320.243 31.9567 320.492 32.7368C320.752 33.5056 320.882 34.738 320.882 36.4339V42.9294C320.882 44.1504 320.989 44.908 321.204 45.2019C321.43 45.4959 321.894 45.6881 322.595 45.7785V46.3891H314.404V45.7785C315.048 45.722 315.523 45.4733 315.828 45.0323C316.032 44.7271 316.133 44.0261 316.133 42.9294V36.1117C316.133 34.6984 316.077 33.7996 315.964 33.4152C315.851 33.0308 315.67 32.7481 315.421 32.5672C315.184 32.375 314.901 32.2789 314.573 32.2789C314.087 32.2789 313.595 32.4598 313.098 32.8216C312.6 33.1721 312.097 33.7035 311.588 34.4158V42.9294C311.588 44.0713 311.684 44.7892 311.877 45.0832C312.137 45.5015 312.634 45.7333 313.369 45.7785V46.3891H305.161V45.7785C305.602 45.7559 305.946 45.6485 306.195 45.4563C306.455 45.2528 306.625 45.0154 306.704 44.744C306.794 44.4614 306.84 43.8565 306.84 42.9294V36.1117C306.84 34.6758 306.783 33.777 306.67 33.4152C306.557 33.0534 306.365 32.7707 306.093 32.5672C305.833 32.3637 305.551 32.2619 305.245 32.2619C304.793 32.2619 304.381 32.3806 304.007 32.6181C303.476 32.9686 302.911 33.5678 302.311 34.4158V42.9294C302.311 44.0487 302.419 44.7892 302.634 45.151C302.86 45.5015 303.323 45.7107 304.024 45.7785V46.3891H295.85V45.7785C296.517 45.7107 296.992 45.4959 297.275 45.1341C297.467 44.8854 297.563 44.1504 297.563 42.9294V33.9748C297.563 32.7764 297.45 32.0302 297.224 31.7362C297.009 31.4422 296.551 31.25 295.85 31.1596V30.5321H302.311Z" fill="#2E3B4C"/>
<path d="M328.48 22.8495C329.215 22.8495 329.837 23.1095 330.345 23.6296C330.854 24.1384 331.108 24.7546 331.108 25.4782C331.108 26.2018 330.848 26.818 330.328 27.3268C329.82 27.8355 329.203 28.0899 328.48 28.0899C327.756 28.0899 327.14 27.8355 326.631 27.3268C326.122 26.818 325.868 26.2018 325.868 25.4782C325.868 24.7546 326.122 24.1384 326.631 23.6296C327.14 23.1095 327.756 22.8495 328.48 22.8495ZM330.854 30.5321V43.099C330.854 44.2183 330.984 44.9362 331.244 45.2528C331.504 45.5581 332.013 45.7333 332.771 45.7785V46.3891H324.206V45.7785C324.907 45.7559 325.427 45.5524 325.766 45.168C325.992 44.908 326.105 44.2183 326.105 43.099V33.8392C326.105 32.7198 325.975 32.0075 325.715 31.7023C325.455 31.3857 324.952 31.2048 324.206 31.1596V30.5321H330.854Z" fill="#2E3B4C"/>
<path d="M340.809 30.5321V32.5842C341.623 31.7023 342.403 31.0635 343.15 30.6678C343.896 30.2607 344.699 30.0572 345.558 30.0572C346.587 30.0572 347.44 30.3455 348.119 30.9221C348.797 31.4875 349.249 32.1941 349.475 33.0421C349.656 33.6865 349.747 34.9246 349.747 36.7562V42.9294C349.747 44.1504 349.854 44.9136 350.069 45.2189C350.295 45.5128 350.759 45.6994 351.46 45.7785V46.3891H343.438V45.7785C344.037 45.6994 344.467 45.4507 344.727 45.0323C344.908 44.7497 344.998 44.0487 344.998 42.9294V35.8743C344.998 34.5741 344.947 33.7544 344.846 33.4152C344.744 33.076 344.569 32.8159 344.32 32.635C344.082 32.4428 343.817 32.3467 343.523 32.3467C342.55 32.3467 341.646 33.0421 340.809 34.4327V42.9294C340.809 44.1165 340.917 44.8684 341.131 45.185C341.358 45.5015 341.77 45.6994 342.37 45.7785V46.3891H334.348V45.7785C335.015 45.7107 335.49 45.4959 335.772 45.1341C335.965 44.8854 336.061 44.1504 336.061 42.9294V33.9748C336.061 32.7764 335.948 32.0302 335.721 31.7362C335.507 31.4422 335.049 31.25 334.348 31.1596V30.5321H340.809Z" fill="#2E3B4C"/>
<path d="M369.081 23.3922V41.6405C369.081 42.8728 369.114 43.6021 369.182 43.8282C369.273 44.2013 369.442 44.4783 369.691 44.6592C369.951 44.8401 370.398 44.9532 371.031 44.9984V45.5581L364.332 46.8639V44.354C363.529 45.3263 362.811 45.9877 362.178 46.3382C361.556 46.6887 360.85 46.8639 360.058 46.8639C358.034 46.8639 356.434 45.9594 355.259 44.1504C354.309 42.6806 353.834 40.8773 353.834 38.7404C353.834 37.0332 354.128 35.5068 354.716 34.1614C355.304 32.8046 356.107 31.7814 357.124 31.0917C358.153 30.4021 359.255 30.0572 360.431 30.0572C361.189 30.0572 361.861 30.2042 362.449 30.4982C363.037 30.7921 363.665 31.3066 364.332 32.0415V27.2589C364.332 26.0492 364.281 25.3199 364.179 25.0712C364.044 24.7433 363.84 24.5002 363.569 24.3419C363.297 24.1836 362.789 24.1045 362.042 24.1045V23.3922H369.081ZM364.332 34.1444C363.495 32.5389 362.472 31.7362 361.262 31.7362C360.844 31.7362 360.499 31.8493 360.228 32.0754C359.809 32.4259 359.465 33.0421 359.193 33.9239C358.933 34.8058 358.803 36.1569 358.803 37.9772C358.803 39.9784 358.95 41.4596 359.244 42.4206C359.538 43.3816 359.939 44.077 360.448 44.5066C360.708 44.7214 361.064 44.8288 361.517 44.8288C362.512 44.8288 363.45 44.0487 364.332 42.4884V34.1444Z" fill="#2E3B4C"/>
<path d="M379.951 32.1941V43.2007C379.951 44.2635 380.065 44.9306 380.291 45.2019C380.652 45.6203 381.32 45.8125 382.292 45.7785V46.3891H372.947V45.7785C373.66 45.7672 374.163 45.6881 374.457 45.5411C374.762 45.3828 374.971 45.168 375.084 44.8967C375.197 44.6253 375.254 44.06 375.254 43.2007V32.1941H372.947V30.5321H375.254V29.3619L375.237 28.5648C375.237 26.9367 375.83 25.5799 377.017 24.4945C378.216 23.4091 379.833 22.8664 381.868 22.8664C383.259 22.8664 384.287 23.1265 384.954 23.6466C385.633 24.1667 385.972 24.7433 385.972 25.3764C385.972 25.8852 385.763 26.3262 385.345 26.6993C384.926 27.0724 384.372 27.2589 383.683 27.2589C383.095 27.2589 382.625 27.1063 382.275 26.801C381.936 26.4957 381.766 26.1566 381.766 25.7835C381.766 25.6817 381.8 25.4725 381.868 25.156C381.913 24.9638 381.936 24.7829 381.936 24.6133C381.936 24.3758 381.868 24.2006 381.732 24.0875C381.551 23.9179 381.331 23.8331 381.071 23.8331C380.743 23.8331 380.466 23.9688 380.24 24.2402C380.025 24.5115 379.918 24.9468 379.918 25.546L379.951 28.5139V30.5321H382.292V32.1941H379.951Z" fill="#2E3B4C"/>
<path d="M390.772 23.3922V43.099C390.772 44.2183 390.902 44.9362 391.162 45.2528C391.422 45.5581 391.93 45.7333 392.688 45.7785V46.3891H384.123V45.7785C384.824 45.7559 385.345 45.5524 385.684 45.168C385.91 44.908 386.023 44.2183 386.023 43.099V26.6823C386.023 25.5743 385.893 24.8677 385.633 24.5624C385.373 24.2458 384.87 24.0649 384.123 24.0197V23.3922H390.772Z" fill="#2E3B4C"/>
<path d="M397.403 41.1656C398.194 41.1656 398.861 41.4426 399.404 41.9966C399.958 42.5506 400.235 43.2177 400.235 43.9978C400.235 44.7779 399.958 45.445 399.404 45.999C398.85 46.5417 398.183 46.8131 397.403 46.8131C396.623 46.8131 395.955 46.5417 395.401 45.999C394.859 45.445 394.587 44.7779 394.587 43.9978C394.587 43.2177 394.859 42.5506 395.401 41.9966C395.955 41.4426 396.623 41.1656 397.403 41.1656Z" fill="#2E3B4C"/>
<defs>
<linearGradient id="paint0_linear_57:3423" x1="197.796" y1="332.534" x2="197.796" y2="254.904" gradientUnits="userSpaceOnUse">
<stop stop-color="#808080" stop-opacity="0.25"/>
<stop offset="0.54" stop-color="#808080" stop-opacity="0.12"/>
<stop offset="1" stop-color="#808080" stop-opacity="0.1"/>
</linearGradient>
<linearGradient id="paint1_linear_57:3423" x1="14540.2" y1="11830.3" x2="14540.2" y2="14.2937" gradientUnits="userSpaceOnUse">
<stop stop-color="#808080" stop-opacity="0.25"/>
<stop offset="0.54" stop-color="#808080" stop-opacity="0.12"/>
<stop offset="1" stop-color="#808080" stop-opacity="0.1"/>
</linearGradient>
<linearGradient id="paint2_linear_57:3423" x1="1151.41" y1="260.886" x2="1151.41" y2="260.886" gradientUnits="userSpaceOnUse">
<stop stop-color="#808080" stop-opacity="0.25"/>
<stop offset="0.54" stop-color="#808080" stop-opacity="0.12"/>
<stop offset="1" stop-color="#808080" stop-opacity="0.1"/>
</linearGradient>
<linearGradient id="paint3_linear_57:3423" x1="-15564.7" y1="9146.32" x2="-15564.7" y2="8746.59" gradientUnits="userSpaceOnUse">
<stop stop-color="#808080" stop-opacity="0.25"/>
<stop offset="0.54" stop-color="#808080" stop-opacity="0.12"/>
<stop offset="1" stop-color="#808080" stop-opacity="0.1"/>
</linearGradient>
<linearGradient id="paint4_linear_57:3423" x1="99039.3" y1="50566.1" x2="99039.3" y2="22834.5" gradientUnits="userSpaceOnUse">
<stop stop-color="#808080" stop-opacity="0.25"/>
<stop offset="0.54" stop-color="#808080" stop-opacity="0.12"/>
<stop offset="1" stop-color="#808080" stop-opacity="0.1"/>
</linearGradient>
<linearGradient id="paint5_linear_57:3423" x1="260.791" y1="244.957" x2="260.791" y2="0" gradientUnits="userSpaceOnUse">
<stop stop-color="#2E3B4C"/>
<stop offset="1" stop-color="#2E3B4C" stop-opacity="0"/>
</linearGradient>
</defs>
</svg>
