<svg width="428" height="400" viewBox="0 0 428 400" fill="none" xmlns="http://www.w3.org/2000/svg">
<path d="M258.679 282.329C266.591 274.698 270.67 263.266 266.42 253.596C260.232 263.327 250.045 270.99 238.235 274.8C233.635 276.284 228.345 277.508 225.843 281.25C224.286 283.579 224.173 286.495 224.874 289.132C225.576 291.769 227.02 294.195 228.45 296.587L228.458 297.264C239.654 294.345 250.767 289.96 258.679 282.329Z" fill="#F2F2F2"/>
<path d="M266.701 253.808C265.362 262.218 260.979 270.304 254.279 276.4C252.825 277.779 251.174 278.926 249.384 279.802C247.541 280.634 245.532 281.012 243.519 280.906C241.623 280.845 239.692 280.588 237.812 280.935C236.89 281.1 236.01 281.453 235.225 281.973C234.44 282.493 233.766 283.168 233.243 283.96C231.997 285.828 231.583 287.981 231.261 290.099C230.903 292.451 230.574 294.899 229.055 296.922C228.871 297.167 229.311 297.406 229.495 297.161C232.138 293.641 231.254 289.143 233.037 285.347C233.869 283.576 235.31 282.016 237.462 281.481C239.345 281.013 241.337 281.277 243.256 281.354C245.223 281.482 247.194 281.178 249.035 280.463C250.87 279.672 252.567 278.584 254.061 277.241C257.331 274.392 260.126 271.02 262.336 267.257C264.788 263.135 266.445 258.574 267.217 253.818C267.263 253.527 266.747 253.519 266.701 253.808V253.808Z" fill="white"/>
<path d="M255.514 274.436C257.01 275.161 258.758 275.504 260.515 275.416C262.271 275.328 263.949 274.815 265.315 273.946C265.574 273.772 265.188 273.491 264.929 273.665C263.659 274.475 262.096 274.954 260.46 275.033C258.824 275.112 257.198 274.789 255.81 274.108C255.516 273.961 255.222 274.29 255.514 274.436V274.436Z" fill="white"/>
<path d="M244.247 280.608C243.984 279.13 244.026 277.61 244.372 276.15C244.718 274.689 245.359 273.321 246.253 272.135C246.434 271.888 245.998 271.647 245.816 271.894C244.888 273.13 244.224 274.555 243.868 276.076C243.512 277.596 243.471 279.178 243.749 280.716C243.804 281.008 244.301 280.899 244.247 280.608Z" fill="white"/>
<path d="M263.466 263.125C262.932 262.893 262.456 262.499 262.082 261.98C261.709 261.461 261.45 260.834 261.331 260.158C261.283 259.828 260.807 259.951 260.855 260.279C260.99 261.024 261.276 261.716 261.687 262.291C262.099 262.865 262.623 263.304 263.21 263.567C263.266 263.601 263.329 263.611 263.39 263.596C263.452 263.58 263.507 263.54 263.546 263.482C263.563 263.453 263.574 263.42 263.579 263.385C263.583 263.35 263.582 263.315 263.574 263.281C263.566 263.247 263.553 263.215 263.534 263.188C263.515 263.162 263.492 263.14 263.466 263.125V263.125Z" fill="white"/>
<path d="M228.211 242.679C228.237 242.859 228.263 243.04 228.286 243.224C228.622 245.651 228.731 248.105 228.613 250.553C228.607 250.742 228.598 250.934 228.586 251.123C228.211 257.079 226.596 262.89 223.846 268.179C222.727 270.338 221.435 272.403 219.982 274.351C217.959 277.07 215.517 279.878 214.665 282.932C214.573 283.248 214.502 283.571 214.455 283.897L226.829 296.681C226.874 296.697 226.916 296.717 226.961 296.733L227.428 297.264C227.512 297.167 227.596 297.065 227.68 296.968C227.728 296.912 227.775 296.853 227.823 296.797C227.855 296.758 227.887 296.72 227.918 296.687C227.928 296.674 227.939 296.661 227.946 296.651C227.977 296.618 228.002 296.585 228.03 296.554C228.503 295.985 228.973 295.411 229.439 294.834C229.443 294.831 229.443 294.831 229.443 294.826C232.982 290.418 236.13 285.714 238.361 280.742C238.428 280.593 238.498 280.441 238.56 280.285C239.545 278.056 240.325 275.741 240.89 273.369C241.191 272.081 241.418 270.777 241.569 269.463C241.951 266.07 241.719 262.636 240.885 259.326C239.218 252.695 235.142 246.603 228.706 242.953C228.541 242.86 228.379 242.77 228.211 242.679Z" fill="#F2F2F2"/>
<path d="M228.086 243.047C232.794 250.411 234.818 259.127 233.598 267.493C233.377 269.334 232.83 271.122 231.982 272.772C231.039 274.431 229.663 275.804 228.001 276.746C226.426 277.699 224.687 278.516 223.406 279.784C222.776 280.402 222.302 281.16 222.022 281.996C221.742 282.831 221.664 283.721 221.795 284.593C222.073 286.73 223.221 288.653 224.42 290.5C225.75 292.55 227.169 294.662 227.334 297.066C227.354 297.357 227.874 297.313 227.854 297.022C227.568 292.84 223.755 289.747 222.583 285.8C222.037 283.958 222.127 281.962 223.499 280.401C224.699 279.036 226.492 278.192 228.097 277.239C229.737 276.335 231.131 275.045 232.157 273.48C233.097 271.877 233.723 270.11 234 268.273C234.682 264.204 234.62 260.046 233.817 255.999C232.904 251.297 231.103 246.812 228.51 242.782C228.347 242.527 227.924 242.794 228.086 243.047V243.047Z" fill="white"/>
<path d="M233.844 264.513C237.346 264.481 240.334 262.252 240.834 259.314C240.884 259.025 240.356 258.946 240.307 259.236C239.838 261.988 237.066 264.031 233.793 264.06C233.449 264.063 233.502 264.516 233.844 264.513V264.513Z" fill="white"/>
<path d="M228.93 275.982C227.802 275.161 226.868 274.14 226.185 272.98C225.503 271.82 225.086 270.546 224.959 269.234C224.939 268.98 224.443 269.018 224.463 269.272C224.598 270.637 225.035 271.962 225.749 273.168C226.462 274.374 227.436 275.435 228.613 276.287C228.846 276.462 229.162 276.156 228.93 275.982V275.982Z" fill="white"/>
<path d="M233.258 252.022C232.594 252.179 231.908 252.164 231.249 251.977C230.591 251.79 229.976 251.437 229.448 250.942C229.194 250.692 228.846 251.122 229.098 251.37C229.683 251.914 230.363 252.304 231.091 252.512C231.818 252.72 232.576 252.742 233.311 252.575C233.457 252.542 233.572 252.435 233.558 252.272C233.545 252.194 233.507 252.125 233.451 252.078C233.395 252.032 233.326 252.012 233.258 252.023V252.022Z" fill="white"/>
<path d="M199.899 296.781C184.391 307.361 168.973 310.046 156.484 304.342C140.457 297.022 130.749 276.867 129.848 249.047L130.798 249.136C131.686 276.569 141.165 296.399 156.803 303.543C168.958 309.094 184.043 306.426 199.281 296.03L199.899 296.781Z" fill="#F2F2F2"/>
<path d="M295.902 117.736C294.342 134.599 289.898 152.379 282.928 169.535C274.309 190.75 262.533 209.437 248.874 223.574L248.115 222.925C261.709 208.856 273.432 190.252 282.015 169.125C289.772 150.032 294.386 130.163 295.363 111.675L296.332 111.834C296.229 113.787 296.086 115.754 295.902 117.736Z" fill="#F2F2F2"/>
<path d="M254.484 93.6323L253.565 93.7321C249.47 77.7636 241.531 66.7008 230.607 61.7395C216.72 55.4328 199.548 59.6679 182.254 73.6648C164.873 87.7332 149.486 109.955 138.927 136.238L138.036 135.834C148.641 109.436 164.107 87.1063 181.586 72.9597C199.152 58.7416 216.675 54.4755 230.925 60.9474C242.163 66.0509 250.309 77.3532 254.484 93.6323Z" fill="#F2F2F2"/>
<path d="M305.43 234.107C286.656 263.69 263.879 284.827 241.294 293.624L240.838 292.795C263.266 284.058 285.909 263.029 304.597 233.581L305.43 234.107Z" fill="#F2F2F2"/>
<path d="M334.551 166.877C334.213 170.269 333.78 173.702 333.251 177.177L332.223 176.95C336.17 151.019 334.77 127.242 328.173 108.187L329.164 108.036C334.918 124.658 336.747 144.834 334.551 166.877Z" fill="#F2F2F2"/>
<path d="M138.946 142.148C136.547 147.197 134.265 152.429 132.164 157.697C120.073 188.011 113.946 218.969 114.446 247.227L113.501 247.127C113 218.763 119.145 187.698 131.274 157.289C133.381 152.007 135.67 146.761 138.075 141.697L138.946 142.148Z" fill="#F2F2F2"/>
<path d="M199.899 317.705C184.391 328.286 168.973 330.971 156.484 325.266C140.457 317.946 130.749 297.792 129.848 269.971L130.798 270.06C131.686 297.493 141.165 317.324 156.803 324.467C168.958 330.018 184.043 327.35 199.281 316.954L199.899 317.705Z" fill="#F2F2F2"/>
<path d="M295.001 138.611C293.47 155.336 289.11 172.972 282.272 189.989C273.815 211.032 262.261 229.566 248.859 243.588L248.115 242.945C261.453 228.99 272.954 210.538 281.375 189.582C288.986 170.644 293.513 150.937 294.472 132.599L295.422 132.757C295.322 134.694 295.181 136.645 295.001 138.611Z" fill="#F2F2F2"/>
<path d="M293.603 115.881L292.677 115.982C288.55 99.8274 280.549 88.636 269.54 83.617C255.544 77.2369 238.238 81.5212 220.809 95.6809C203.292 109.913 187.784 132.393 177.144 158.982L176.246 158.573C186.933 131.868 202.52 109.279 220.136 94.9677C237.839 80.5842 255.499 76.2685 269.86 82.8156C281.186 87.9785 289.395 99.4122 293.603 115.881Z" fill="#F2F2F2"/>
<path d="M303.61 262.309C285.1 291.892 262.644 313.029 240.378 321.827L239.928 320.997C262.04 312.261 284.364 291.231 302.789 261.783L303.61 262.309Z" fill="#F2F2F2"/>
<path d="M333.754 188.575C333.458 192.012 333.079 195.49 332.617 199.011L331.717 198.781C335.17 172.508 333.945 148.419 328.173 129.113L329.04 128.96C334.075 145.801 335.675 166.242 333.754 188.575Z" fill="#F2F2F2"/>
<path d="M138.036 162.162C135.723 167.212 133.523 172.443 131.497 177.711C119.837 208.025 113.929 238.984 114.412 267.242L113.5 267.141C113.017 238.778 118.942 207.713 130.638 177.304C132.67 172.021 134.877 166.775 137.197 161.711L138.036 162.162Z" fill="#F2F2F2"/>
<path d="M319.271 147.717C320.317 146.145 319.698 143.895 317.889 142.691C316.079 141.487 313.764 141.786 312.719 143.358C311.673 144.93 312.292 147.18 314.101 148.384C315.911 149.587 318.225 149.289 319.271 147.717Z" fill="#DDEAF3"/>
<path d="M199.122 167.705C201.328 164.474 204.93 161.936 208.942 161.721C212.954 161.507 217.775 164.771 219.755 168.13C223.377 174.274 221.806 180.182 216.817 184.455C216.14 184.235 213.774 183.572 213.086 183.36L212.649 182.607L212.11 183.065C205.945 183.652 199.99 182.998 195.35 178.609C195.927 174.789 196.916 170.935 199.122 167.705Z" fill="#2F2E41"/>
<path d="M215.365 212.657L214.634 219.348L215.064 228.123L195.38 225.814L193.531 212.657L195.887 212.68L215.365 212.657Z" fill="#FFB6B6"/>
<path d="M207.632 183.545C211.903 183.545 215.365 180.083 215.365 175.812C215.365 171.542 211.903 168.079 207.632 168.079C203.361 168.079 199.899 171.542 199.899 175.812C199.899 180.083 203.361 183.545 207.632 183.545Z" fill="#FFB7B7"/>
<path d="M199.027 190.878L203.599 188.108L212.742 187.184L220.823 191.34L220.742 204.037L215.615 217.206L194.129 214.435L193.312 209.79C193.312 209.79 187.369 201.728 193.77 197.111L199.027 190.878Z" fill="#597393"/>
<path d="M204.308 163.011C206.057 162.503 207.906 162.491 209.661 162.976C211.416 163.461 213.013 164.426 214.285 165.768C215.556 167.111 216.456 168.782 216.89 170.608C217.324 172.434 217.277 174.346 216.752 176.146C211.835 176.553 206.975 176.077 203.145 172.477L202.804 169.389L201.406 171.973C199.996 171.563 198.584 171.15 197.17 170.734C197.602 168.913 198.489 167.241 199.742 165.886C200.994 164.53 202.569 163.539 204.308 163.011V163.011Z" fill="#2F2E41"/>
<path d="M171.12 152.863C170.902 153.331 170.788 153.842 170.787 154.36C170.786 154.878 170.898 155.389 171.115 155.858C171.331 156.328 171.648 156.743 172.041 157.076C172.435 157.409 172.896 157.651 173.392 157.785L188.388 186.274L194.441 181.571L177.797 155.046C177.966 154.191 177.817 153.304 177.379 152.553C176.941 151.801 176.245 151.237 175.421 150.968C174.598 150.699 173.706 150.743 172.913 151.093C172.12 151.442 171.482 152.072 171.12 152.863H171.12Z" fill="#FFB6B6"/>
<path d="M195.231 196.06C195.231 196.06 193.802 197.314 191.769 193.852C190.141 191.081 182.025 178.671 180.876 174.369C180.246 174.387 179.627 174.197 179.118 173.828C178.609 173.46 178.239 172.935 178.065 172.335L186.783 168.989C188.678 169.926 188.152 171.225 187.672 171.897L190.918 176.713L201.718 188.698L196.281 195.172L195.231 196.06Z" fill="#597393"/>
<path d="M339.54 342.751H88.4597C88.3378 342.751 88.2209 342.703 88.1346 342.618C88.0484 342.532 88 342.417 88 342.296C88 342.175 88.0484 342.06 88.1346 341.974C88.2209 341.889 88.3378 341.841 88.4597 341.841H339.54C339.662 341.841 339.779 341.889 339.865 341.974C339.952 342.06 340 342.175 340 342.296C340 342.417 339.952 342.532 339.865 342.618C339.779 342.703 339.662 342.751 339.54 342.751Z" fill="#CCCCCC"/>
<path d="M279.787 86.5485C275.251 82.0769 269.194 79.6089 263.12 78.03C256.245 76.2427 249.135 75.1899 242.111 74.1798C234.791 73.1271 227.441 72.3152 220.063 71.7439C212.694 71.1757 205.313 70.8504 197.917 70.7681C191.328 70.6943 184.694 70.692 178.137 71.4232C171.961 72.112 165.799 73.4941 160.231 76.3315C155.274 78.8029 151.11 82.6152 148.212 87.3353C145.547 91.7288 143.962 96.9956 144.513 102.16C144.772 104.703 145.563 107.163 146.837 109.38C148.329 111.829 150.231 114.003 152.46 115.809C157.06 119.694 162.561 122.535 166.519 127.153C167.564 128.363 168.477 129.681 169.242 131.085C169.817 132.15 170.464 133.066 171.533 133.687C172.487 134.232 173.581 134.482 174.677 134.405C175.773 134.329 176.822 133.93 177.691 133.258C178.924 132.29 179.81 130.798 180.764 129.57L184.09 125.288C184.331 124.904 184.61 124.545 184.922 124.217C185.146 124.032 184.776 124.195 184.85 124.149C184.89 124.123 184.961 124.137 185.005 124.119C185.227 124.056 185.454 124.014 185.683 123.993C188.113 123.547 190.547 123.129 192.987 122.74C201.995 121.286 211.061 120.087 220.165 119.44C224.858 119.066 229.568 118.953 234.273 119.104C240.357 119.353 246.357 120.561 252.418 121.083C258.945 121.644 265.8 121.566 271.95 119.049C276.872 117.034 281.442 113.645 284.107 108.964C285.372 106.749 286.121 104.279 286.299 101.735C286.625 95.9652 283.82 90.5244 279.787 86.5485Z" fill="#E6E6E6"/>
<path d="M193.901 75.2852C192.745 75.2852 191.589 75.2913 190.434 75.3035C179.345 75.4212 167.883 76.3175 159.186 82.0322C151.466 87.1046 146.056 98.4033 150.635 106.506C152.737 110.227 156.547 112.935 160.58 115.803C162.16 116.927 163.795 118.089 165.362 119.34C168.785 122.075 172.007 125.744 173.862 129.87L182.005 119.393L183.544 119.099C185.024 118.815 220.009 112.183 238.641 114.337C240.354 114.535 242.087 114.762 243.762 114.983C251.331 115.978 258.48 116.918 265.344 115.53C272.509 114.081 280.377 108.549 280.845 101.151C281.166 96.0858 277.87 90.5296 272.448 86.9955C266.967 83.4223 260.13 81.947 253.597 80.742C233.906 77.1147 213.924 75.2882 193.901 75.2852V75.2852Z" fill="white"/>
<path d="M257.306 91.6606H177.972C177.514 91.6606 177.075 91.4689 176.751 91.1277C176.427 90.7865 176.246 90.3237 176.246 89.8411C176.246 89.3585 176.427 88.8957 176.751 88.5545C177.075 88.2133 177.514 88.0216 177.972 88.0216H257.306C257.764 88.0216 258.203 88.2133 258.527 88.5545C258.851 88.8957 259.033 89.3585 259.033 89.8411C259.033 90.3237 258.851 90.7865 258.527 91.1277C258.203 91.4689 257.764 91.6606 257.306 91.6606Z" fill="#597393"/>
<path d="M257.306 101.668H177.972C177.514 101.668 177.075 101.476 176.751 101.135C176.427 100.794 176.246 100.331 176.246 99.8484C176.246 99.3659 176.427 98.9031 176.751 98.5619C177.075 98.2206 177.514 98.0289 177.972 98.0289H257.306C257.764 98.0289 258.203 98.2206 258.527 98.5619C258.851 98.9031 259.033 99.3659 259.033 99.8484C259.033 100.331 258.851 100.794 258.527 101.135C258.203 101.476 257.764 101.668 257.306 101.668V101.668Z" fill="#597393"/>
<path d="M187.251 112.585H177.977C177.518 112.585 177.077 112.393 176.753 112.052C176.428 111.711 176.246 111.248 176.246 110.765C176.246 110.283 176.428 109.82 176.753 109.479C177.077 109.137 177.518 108.946 177.977 108.946H187.251C187.71 108.946 188.15 109.137 188.475 109.479C188.8 109.82 188.982 110.283 188.982 110.765C188.982 111.248 188.8 111.711 188.475 112.052C188.15 112.393 187.71 112.585 187.251 112.585Z" fill="#597393"/>
<path d="M173.516 153.523C177.536 153.523 180.794 150.265 180.794 146.246C180.794 142.226 177.536 138.968 173.516 138.968C169.497 138.968 166.238 142.226 166.238 146.246C166.238 150.265 169.497 153.523 173.516 153.523Z" fill="#E6E6E6"/>
<path d="M152.223 235.957C153.269 234.385 152.65 232.135 150.84 230.931C149.031 229.727 146.716 230.026 145.671 231.598C144.625 233.17 145.244 235.42 147.053 236.624C148.863 237.828 151.177 237.529 152.223 235.957Z" fill="#F2F2F2"/>
<path d="M308.669 235.461C309.714 233.889 309.095 231.639 307.286 230.435C305.477 229.231 303.162 229.53 302.116 231.102C301.07 232.674 301.689 234.924 303.499 236.128C305.308 237.331 307.623 237.033 308.669 235.461Z" fill="#E6E6E6"/>
<path d="M249.611 178.719C250.656 177.147 250.037 174.897 248.228 173.693C246.418 172.489 244.104 172.788 243.058 174.36C242.012 175.932 242.631 178.182 244.441 179.386C246.25 180.589 248.565 180.291 249.611 178.719Z" fill="#E6E6E6"/>
<path d="M225.372 334.563H221.673L219.913 317.278H225.372V334.563Z" fill="#FFB6B6"/>
<path d="M228.101 341.841H224.934L224.369 338.9L222.922 341.841H214.523C214.121 341.841 213.729 341.715 213.404 341.48C213.08 341.245 212.841 340.915 212.721 340.536C212.601 340.158 212.607 339.752 212.738 339.378C212.87 339.004 213.119 338.68 213.45 338.455L220.157 333.898V330.924L227.211 331.338L228.101 341.841Z" fill="#2F2E41"/>
<path d="M201.718 334.563H197.403L195.35 317.278H201.718V334.563Z" fill="#FFB6B6"/>
<path d="M203.538 341.841H200.558L200.026 338.9L198.663 341.841H190.759C190.38 341.841 190.011 341.715 189.706 341.48C189.401 341.245 189.175 340.915 189.062 340.536C188.95 340.158 188.956 339.752 189.079 339.378C189.203 339.004 189.437 338.68 189.749 338.455L196.061 333.898V330.924L202.701 331.338L203.538 341.841Z" fill="#2F2E41"/>
<path d="M227.877 319.583H227.83L227.005 292.955C227.539 291.936 227.81 290.801 227.794 289.653C227.778 288.506 227.475 287.379 226.913 286.375L226.795 286.163L227.101 284.758C227.495 282.953 227.314 281.072 226.584 279.372L225.815 254.533C228.564 236.896 215.46 225.394 215.46 225.394H195.83L191.616 239.725C188.83 266.59 189.335 292.769 193.756 318.132L193.636 318.193C193.202 318.341 193.015 318.936 193.22 319.522C193.424 320.108 193.941 320.462 194.375 320.314L204.743 319.957C205.177 319.809 205.363 319.214 205.158 318.628C204.954 318.042 204.437 317.688 204.003 317.836L203.298 318.189L204.801 292.494L204.634 287.801L204.978 282.476L206.567 258.527L212.582 287.978L218.726 319.879C218.556 320.031 218.437 320.23 218.385 320.45C218.332 320.67 218.348 320.901 218.431 321.112C218.513 321.323 218.658 321.504 218.847 321.632C219.036 321.76 219.259 321.827 219.488 321.827H227.877C228.178 321.827 228.466 321.709 228.679 321.498C228.891 321.288 229.011 321.002 229.011 320.705C229.011 320.407 228.891 320.122 228.679 319.911C228.466 319.701 228.178 319.583 227.877 319.583H227.877Z" fill="#2F2E41"/>
<path d="M218.008 245.774C218.442 245.501 218.813 245.135 219.094 244.7C219.375 244.266 219.558 243.774 219.632 243.259C219.706 242.744 219.668 242.219 219.521 241.721C219.374 241.223 219.122 240.764 218.782 240.376L221.733 208.108L214.16 208.704L213.641 240.234C213.039 240.859 212.682 241.688 212.64 242.562C212.597 243.437 212.871 244.297 213.409 244.98C213.947 245.663 214.713 246.121 215.56 246.267C216.408 246.414 217.279 246.238 218.008 245.774V245.774Z" fill="#FFB6B6"/>
<path d="M220.483 190.827C220.483 190.827 222.292 190.557 222.082 194.503C221.915 197.662 222.712 217.133 221.35 221.3C221.864 221.623 222.257 222.111 222.469 222.687C222.681 223.264 222.699 223.896 222.52 224.484L213.77 222.581C212.751 220.793 212.962 218.957 213.703 218.66L213.659 212.946L211.726 194.111L219.173 190.999L220.483 190.827Z" fill="#597393"/>
</svg>
