<svg width="428" height="400" viewBox="0 0 428 400" fill="none" xmlns="http://www.w3.org/2000/svg">
<path d="M279.48 323.69L275.567 329.922L277.846 321.809C273.034 316.721 266.372 313 266.372 313C266.372 313 258.169 326.659 260.377 335.061C262.585 343.462 268.286 345.066 274.367 343.426C280.449 341.786 284.608 337.522 282.4 329.12C281.909 327.25 280.841 325.414 279.48 323.69Z" fill="#F2F2F2"/>
<path d="M274.706 330.797L274.823 331.204C276.159 335.945 276.359 339.851 275.415 342.869C275.402 342.913 275.386 342.956 275.373 343L275.153 342.94L274.942 342.88C276.012 339.608 275.534 335.475 274.37 331.34C274.334 331.206 274.297 331.07 274.256 330.936C273.747 329.189 273.123 327.45 272.443 325.778C272.392 325.648 272.338 325.516 272.283 325.385C271.374 323.182 270.381 321.108 269.46 319.32C269.396 319.194 269.329 319.068 269.263 318.944C267.692 315.924 266.36 313.784 266.061 313.311C266.025 313.253 266.004 313.221 266 313.214L266.191 313.109L266.193 313.106L266.386 313C266.391 313.008 266.461 313.113 266.584 313.312C267.046 314.053 268.276 316.071 269.693 318.784C269.757 318.906 269.823 319.032 269.888 319.159C270.636 320.609 271.43 322.24 272.185 323.971C272.375 324.406 272.557 324.836 272.731 325.262C272.787 325.393 272.841 325.524 272.893 325.654C273.628 327.461 274.232 329.176 274.706 330.797Z" fill="white"/>
<path d="M269.795 318.696C269.662 318.749 269.526 318.803 269.388 318.854C269.013 318.992 268.63 319.111 268.242 319.211C266.588 319.64 264.856 319.704 263.174 319.398C263.116 319.526 263.059 319.654 263 319.785C264.774 320.122 266.605 320.062 268.352 319.61C268.766 319.503 269.174 319.375 269.574 319.227C269.711 319.177 269.846 319.122 269.978 319.067C271.074 318.615 272.093 318.004 273 317.256C272.881 317.169 272.765 317.084 272.652 317C271.791 317.698 270.828 318.27 269.795 318.696Z" fill="white"/>
<path d="M273.236 325.161C273.094 325.201 272.951 325.237 272.807 325.269C272.764 325.281 272.718 325.291 272.674 325.301C270.859 325.711 268.954 325.743 267.121 325.393C265.289 325.044 263.583 324.323 262.149 323.294C262.099 323.417 262.048 323.54 262 323.665C263.482 324.7 265.233 325.42 267.109 325.766C268.985 326.112 270.93 326.074 272.785 325.655C272.844 325.642 272.902 325.629 272.96 325.614C273.106 325.579 273.248 325.543 273.391 325.505C275.588 324.905 277.536 323.781 279 322.268C278.9 322.178 278.801 322.089 278.699 322C277.28 323.482 275.381 324.581 273.236 325.161Z" fill="white"/>
<path d="M274.462 330.885C274.325 330.937 274.187 330.985 274.048 331.031C273.899 331.079 273.75 331.126 273.6 331.168C271.258 331.823 268.778 331.659 266.532 330.702C264.285 329.745 262.392 328.046 261.137 325.859C261.09 326.056 261.043 326.25 261 326.446C262.337 328.604 264.284 330.262 266.565 331.186C268.846 332.11 271.345 332.251 273.707 331.59C273.857 331.548 274.007 331.504 274.153 331.454C274.294 331.41 274.432 331.362 274.569 331.312C277.342 330.282 279.641 328.179 281 325.428C280.918 325.284 280.831 325.143 280.744 325C279.455 327.749 277.201 329.86 274.462 330.885Z" fill="white"/>
<path d="M258.48 181.69L254.567 187.922L256.846 179.809C252.034 174.721 245.372 171 245.372 171C245.372 171 237.169 184.659 239.377 193.061C241.585 201.462 247.286 203.066 253.367 201.426C259.449 199.786 263.608 195.522 261.4 187.12C260.909 185.25 259.841 183.414 258.48 181.69Z" fill="#F2F2F2"/>
<path d="M254.577 188.39L254.706 188.811C256.175 193.71 256.395 197.746 255.356 200.864C255.342 200.91 255.324 200.954 255.31 201L255.068 200.938L254.836 200.876C256.013 197.495 255.488 193.224 254.207 188.951C254.167 188.813 254.127 188.673 254.082 188.534C253.521 186.729 252.835 184.931 252.087 183.203C252.031 183.069 251.971 182.934 251.912 182.798C250.912 180.522 249.819 178.378 248.806 176.531C248.736 176.4 248.662 176.27 248.59 176.142C246.861 173.021 245.396 170.81 245.067 170.322C245.028 170.262 245.005 170.229 245 170.221L245.21 170.112L245.212 170.11L245.425 170C245.43 170.008 245.507 170.117 245.642 170.322C246.151 171.088 247.503 173.174 249.063 175.976C249.132 176.103 249.206 176.233 249.276 176.364C250.1 177.863 250.973 179.548 251.803 181.337C252.013 181.786 252.213 182.231 252.404 182.671C252.466 182.806 252.526 182.941 252.582 183.076C253.39 184.943 254.055 186.715 254.577 188.39Z" fill="white"/>
<path d="M249.115 176.261C248.995 176.332 248.874 176.404 248.749 176.472C248.411 176.656 248.067 176.815 247.718 176.948C246.229 177.52 244.671 177.605 243.157 177.197C243.105 177.368 243.053 177.539 243 177.713C244.597 178.163 246.244 178.083 247.816 177.48C248.189 177.338 248.557 177.167 248.917 176.969C249.04 176.902 249.161 176.83 249.281 176.756C250.267 176.153 251.184 175.339 252 174.342C251.893 174.226 251.789 174.112 251.686 174C250.912 174.931 250.045 175.693 249.115 176.261V176.261Z" fill="white"/>
<path d="M252.236 182.951C252.094 183.001 251.951 183.046 251.807 183.087C251.764 183.101 251.718 183.114 251.674 183.127C249.859 183.639 247.954 183.678 246.121 183.241C244.289 182.805 242.583 181.904 241.149 180.617C241.099 180.772 241.048 180.926 241 181.081C242.482 182.374 244.233 183.275 246.109 183.707C247.985 184.14 249.93 184.092 251.785 183.569C251.844 183.552 251.902 183.536 251.96 183.517C252.106 183.474 252.248 183.429 252.391 183.382C254.588 182.632 256.536 181.227 258 179.334C257.9 179.223 257.801 179.111 257.699 179C256.28 180.853 254.381 182.226 252.236 182.951V182.951Z" fill="white"/>
<path d="M254.135 188.885C253.991 188.937 253.846 188.985 253.7 189.031C253.544 189.079 253.388 189.126 253.23 189.168C250.771 189.823 248.167 189.659 245.808 188.702C243.449 187.745 241.462 186.046 240.144 183.859C240.095 184.056 240.045 184.25 240 184.446C241.404 186.604 243.448 188.262 245.843 189.186C248.239 190.11 250.862 190.251 253.342 189.59C253.5 189.548 253.657 189.504 253.81 189.454C253.959 189.41 254.104 189.362 254.248 189.312C257.16 188.282 259.573 186.179 261 183.428C260.914 183.284 260.823 183.143 260.731 183C259.377 185.749 257.011 187.86 254.135 188.885V188.885Z" fill="white"/>
<path d="M149.153 334.421L141.947 334.453L149.825 332.087C151.429 325.449 150.925 318 150.925 318C150.925 318 135.33 318.378 129.612 324.601C123.895 330.823 125.624 336.37 130.22 340.533C134.816 344.696 140.538 345.898 146.256 339.676C147.528 338.291 148.465 336.448 149.153 334.421Z" fill="#F2F2F2"/>
<path d="M141.115 334.397L140.829 334.73C137.487 338.579 134.279 341.002 131.247 341.959C131.203 341.974 131.159 341.985 131.115 342L131.055 341.782L131 341.572C134.309 340.573 137.57 337.788 140.486 334.431C140.581 334.324 140.678 334.215 140.771 334.103C141.994 332.671 143.153 331.147 144.227 329.616C144.311 329.498 144.395 329.377 144.479 329.256C145.887 327.228 147.144 325.203 148.194 323.405C148.269 323.279 148.343 323.15 148.414 323.024C150.181 319.972 151.323 317.629 151.572 317.107C151.604 317.044 151.62 317.008 151.624 317L151.81 317.098L151.813 317.098L152 317.198C151.996 317.206 151.942 317.325 151.835 317.542C151.44 318.355 150.35 320.543 148.766 323.289C148.694 323.412 148.621 323.541 148.546 323.667C147.695 325.128 146.713 326.73 145.627 328.358C145.355 328.767 145.082 329.167 144.809 329.557C144.726 329.68 144.642 329.801 144.558 329.918C143.397 331.574 142.25 333.067 141.115 334.397Z" fill="white"/>
<path d="M148.629 323.126C148.536 323.045 148.442 322.962 148.348 322.875C148.095 322.638 147.851 322.385 147.618 322.118C146.623 320.977 145.844 319.57 145.338 318C145.226 318.023 145.114 318.046 145 318.069C145.523 319.733 146.341 321.224 147.392 322.429C147.641 322.715 147.901 322.985 148.173 323.236C148.265 323.322 148.359 323.404 148.454 323.484C149.228 324.147 150.077 324.658 150.973 325C150.982 324.853 150.991 324.709 151 324.568C150.158 324.237 149.359 323.751 148.629 323.126Z" fill="white"/>
<path d="M144.776 329.111C144.658 329.02 144.542 328.927 144.43 328.83C144.394 328.802 144.358 328.772 144.324 328.742C142.905 327.525 141.821 326.004 141.163 324.307C140.504 322.611 140.292 320.79 140.544 319C140.391 319.035 140.238 319.069 140.085 319.106C139.855 320.939 140.093 322.797 140.778 324.526C141.463 326.255 142.577 327.805 144.026 329.049C144.072 329.088 144.118 329.127 144.165 329.165C144.28 329.261 144.396 329.355 144.513 329.447C146.335 330.857 148.551 331.743 150.895 332C150.93 331.865 150.966 331.729 151 331.593C148.713 331.353 146.55 330.49 144.776 329.111V329.111Z" fill="white"/>
<path d="M141.181 333.169C141.055 333.078 140.932 332.984 140.81 332.888C140.681 332.785 140.552 332.681 140.427 332.573C138.477 330.893 137.158 328.662 136.665 326.215C136.173 323.768 136.535 321.237 137.696 319C137.498 319.063 137.301 319.124 137.106 319.19C136.017 321.482 135.723 324.04 136.265 326.499C136.806 328.958 138.156 331.193 140.122 332.888C140.248 332.996 140.374 333.102 140.504 333.202C140.626 333.301 140.749 333.395 140.873 333.487C143.403 335.344 146.586 336.224 149.779 335.951C149.856 335.805 149.927 335.655 150 335.504C146.85 335.837 143.687 334.999 141.181 333.169Z" fill="white"/>
<path d="M125.001 341L129.066 341L131 324L125 324L125.001 341Z" fill="#FFB6B6"/>
<path d="M124 339L132.551 339H132.551C133.996 339 135.382 339.612 136.404 340.702C137.426 341.792 138 343.27 138 344.811V344.999L124 345L124 339Z" fill="#2F2E41"/>
<path d="M92.0007 341L96.0661 341L98 324L92 324L92.0007 341Z" fill="#FFB6B6"/>
<path d="M90 339L98.5506 339H98.5509C99.9961 339 101.382 339.612 102.404 340.702C103.426 341.792 104 343.27 104 344.811V344.999L90.0003 345L90 339Z" fill="#2F2E41"/>
<path d="M98.4607 272L95.5288 274.691L92.2244 307.206L90 333.096L96.7221 334L113.027 289.763L124.957 333.79L133 334L127.662 276.53L98.4607 272Z" fill="#2F2E41"/>
<path d="M112.5 225C117.194 225 121 221.418 121 217C121 212.582 117.194 209 112.5 209C107.806 209 104 212.582 104 217C104 221.418 107.806 225 112.5 225Z" fill="#FFB9B9"/>
<path d="M108.409 213.266C108.409 213.266 107.44 215.335 111.317 214.507C111.317 214.507 112.771 215.335 112.771 214.094C112.771 214.094 114.71 216.163 115.195 214.921C115.679 213.68 116.649 215.335 116.649 215.335L117.618 213.266L118.587 214.508H121.98C121.98 214.508 122.95 206.23 111.317 207.058C99.685 207.886 105.407 221 105.407 221C105.407 221 105.501 218.646 106.471 219.888C107.44 221.129 108.409 213.266 108.409 213.266Z" fill="#2F2E41"/>
<path d="M118.477 227.727L107.196 227L97.1429 229.746L98.6667 256.425L96 275.257C96 275.257 110.631 284.468 127.238 277.218L125.661 272.945C125.661 272.945 125.606 266.404 124.274 265.124C122.941 263.843 123.048 253.286 123.048 253.286L128 233.67L118.477 227.727Z" fill="#3F3D56"/>
<path d="M99.748 230.868L97.026 230C97.026 230 92.7867 230.148 90.5824 235.2C88.3782 240.252 87 247.47 87 247.47L101 248L99.748 230.868Z" fill="#3F3D56"/>
<path d="M132.274 278.049L131.836 249L126 249.926L127.289 277.448C126.758 277.908 126.368 278.524 126.166 279.218C125.964 279.912 125.961 280.654 126.155 281.35C126.349 282.047 126.733 282.667 127.259 283.134C127.784 283.601 128.428 283.894 129.11 283.976C129.792 284.058 130.482 283.926 131.094 283.596C131.705 283.266 132.211 282.753 132.549 282.121C132.886 281.489 133.04 280.765 132.991 280.041C132.942 279.317 132.693 278.624 132.274 278.049V278.049Z" fill="#FFB9B9"/>
<path d="M125.231 236.535L128.568 234C128.568 234 134.978 239.23 135 250.737L126.057 253L121 245.413L125.231 236.535Z" fill="#3F3D56"/>
<path d="M310.001 341L314.744 341L317 324L310 324L310.001 341Z" fill="#9E616A"/>
<path d="M309 339L317.551 339H317.551C318.996 339 320.382 339.612 321.404 340.702C322.426 341.792 323 343.27 323 344.811V344.999L309 345L309 339Z" fill="#2F2E41"/>
<path d="M285 336.711L289.08 338L296 322.902L289.978 321L285 336.711Z" fill="#9E616A"/>
<path d="M284.74 335L293.098 337.69L293.098 337.69C294.511 338.145 295.688 339.152 296.371 340.49C297.054 341.828 297.187 343.387 296.74 344.824L296.685 345L283 340.596L284.74 335Z" fill="#2F2E41"/>
<path d="M294.455 266L292.009 272.584L291.939 308.13L285 332.466L293.518 334.734L302.928 311.787L305.946 291.631L309.923 311.904L309.375 336H318.313L318.987 298.868C319.177 288.44 317.264 278.074 313.354 268.335V268.335L294.455 266Z" fill="#2F2E41"/>
<path d="M291.581 238H306.114L312.186 243.949L314 268.54L292.051 272L285 248.537L288.84 238.565L291.581 238Z" fill="#597393"/>
<path d="M286.656 249L265.55 240.525L265 237.021L278.311 225L282.741 228.547L274.711 237.931L289 238.512L286.656 249Z" fill="#597393"/>
<path d="M281.5 231C283.433 231 285 229.433 285 227.5C285 225.567 283.433 224 281.5 224C279.567 224 278 225.567 278 227.5C278 229.433 279.567 231 281.5 231Z" fill="#9E616A"/>
<path d="M289.031 231.747L290.616 224.637C291.181 222.113 292.731 219.914 294.924 218.526C297.118 217.137 299.776 216.671 302.314 217.232C304.853 217.792 307.064 219.331 308.462 221.512C309.86 223.693 310.33 226.337 309.769 228.863L308.184 235.973C308.108 236.312 307.9 236.608 307.605 236.795C307.311 236.981 306.954 237.044 306.613 236.969L290.032 233.311C289.691 233.235 289.394 233.028 289.207 232.735C289.019 232.442 288.956 232.087 289.031 231.747V231.747Z" fill="#2F2E41"/>
<path d="M298 234C301.866 234 305 230.866 305 227C305 223.134 301.866 220 298 220C294.134 220 291 223.134 291 227C291 230.866 294.134 234 298 234Z" fill="#9E616A"/>
<path d="M288.032 224.527C288.485 222.701 289.726 221.111 291.483 220.106C293.239 219.101 295.367 218.763 297.401 219.166L298.848 219.454C300.88 219.861 302.65 220.976 303.769 222.554C304.888 224.131 305.264 226.043 304.815 227.87L304.783 228L301.726 227.391L301.33 224.56L300.474 227.142L298.894 226.827L298.695 225.398L298.263 226.701L288 224.657L288.032 224.527Z" fill="#2F2E41"/>
<path d="M296.105 234.879C296.012 234.657 295.98 234.411 296.013 234.171C296.045 233.93 296.142 233.704 296.291 233.519C298.316 230.989 301.42 226.164 299.457 222.279L299.316 222L307 223.802L304.442 236L297.189 235.665C297.115 235.662 297.042 235.652 296.97 235.635C296.78 235.591 296.602 235.499 296.452 235.367C296.301 235.236 296.182 235.068 296.105 234.879V234.879Z" fill="#2F2E41"/>
<path d="M384.586 345H43.4128C43.3032 345 43.1982 344.947 43.1208 344.853C43.0434 344.759 43 344.632 43 344.5C43 344.368 43.0434 344.241 43.1208 344.147C43.1982 344.053 43.3032 344 43.4128 344H384.586C384.696 344 384.801 344.053 384.879 344.146C384.956 344.24 385 344.367 385 344.5C385 344.633 384.956 344.76 384.879 344.854C384.801 344.947 384.696 345 384.586 345Z" fill="#CACACA"/>
<path d="M215.575 243H104.425C103.581 243 102.746 243.163 101.966 243.48C101.187 243.796 100.478 244.26 99.8819 244.845C99.2852 245.43 98.812 246.125 98.4891 246.889C98.1662 247.653 98 248.473 98 249.3V275.512C98 276.339 98.1662 277.158 98.4891 277.922C98.812 278.687 99.2852 279.381 99.8818 279.966C100.478 280.551 101.187 281.015 101.966 281.332C102.746 281.649 103.581 281.812 104.425 281.812H106.056V286.547C106.057 286.834 106.143 287.115 106.306 287.354C106.469 287.593 106.7 287.779 106.971 287.889C107.242 287.999 107.54 288.028 107.827 287.972C108.115 287.916 108.379 287.778 108.586 287.574L114.463 281.812H215.575C216.419 281.812 217.254 281.649 218.034 281.332C218.813 281.015 219.522 280.551 220.118 279.966C220.715 279.381 221.188 278.687 221.511 277.922C221.834 277.158 222 276.339 222 275.512V249.3C222 248.473 221.834 247.653 221.511 246.889C221.188 246.125 220.715 245.43 220.118 244.845C219.522 244.26 218.813 243.796 218.034 243.48C217.254 243.163 216.419 243 215.575 243V243Z" fill="#E6E6E6"/>
<path d="M189.259 278H105.088C104.27 277.999 103.485 277.682 102.906 277.117C102.327 276.553 102.001 275.788 102 274.99V249.01C102.001 248.212 102.327 247.447 102.906 246.883C103.485 246.318 104.269 246.001 105.088 246H215.912C216.73 246.001 217.515 246.318 218.094 246.883C218.673 247.447 218.999 248.212 219 249.01C218.991 256.696 215.855 264.065 210.279 269.5C204.703 274.934 197.144 277.991 189.259 278V278Z" fill="white"/>
<path d="M183.904 251H137.096C135.938 251 135 251.895 135 253V253C135 254.105 135.938 255 137.096 255H183.904C185.062 255 186 254.105 186 253C186 251.895 185.062 251 183.904 251Z" fill="#597393"/>
<path d="M193.901 260H127.099C125.94 260 125 260.895 125 262V262C125 263.105 125.94 264 127.099 264H193.901C195.06 264 196 263.105 196 262C196 260.895 195.06 260 193.901 260Z" fill="#E6E6E6"/>
<path d="M193.901 268H127.099C125.94 268 125 268.895 125 270V270C125 271.105 125.94 272 127.099 272H193.901C195.06 272 196 271.105 196 270C196 268.895 195.06 268 193.901 268Z" fill="#E6E6E6"/>
<path d="M373.337 260H292.663C292.051 260 291.445 260.123 290.879 260.362C290.313 260.602 289.799 260.952 289.366 261.394C288.933 261.836 288.589 262.361 288.355 262.938C288.121 263.516 288 264.135 288 264.76V284.564C288 285.189 288.121 285.808 288.355 286.386C288.589 286.963 288.933 287.488 289.366 287.93C289.799 288.372 290.313 288.723 290.879 288.962C291.445 289.201 292.051 289.324 292.663 289.324H293.847V292.902C293.847 293.119 293.911 293.332 294.029 293.512C294.147 293.693 294.315 293.833 294.511 293.916C294.708 294 294.924 294.021 295.133 293.979C295.341 293.937 295.533 293.832 295.683 293.678L299.949 289.324H373.337C373.949 289.324 374.555 289.201 375.121 288.962C375.687 288.723 376.201 288.372 376.634 287.93C377.067 287.488 377.411 286.963 377.645 286.386C377.879 285.808 378 285.189 378 284.564V264.76C378 264.135 377.879 263.516 377.645 262.938C377.411 262.361 377.067 261.836 376.634 261.394C376.201 260.952 375.687 260.602 375.121 260.362C374.555 260.123 373.949 260 373.337 260V260Z" fill="#E6E6E6"/>
<path d="M372.737 287H293.263C292.663 286.999 292.088 286.757 291.663 286.326C291.239 285.896 291.001 285.312 291 284.703V265.297C291.001 264.688 291.239 264.104 291.663 263.674C292.088 263.243 292.663 263.001 293.263 263H353.624C359.291 263.007 364.725 265.295 368.732 269.364C372.739 273.432 374.994 278.949 375 284.703C374.999 285.312 374.761 285.896 374.337 286.326C373.912 286.757 373.337 286.999 372.737 287V287Z" fill="white"/>
<path d="M349.479 267H315.521C314.681 267 314 267.895 314 269C314 270.105 314.681 271 315.521 271H349.479C350.319 271 351 270.105 351 269C351 267.895 350.319 267 349.479 267Z" fill="#597393"/>
<path d="M357.493 273H309.507C308.675 273 308 273.895 308 275C308 276.105 308.675 277 309.507 277H357.493C358.325 277 359 276.105 359 275C359 273.895 358.325 273 357.493 273Z" fill="#E6E6E6"/>
<path d="M357.493 279H309.507C308.675 279 308 279.895 308 281C308 282.105 308.675 283 309.507 283H357.493C358.325 283 359 282.105 359 281C359 279.895 358.325 279 357.493 279Z" fill="#E6E6E6"/>
<path d="M202.612 193H282.388C282.994 193 283.594 193.119 284.153 193.352C284.713 193.584 285.221 193.924 285.649 194.353C286.078 194.782 286.417 195.291 286.649 195.852C286.881 196.413 287 197.013 287 197.62V216.842C287 217.449 286.881 218.049 286.649 218.61C286.417 219.17 286.078 219.68 285.649 220.109C285.221 220.538 284.713 220.878 284.153 221.11C283.594 221.342 282.994 221.462 282.388 221.462H281.218V224.935C281.218 225.145 281.155 225.351 281.038 225.526C280.921 225.702 280.755 225.838 280.561 225.919C280.367 226 280.153 226.021 279.947 225.98C279.74 225.938 279.551 225.837 279.402 225.688L275.184 221.462H202.612C202.006 221.462 201.406 221.342 200.847 221.11C200.287 220.878 199.779 220.538 199.351 220.109C198.922 219.68 198.583 219.17 198.351 218.61C198.119 218.049 198 217.449 198 216.842V197.62C198 197.013 198.119 196.413 198.351 195.852C198.583 195.291 198.922 194.782 199.351 194.353C199.779 193.924 200.287 193.584 200.847 193.352C201.406 193.119 202.006 193 202.612 193V193Z" fill="#E6E6E6"/>
<path d="M282.71 220H221.631C215.896 219.994 210.398 217.705 206.343 213.636C202.288 209.568 200.007 204.051 200 198.297C200.001 197.688 200.242 197.104 200.671 196.674C201.101 196.243 201.683 196.001 202.29 196H282.71C283.317 196.001 283.899 196.243 284.329 196.674C284.758 197.104 284.999 197.688 285 198.297V217.703C284.999 218.312 284.758 218.896 284.329 219.326C283.899 219.757 283.317 219.999 282.71 220Z" fill="white"/>
<path d="M225.521 202H259.479C260.319 202 261 201.552 261 201C261 200.448 260.319 200 259.479 200H225.521C224.681 200 224 200.448 224 201C224 201.552 224.681 202 225.521 202Z" fill="#597393"/>
<path d="M218.507 209H266.493C267.325 209 268 208.328 268 207.5C268 206.672 267.325 206 266.493 206H218.507C217.675 206 217 206.672 217 207.5C217 208.328 217.675 209 218.507 209Z" fill="#E6E6E6"/>
<path d="M218.507 215H266.493C267.325 215 268 214.328 268 213.5C268 212.672 267.325 212 266.493 212H218.507C217.675 212 217 212.672 217 213.5C217 214.328 217.675 215 218.507 215Z" fill="#E6E6E6"/>
<path d="M110 241.773C110 240.773 109.626 239.813 108.961 239.105C108.295 238.398 107.393 238 106.452 238C105.511 238 104.609 238.398 103.943 239.105C103.278 239.813 102.904 240.773 102.904 241.773C102.904 241.81 102.908 241.846 102.909 241.882L96.6865 248.5L97.1597 247.343L90.0637 246.984L89.0286 254.952C88.9379 255.687 89.0642 256.435 89.39 257.091C89.7157 257.747 90.225 258.279 90.8474 258.614C91.4697 258.949 92.1746 259.07 92.8645 258.961C93.5545 258.852 94.1955 258.517 94.6992 258.004L106.965 245.503C107.808 245.372 108.578 244.924 109.135 244.239C109.693 243.554 110 242.679 110 241.773Z" fill="#FFB9B9"/>
<path d="M305.159 238L327.738 241.31L329 244.527L318.33 259L313.227 256.62L319.226 245.855L305 248.532L305.159 238Z" fill="#597393"/>
<path d="M315.5 263C317.433 263 319 261.433 319 259.5C319 257.567 317.433 256 315.5 256C313.567 256 312 257.567 312 259.5C312 261.433 313.567 263 315.5 263Z" fill="#9E616A"/>
</svg>
