<svg width="428" height="400" viewBox="0 0 428 400" fill="none" xmlns="http://www.w3.org/2000/svg">
<path d="M119.058 336.878C119.123 343.477 115.22 345.82 110.379 345.867C110.267 345.868 110.155 345.868 110.043 345.866C109.819 345.864 109.597 345.856 109.377 345.842C105.005 345.576 101.586 343.187 101.526 337.049C101.464 330.698 109.507 322.603 110.11 322.005L110.111 322.004C110.134 321.982 110.146 321.97 110.146 321.97C110.146 321.97 118.994 330.28 119.058 336.878Z" fill="#597393"/>
<path d="M257.451 336.507C257.515 343.107 253.613 345.449 248.771 345.496C248.659 345.497 248.547 345.497 248.436 345.496C248.211 345.493 247.989 345.485 247.769 345.471C243.397 345.205 239.978 342.816 239.919 336.678C239.857 330.327 247.899 322.233 248.503 321.634L248.504 321.633C248.527 321.611 248.538 321.599 248.538 321.599C248.538 321.599 257.386 329.909 257.451 336.507Z" fill="#597393"/>
<path d="M371 345.021H56V345.763H371V345.021Z" fill="#CACACA"/>
<path d="M120.187 221.128C154.203 221.128 181.777 193.565 181.777 159.564C181.777 125.563 154.203 98 120.187 98C86.172 98 58.5972 125.563 58.5972 159.564C58.5972 193.565 86.172 221.128 120.187 221.128Z" fill="#597393"/>
<path d="M195.134 290.109H195.134C209.895 290.109 224.05 295.97 234.487 306.402C244.924 316.835 250.788 330.985 250.788 345.739V345.739H163.597V321.632C163.597 313.272 166.92 305.254 172.834 299.342C178.749 293.43 186.77 290.109 195.134 290.109Z" fill="#3F3D56"/>
<path d="M316.051 216.699C316.051 216.699 318.59 249.69 315.036 250.705C311.481 251.721 298.787 259.334 278.476 257.304C278.476 257.304 258.673 267.962 261.72 257.811C264.766 247.66 278.476 250.198 278.476 250.198C278.476 250.198 302.849 245.122 303.865 241.569C304.88 238.017 300.818 223.297 302.341 222.79C303.865 222.282 316.051 216.699 316.051 216.699Z" fill="#A0616A"/>
<path d="M285.636 274.22C285.636 274.22 287.616 321.882 290.662 328.988C293.2 334.907 294.681 354.207 295.105 360.49C295.19 361.75 295.232 362.486 295.232 362.486C295.232 362.486 303.357 362.486 303.864 360.456C304.372 358.426 305.896 336.093 303.864 328.988C301.833 321.882 306.455 272.697 306.455 272.697L285.636 274.22Z" fill="#2F2E41"/>
<path d="M297.264 359.949C297.264 359.949 292.186 361.471 291.17 363.501C290.155 365.532 273.398 369.085 278.476 371.622C283.554 374.16 298.787 369.592 298.787 369.592C298.787 369.592 306.911 369.085 306.403 366.039C305.896 362.994 304.046 359.242 304.046 359.242L297.264 359.949Z" fill="#2F2E41"/>
<path d="M311.481 365.413C311.481 365.413 306.404 366.936 305.388 368.966C304.372 370.996 287.616 374.549 292.694 377.087C297.771 379.625 313.005 375.057 313.005 375.057C313.005 375.057 321.129 374.549 320.621 371.504C320.113 368.458 318.264 364.706 318.264 364.706L311.481 365.413Z" fill="#2F2E41"/>
<path d="M290.155 273.038L297.264 285.219L309.128 327.572C309.128 327.572 307.927 366.428 309.45 366.428C310.973 366.428 319.098 368.966 319.606 366.428C320.035 364.285 325.722 343.749 322.887 330.081C321.043 321.443 319.857 312.677 319.339 303.859L318.082 280.144C318.082 280.144 323.16 271.008 317.575 269.485C311.989 267.962 290.155 273.038 290.155 273.038Z" fill="#2F2E41"/>
<path d="M296.756 194.874C303.486 194.874 308.942 189.421 308.942 182.693C308.942 175.965 303.486 170.512 296.756 170.512C290.025 170.512 284.569 175.965 284.569 182.693C284.569 189.421 290.025 194.874 296.756 194.874Z" fill="#A0616A"/>
<path d="M295.232 190.814C295.232 190.814 297.264 207.056 296.756 208.071C296.248 209.086 308.942 196.905 308.942 196.905C308.942 196.905 304.372 189.799 305.388 186.246L295.232 190.814Z" fill="#A0616A"/>
<path d="M323.668 207.056C323.668 207.056 309.45 196.904 308.942 194.874L298.279 204.01L296.467 201.854C296.467 201.854 288.124 210.101 288.124 213.654C288.124 217.207 287.616 227.865 289.139 230.911C290.662 233.956 284.569 272.53 284.569 272.53C284.569 272.53 289.647 277.098 290.155 277.606C290.662 278.113 310.973 274.561 310.973 274.561C310.973 274.561 321.129 273.545 321.129 272.023C321.129 270.5 318.082 247.66 319.098 241.569C320.113 235.479 323.668 207.056 323.668 207.056Z" fill="#575A89"/>
<path d="M326.714 221.267C326.714 221.267 329.253 254.258 325.699 255.273C322.144 256.289 309.45 263.902 289.139 261.872C289.139 261.872 269.336 272.53 272.383 262.379C275.429 252.228 289.139 254.766 289.139 254.766C289.139 254.766 313.512 249.69 314.528 246.137C315.543 242.585 311.481 227.865 313.004 227.358C314.528 226.85 326.714 221.267 326.714 221.267Z" fill="#A0616A"/>
<path d="M291.55 176.608C293.216 176.015 295.054 175.711 296.752 176.202C299.156 176.897 300.821 179.004 302.617 180.746C304.412 182.488 306.931 184.032 309.295 183.213C309.152 182.188 309.421 181.149 310.043 180.322C310.352 180.014 310.58 179.635 310.707 179.217C310.808 178.565 310.259 178.002 310.095 177.363C309.806 176.242 310.597 174.709 309.625 174.081C309.368 173.915 309.043 173.877 308.793 173.702C307.81 173.015 308.901 171.308 308.252 170.301C308.057 170.04 307.804 169.83 307.513 169.685C302.802 166.937 297.039 166.929 291.585 166.998C290.825 167.008 289.768 167.385 289.982 168.113C288.951 167.374 287.601 168.412 286.77 169.371L285.07 171.333C284.271 172.186 283.573 173.129 282.991 174.143C282.472 175.136 282.357 176.663 283.391 177.096C282.622 176.774 281.69 181.326 285.233 180.577C287.292 180.142 289.311 177.404 291.55 176.608Z" fill="#2F2E41"/>
<path d="M315.543 208.071L323.668 207.056C323.668 207.056 331.792 222.79 327.222 225.328C322.652 227.865 310.973 229.896 310.973 228.881C310.973 227.865 315.543 208.071 315.543 208.071Z" fill="#575A89"/>
<path d="M204.196 211.523C204.196 211.523 206.62 219.483 205.235 221.906C203.85 224.328 207.659 229.519 213.891 227.097C220.123 224.674 220.469 221.906 220.469 221.906C220.469 221.906 218.045 218.099 217.353 210.139L204.196 211.523Z" fill="#FFB9B9"/>
<path d="M172.517 289.564C172.517 289.564 160.052 295.793 165.592 304.099C168.812 308.927 174.956 318.315 179.538 325.331C183.372 331.202 186.312 337.611 188.263 344.346L189.135 347.359L192.598 351.512L199.869 343.206C199.869 343.206 189.135 323.48 189.135 319.673C189.135 315.866 180.48 303.753 180.48 303.753L189.135 298.216C189.135 298.216 179.441 287.141 172.517 289.564Z" fill="#FFB9B9"/>
<path d="M213.025 311.021C213.025 311.021 213.371 320.711 213.718 324.518C214.003 327.659 211.225 336.452 212.189 346.236C212.776 352.565 212.706 358.938 211.979 365.253L210.602 377.814L220.988 378.852L224.451 350.474C224.451 350.474 226.528 330.401 225.489 323.826L225.836 309.983C225.836 309.983 218.219 307.214 213.025 311.021Z" fill="#FFB9B9"/>
<path d="M194.502 270.703C194.502 270.703 170.266 286.276 169.92 291.121C169.92 291.121 183.769 289.737 184.115 301.85C184.115 301.85 192.425 298.735 194.502 298.043C196.579 297.351 207.659 290.083 207.659 290.083C207.659 290.083 212.16 293.544 212.16 299.081C212.16 304.618 211.813 314.309 212.16 315.001C212.506 315.693 220.469 305.657 227.047 314.309L231.548 290.429C231.548 290.429 232.933 275.894 230.163 274.856L210.775 267.588L194.502 270.703Z" fill="#2F2E41"/>
<path d="M209.217 215.849C214.953 215.849 219.603 211.201 219.603 205.467C219.603 199.733 214.953 195.085 209.217 195.085C203.48 195.085 198.83 199.733 198.83 205.467C198.83 211.201 203.48 215.849 209.217 215.849Z" fill="#FFB9B9"/>
<path d="M206.62 223.636C206.62 223.636 218.336 226.729 219.922 220.857C219.922 220.857 234.318 223.636 236.742 232.98C239.165 242.324 230.856 264.819 230.856 265.512C230.856 266.204 237.78 270.357 234.664 272.433C231.548 274.51 228.778 272.087 230.163 274.856C231.548 277.624 233.972 278.316 231.894 279.009C229.817 279.701 217.353 268.972 207.659 271.741C197.964 274.51 193.117 272.433 193.117 272.433L188.77 234.88C188.6 233.441 188.794 231.983 189.333 230.638C189.872 229.293 190.739 228.104 191.856 227.181C194.025 225.396 196.904 223.467 199.695 222.944C205.235 221.906 205.465 221.337 205.465 221.337L206.62 223.636Z" fill="#D0CDE1"/>
<path d="M195.541 284.2C195.541 284.2 198.657 301.85 202.812 299.427C206.966 297.005 201.773 284.2 201.773 284.2H195.541Z" fill="#FFB9B9"/>
<path d="M210.004 286.484C210.004 286.484 204.605 303.575 209.41 303.346C214.214 303.118 215.53 289.363 215.53 289.363L210.004 286.484Z" fill="#FFB9B9"/>
<path d="M190.867 346.667C190.867 346.667 188.443 343.898 187.058 347.705C185.673 351.512 181.865 356.357 181.865 356.357C181.865 356.357 173.555 365.701 179.441 366.047C185.327 366.393 193.637 357.741 193.637 357.741L203.331 348.743C203.331 348.743 200.118 340.922 198.608 340.853C197.099 340.784 197.445 350.128 190.867 346.667Z" fill="#2F2E41"/>
<path d="M213.371 375.391C213.371 375.391 210.931 376.103 211.113 373.152C211.113 373.152 202.292 377.814 204.716 381.275C207.139 384.736 209.909 388.196 209.909 388.196C209.909 388.196 222.719 395.464 223.758 393.734C224.797 392.003 224.797 388.542 224.104 387.158C223.412 385.774 219.95 383.351 220.988 381.275C222.027 379.198 220.642 373.661 218.911 373.661C217.18 373.661 213.371 375.391 213.371 375.391Z" fill="#2F2E41"/>
<path d="M200.152 196.669C200.152 196.669 203.494 189.433 209.898 191.103C216.302 192.773 219.922 195.278 220.2 197.783C220.479 200.288 220.061 204.045 220.061 204.045C220.061 204.045 219.365 198.896 214.91 200.009C210.455 201.123 203.494 200.288 203.494 200.288L202.38 210.307C202.38 210.307 201.127 208.498 199.735 209.612C198.342 210.725 195.697 198.896 200.152 196.669Z" fill="#2F2E41"/>
<path d="M230.856 232.634C230.856 232.634 222.546 255.129 223.239 257.898C223.931 260.666 223.239 261.013 222.2 261.705C221.162 262.397 218.392 269.664 218.392 269.664C218.392 269.664 216.661 273.817 215.276 274.856C213.891 275.894 213.891 278.663 213.891 278.663C213.891 278.663 210.429 282.123 211.121 282.815C211.813 283.508 211.813 284.546 210.429 285.584C209.044 286.622 207.659 288.007 208.351 288.353C209.044 288.699 213.891 292.506 215.276 292.16C216.661 291.814 214.583 290.429 216.314 289.737C218.046 289.045 219.084 288.007 218.392 287.661C217.699 287.314 215.622 287.314 217.699 286.622C219.777 285.93 227.047 281.431 229.471 275.894C231.895 270.357 243.507 236.855 236.489 232.149C236.489 232.149 233.626 228.481 230.856 232.634Z" fill="#D0CDE1"/>
<path d="M192.425 228.827L192.284 228.886C190.976 229.431 189.821 230.286 188.918 231.378C188.016 232.47 187.393 233.766 187.104 235.152C186.348 238.769 185.604 244.001 186.192 248.9C187.231 257.552 187.924 261.359 189.308 264.127C190.693 266.896 191.04 265.858 190.693 267.934C190.347 270.011 188.616 268.28 190.347 271.049C192.078 273.817 193.117 273.125 192.425 274.51C191.732 275.894 190.693 275.894 192.078 277.624C193.463 279.355 193.463 280.047 193.809 280.739C194.156 281.431 195.194 286.622 195.194 286.622C195.194 286.622 200.734 284.892 203.85 285.584C203.85 285.584 201.08 280.739 201.773 279.701C202.465 278.662 203.504 278.316 202.465 277.278C201.426 276.24 199.695 276.586 201.426 275.548C203.158 274.51 200.042 263.781 200.042 263.781L192.425 228.827Z" fill="#D0CDE1"/>
<path d="M126.124 344.997H113.509L119.26 150.292L126.124 344.997Z" fill="#3F3D56"/>
<path d="M120.373 187.193L133.915 168.465L120.187 191.829L118.703 189.233L120.373 187.193Z" fill="#3F3D56"/>
<path d="M118.889 206.108L105.346 187.379L119.074 210.743L120.558 208.147L118.889 206.108Z" fill="#3F3D56"/>
<path d="M125.837 243.721L119.732 247.244L121.587 250.456L127.692 246.932L125.837 243.721Z" fill="#3F3D56"/>
</svg>
