<svg width="428" height="300" viewBox="0 0 428 300" fill="none" xmlns="http://www.w3.org/2000/svg">
<path d="M266.084 135.698C265.689 137.779 265.214 139.838 264.661 141.876C264.601 142.113 264.533 142.346 264.466 142.583H256.769C256.114 142.584 255.485 142.844 255.022 143.308C254.558 143.771 254.297 144.4 254.297 145.055V166.999C254.063 167.433 253.827 167.864 253.59 168.295C252.368 170.521 251.096 172.721 249.796 174.894C228.599 210.203 199.035 239.75 163.714 260.926L165.806 256.207C165.039 256.154 164.269 256.101 163.503 256.048C146.812 254.907 130.065 253.642 113.766 249.891C96.7148 245.966 80.0348 239.159 66.6715 227.873C53.3047 216.584 43.5058 200.462 42.1458 183.019C41.6923 177.024 42.2986 170.996 43.9369 165.212C47.07 154.077 53.916 144.059 63.7927 138.132C79.3071 128.824 99.5444 130.721 115.899 138.464C132.251 146.204 145.561 159.016 158.557 171.605C145.436 149.105 127.167 130.036 105.249 115.962C97.9865 111.314 90.2788 107.174 84.1041 101.151C77.9329 95.1317 73.3795 86.6927 74.4712 78.1407C75.711 68.4406 83.6555 61.079 91.614 55.4024C94.7932 53.1346 98.0748 50.9834 101.459 49.0052C111.007 43.4098 121.336 39.1886 132.244 37.6237C147.02 35.5007 162.98 38.7223 174.308 48.4435C187.071 59.3976 192.306 77.0633 191.808 93.9624C199.671 82.5315 211.798 73.7817 225.493 73.4108C239.711 73.0293 253.226 82.0122 260.348 94.3263C267.466 106.637 268.744 121.727 266.084 135.698Z" fill="#E6E6E6"/>
<path d="M176.128 183.172C184.456 182.439 192.148 181.582 200.218 179.299C208.04 177.085 215.567 173.38 221.135 167.33C227.124 160.823 230.357 152.372 232.638 143.959C233.91 139.269 234.955 134.513 235.941 129.755C237.011 124.593 237.961 119.408 238.793 114.201C240.447 103.835 241.629 93.4078 242.337 82.9197C242.422 81.6466 242.501 80.3731 242.572 79.0991C242.616 78.3132 241.394 78.3157 241.35 79.0991C240.768 89.4373 239.722 99.7352 238.211 109.993C236.72 120.071 234.813 130.105 232.392 140.003C230.342 148.387 227.687 156.903 222.429 163.883C217.498 170.428 210.376 174.705 202.685 177.263C194.86 179.865 186.609 180.904 178.432 181.677C177.429 181.771 177.132 181.862 176.128 181.95C175.351 182.018 175.343 183.241 176.128 183.172L176.128 183.172Z" fill="white"/>
<path d="M44.6423 166.113C55.149 166.696 65.5489 168.529 75.622 171.572C85.6994 174.61 95.3835 178.825 104.474 184.131C113.257 189.262 121.411 195.401 128.77 202.424C135.911 209.244 142.276 216.833 147.748 225.053C153.245 233.294 157.801 242.125 161.329 251.382C161.76 252.514 162.174 253.653 162.573 254.798C162.83 255.535 164.011 255.218 163.751 254.473C160.45 245.021 156.098 235.97 150.777 227.489C145.457 219.008 139.214 211.143 132.161 204.037C124.995 196.821 117.021 190.457 108.395 185.071C90.2836 173.789 69.7547 166.964 48.4939 165.156C47.2114 165.049 45.9275 164.96 44.6423 164.891C43.8564 164.848 43.8588 166.07 44.6423 166.113L44.6423 166.113Z" fill="white"/>
<path d="M101.789 50.4378C108.507 52.5743 114.875 55.6859 120.688 59.6731C126.629 63.775 132.046 68.5864 136.821 74.0007C141.853 79.6962 146.327 85.8616 150.181 92.4121C154.269 99.3284 157.82 106.548 160.803 114.008C163.875 121.666 166.458 129.512 168.538 137.497C170.653 145.576 172.304 153.77 173.485 162.038C174.659 170.218 175.37 178.459 175.614 186.719C175.86 194.618 175.626 202.524 174.915 210.395C174.264 217.738 173.076 225.023 171.36 232.192C169.836 238.667 167.688 244.979 164.947 251.04C164.312 252.416 163.638 253.772 162.926 255.11C162.556 255.804 163.611 256.422 163.981 255.727C167.01 249.938 169.429 243.849 171.199 237.56C173.184 230.558 174.624 223.413 175.504 216.189C176.479 208.351 176.954 200.459 176.926 192.56C176.908 184.263 176.414 175.973 175.446 167.732C174.478 159.388 173.04 151.105 171.14 142.923C169.245 134.727 166.84 126.658 163.941 118.761C161.146 111.117 157.8 103.686 153.929 96.5261C150.243 89.6942 145.946 83.2092 141.092 77.1504C136.482 71.3815 131.22 66.1663 125.409 61.609C119.807 57.2278 113.615 53.6566 107.018 51.0003C105.405 50.3585 103.771 49.7782 102.114 49.2592C101.362 49.0226 101.04 50.2022 101.789 50.4378H101.789Z" fill="white"/>
<path d="M174.287 263.039C222.572 263.039 261.714 261.457 261.714 259.506C261.714 257.555 222.572 255.974 174.287 255.974C126.002 255.974 86.8592 257.555 86.8592 259.506C86.8592 261.457 126.002 263.039 174.287 263.039Z" fill="#E6E6E6"/>
<path d="M251.53 148.867C251.487 149.057 251.459 149.251 251.446 149.446L236.271 158.2L232.583 156.077L228.651 161.225L236.541 166.848L253.853 153.191C254.559 153.452 255.328 153.492 256.058 153.306C256.787 153.12 257.442 152.716 257.937 152.148C258.431 151.58 258.741 150.875 258.824 150.127C258.908 149.379 258.762 148.623 258.406 147.959C258.05 147.296 257.5 146.757 256.83 146.414C256.16 146.071 255.401 145.94 254.655 146.038C253.908 146.137 253.21 146.46 252.651 146.965C252.093 147.471 251.702 148.134 251.53 148.867Z" fill="#FFB8B8"/>
<path d="M216.972 154.237L228.92 162.753L234.264 156.053L222.649 146.734C222.149 146.333 221.573 146.038 220.955 145.868C220.338 145.697 219.692 145.655 219.057 145.743C218.423 145.83 217.813 146.047 217.265 146.379C216.717 146.711 216.242 147.151 215.87 147.673C215.146 148.689 214.855 149.952 215.061 151.183C215.268 152.414 215.955 153.513 216.972 154.237Z" fill="#597393"/>
<path d="M192.308 251.403L196.497 252.501L202.725 236.865L196.542 235.244L192.308 251.403Z" fill="#FFB8B8"/>
<path d="M203.557 258.508L190.391 255.058L191.724 249.971L199.803 252.088C201.152 252.442 202.306 253.317 203.01 254.521C203.714 255.725 203.91 257.159 203.557 258.508Z" fill="#2F2E41"/>
<path d="M229.548 254.386L233.811 253.624L232.902 236.818L226.61 237.942L229.548 254.386Z" fill="#FFB8B8"/>
<path d="M242.74 256.115L229.341 258.508L228.417 253.331L236.638 251.863C237.318 251.741 238.015 251.755 238.69 251.903C239.364 252.051 240.003 252.33 240.57 252.725C241.136 253.12 241.62 253.622 241.992 254.204C242.364 254.786 242.618 255.435 242.74 256.115Z" fill="#2F2E41"/>
<path d="M221.153 130.789C222.203 131.045 223.058 132.115 223.571 133.355C224.045 134.658 224.365 136.011 224.526 137.387C224.93 139.951 225.317 142.726 224.483 145.1C223.505 147.882 220.9 149.34 218.641 148.655C216.381 147.97 214.584 145.399 213.97 142.44C213.411 139.45 213.771 136.36 215.003 133.579C215.645 132.118 216.53 130.769 217.705 130.11C218.282 129.761 218.97 129.644 219.629 129.781C220.289 129.919 220.872 130.301 221.262 130.851" fill="#2F2E41"/>
<path d="M227.097 177.201L235.213 249.896L228.51 252.441L216.146 203.694L198.933 248.265L191.596 248.673C191.596 248.673 201.663 179.32 209.124 177.744L227.097 177.201Z" fill="#2F2E41"/>
<path d="M220.279 140.066C225.071 140.066 228.956 136.182 228.956 131.39C228.956 126.599 225.071 122.714 220.279 122.714C215.488 122.714 211.603 126.599 211.603 131.39C211.603 136.182 215.488 140.066 220.279 140.066Z" fill="#FFB8B8"/>
<path d="M224.003 143.706L214.627 142.483C214.627 142.483 208.513 149.821 208.92 162.458C209.328 175.094 207.901 178.967 207.901 178.967L227.45 179.32C224.624 175.434 236.444 153.118 224.003 143.706Z" fill="#597393"/>
<path d="M229.04 181.086C228.844 181.088 228.649 181.104 228.456 181.136L216.462 168.368L217.685 164.292L211.774 161.642L208.105 170.61L225.362 184.337C225.269 185.084 225.406 185.842 225.754 186.509C226.103 187.177 226.646 187.722 227.312 188.073C227.978 188.424 228.735 188.565 229.482 188.475C230.23 188.385 230.932 188.07 231.496 187.572C232.061 187.073 232.459 186.415 232.64 185.684C232.821 184.953 232.775 184.184 232.508 183.48C232.241 182.776 231.767 182.17 231.147 181.742C230.528 181.315 229.792 181.086 229.04 181.086Z" fill="#FFB8B8"/>
<path d="M215.903 148.674L210.347 162.254L218.092 165.922L224.507 152.483C224.782 151.905 224.937 151.277 224.962 150.636C224.987 149.996 224.88 149.358 224.649 148.76C224.419 148.162 224.068 147.618 223.62 147.161C223.171 146.703 222.634 146.342 222.041 146.1C221.469 145.866 220.856 145.747 220.238 145.749C219.62 145.752 219.009 145.876 218.439 146.115C217.869 146.354 217.351 146.703 216.916 147.142C216.481 147.581 216.137 148.102 215.903 148.674Z" fill="#597393"/>
<path d="M218.01 139.278C219.369 138.494 219.514 136.602 219.33 135.043C219.145 133.485 218.836 131.747 219.752 130.473C220.846 128.952 223.042 128.922 224.915 128.872C226.787 128.823 229.068 128.274 229.553 126.465C229.873 125.27 229.187 123.987 228.203 123.236C227.219 122.486 225.988 122.154 224.791 121.839C222.113 121.134 219.349 120.422 216.607 120.81C213.892 121.194 211.437 122.632 209.774 124.812C208.11 126.992 207.372 129.74 207.719 132.46C208.163 135.94 208.806 137.459 208.384 138.994C207.597 141.851 204.205 143.687 204.137 146.651C204.084 148.969 206.132 150.757 208.129 151.934C209.714 152.867 211.424 153.66 213.25 153.878C215.076 154.097 217.042 153.678 218.402 152.441C220.157 150.844 220.591 148.177 220.088 145.859C219.584 143.541 218.294 141.483 217.017 139.484" fill="#2F2E41"/>
<path d="M382.17 141.876H256.769C255.926 141.877 255.118 142.213 254.523 142.809C253.927 143.405 253.591 144.213 253.59 145.055V225.595C253.591 226.438 253.927 227.245 254.523 227.841C255.118 228.437 255.926 228.773 256.769 228.774H382.17C383.013 228.773 383.821 228.437 384.417 227.841C385.013 227.245 385.348 226.438 385.35 225.595V145.055C385.348 144.213 385.013 143.405 384.417 142.809C383.821 142.213 383.013 141.877 382.17 141.876ZM384.643 225.595C384.642 226.25 384.382 226.879 383.918 227.342C383.455 227.806 382.826 228.067 382.17 228.068H256.769C256.114 228.067 255.485 227.806 255.022 227.342C254.558 226.879 254.297 226.25 254.296 225.595V145.055C254.297 144.4 254.558 143.771 255.022 143.308C255.485 142.844 256.114 142.583 256.769 142.583H382.17C382.826 142.583 383.455 142.844 383.918 143.308C384.382 143.771 384.642 144.4 384.643 145.055V225.595Z" fill="#3F3D56"/>
<path d="M283.536 181.968H263.755C262.959 181.967 262.195 181.65 261.633 181.087C261.07 180.524 260.753 179.761 260.752 178.965V159.184C260.753 158.388 261.07 157.624 261.633 157.062C262.195 156.499 262.959 156.182 263.755 156.181H283.536C284.332 156.182 285.096 156.499 285.658 157.062C286.221 157.624 286.538 158.388 286.539 159.184V178.965C286.538 179.761 286.221 180.524 285.658 181.087C285.096 181.65 284.332 181.967 283.536 181.968Z" fill="#597393"/>
<path d="M375.639 202.989H263.308C262.699 202.989 262.115 202.747 261.685 202.316C261.254 201.886 261.012 201.302 261.012 200.693C261.012 200.084 261.254 199.5 261.685 199.069C262.115 198.639 262.699 198.397 263.308 198.397H375.639C376.248 198.397 376.832 198.639 377.263 199.069C377.694 199.5 377.936 200.084 377.936 200.693C377.936 201.302 377.694 201.886 377.263 202.316C376.832 202.747 376.248 202.989 375.639 202.989Z" fill="#CCCCCC"/>
<path d="M375.715 191.862H263.383C262.775 191.862 262.191 191.62 261.76 191.189C261.329 190.759 261.087 190.175 261.087 189.566C261.087 188.957 261.329 188.373 261.76 187.942C262.191 187.512 262.775 187.27 263.383 187.27H375.715C376.324 187.27 376.908 187.512 377.338 187.942C377.769 188.373 378.011 188.957 378.011 189.566C378.011 190.175 377.769 190.759 377.338 191.189C376.908 191.62 376.324 191.862 375.715 191.862Z" fill="#CCCCCC"/>
<path d="M320.256 176.669H303.653C303.044 176.669 302.46 176.427 302.03 175.997C301.599 175.566 301.357 174.982 301.357 174.373C301.357 173.764 301.599 173.18 302.03 172.749C302.46 172.319 303.044 172.077 303.653 172.077H320.256C320.865 172.077 321.449 172.319 321.879 172.749C322.31 173.18 322.552 173.764 322.552 174.373C322.552 174.982 322.31 175.566 321.879 175.997C321.449 176.427 320.865 176.669 320.256 176.669Z" fill="#CCCCCC"/>
<path d="M375.715 165.369H303.653C303.044 165.369 302.46 165.127 302.03 164.696C301.599 164.266 301.357 163.682 301.357 163.073C301.357 162.464 301.599 161.88 302.03 161.449C302.46 161.018 303.044 160.776 303.653 160.776H375.715C376.324 160.776 376.908 161.018 377.338 161.449C377.769 161.88 378.011 162.464 378.011 163.073C378.011 163.682 377.769 164.266 377.338 164.696C376.908 165.127 376.324 165.369 375.715 165.369Z" fill="#CCCCCC"/>
<path d="M317.43 214.293H263.308C262.699 214.293 262.115 214.051 261.685 213.62C261.254 213.19 261.012 212.606 261.012 211.997C261.012 211.388 261.254 210.804 261.685 210.373C262.115 209.942 262.699 209.701 263.308 209.701H317.43C318.039 209.701 318.623 209.942 319.053 210.373C319.484 210.804 319.726 211.388 319.726 211.997C319.726 212.606 319.484 213.19 319.053 213.62C318.623 214.051 318.039 214.293 317.43 214.293Z" fill="#CCCCCC"/>
</svg>
